<?xml version="1.0" encoding="utf-8" standalone="no"?>
<!DOCTYPE svg PUBLIC "-//W3C//DTD SVG 1.1//EN"
  "http://www.w3.org/Graphics/SVG/1.1/DTD/svg11.dtd">
<svg xmlns:xlink="http://www.w3.org/1999/xlink" width="1000.318125pt" height="388.844525pt" viewBox="0 0 1000.318125 388.844525" xmlns="http://www.w3.org/2000/svg" version="1.1">
 <metadata>
  <rdf:RDF xmlns:dc="http://purl.org/dc/elements/1.1/" xmlns:cc="http://creativecommons.org/ns#" xmlns:rdf="http://www.w3.org/1999/02/22-rdf-syntax-ns#">
   <cc:Work>
    <dc:type rdf:resource="http://purl.org/dc/dcmitype/StillImage"/>
    <dc:date>2024-04-03T14:11:13.502689</dc:date>
    <dc:format>image/svg+xml</dc:format>
    <dc:creator>
     <cc:Agent>
      <dc:title>Matplotlib v3.8.1, https://matplotlib.org/</dc:title>
     </cc:Agent>
    </dc:creator>
   </cc:Work>
  </rdf:RDF>
 </metadata>
 <defs>
  <style type="text/css">*{stroke-linejoin: round; stroke-linecap: butt}</style>
 </defs>
 <g id="figure_1">
  <g id="axes_1">
   <g id="patch_1">
    <path d="M 38.058125 353.2239 
L 993.118125 353.2239 
L 993.118125 35.2559 
L 38.058125 35.2559 
z
" style="fill: #ffffff"/>
   </g>
   <g id="patch_2">
    <path d="M 38.058125 111.29865 
L 953.565135 111.29865 
L 953.565135 -510.79485 
L 38.058125 -510.79485 
z
" clip-path="url(#pa53d8b364e)" style="fill: #c3e6c3"/>
   </g>
   <g id="patch_3">
    <path d="M 38.058125 180.42015 
L 953.565135 180.42015 
L 953.565135 111.29865 
L 38.058125 111.29865 
z
" clip-path="url(#pa53d8b364e)" style="fill: #e6dcc3"/>
   </g>
   <g id="patch_4">
    <path d="M 38.058125 353.2239 
L 953.565135 353.2239 
L 953.565135 180.42015 
L 38.058125 180.42015 
z
" clip-path="url(#pa53d8b364e)" style="fill: #e6c3c3"/>
   </g>
   <g id="matplotlib.axis_1">
    <g id="xtick_1">
     <g id="text_1">
      <!-- 0 -->
      <g transform="translate(75.066115 366.30265) scale(0.08 -0.08)">
       <defs>
        <path id="DejaVuSans-30" d="M 2034 4250 
Q 1547 4250 1301 3770 
Q 1056 3291 1056 2328 
Q 1056 1369 1301 889 
Q 1547 409 2034 409 
Q 2525 409 2770 889 
Q 3016 1369 3016 2328 
Q 3016 3291 2770 3770 
Q 2525 4250 2034 4250 
z
M 2034 4750 
Q 2819 4750 3233 4129 
Q 3647 3509 3647 2328 
Q 3647 1150 3233 529 
Q 2819 -91 2034 -91 
Q 1250 -91 836 529 
Q 422 1150 422 2328 
Q 422 3509 836 4129 
Q 1250 4750 2034 4750 
z
" transform="scale(0.015625)"/>
       </defs>
       <use xlink:href="#DejaVuSans-30"/>
      </g>
     </g>
    </g>
    <g id="xtick_2">
     <g id="text_2">
      <!-- 50 -->
      <g transform="translate(265.462529 366.30265) scale(0.08 -0.08)">
       <defs>
        <path id="DejaVuSans-35" d="M 691 4666 
L 3169 4666 
L 3169 4134 
L 1269 4134 
L 1269 2991 
Q 1406 3038 1543 3061 
Q 1681 3084 1819 3084 
Q 2600 3084 3056 2656 
Q 3513 2228 3513 1497 
Q 3513 744 3044 326 
Q 2575 -91 1722 -91 
Q 1428 -91 1123 -41 
Q 819 9 494 109 
L 494 744 
Q 775 591 1075 516 
Q 1375 441 1709 441 
Q 2250 441 2565 725 
Q 2881 1009 2881 1497 
Q 2881 1984 2565 2268 
Q 2250 2553 1709 2553 
Q 1456 2553 1204 2497 
Q 953 2441 691 2322 
L 691 4666 
z
" transform="scale(0.015625)"/>
       </defs>
       <use xlink:href="#DejaVuSans-35"/>
       <use xlink:href="#DejaVuSans-30" x="63.623047"/>
      </g>
     </g>
    </g>
    <g id="xtick_3">
     <g id="text_3">
      <!-- 100 -->
      <g transform="translate(455.858943 366.30265) scale(0.08 -0.08)">
       <defs>
        <path id="DejaVuSans-31" d="M 794 531 
L 1825 531 
L 1825 4091 
L 703 3866 
L 703 4441 
L 1819 4666 
L 2450 4666 
L 2450 531 
L 3481 531 
L 3481 0 
L 794 0 
L 794 531 
z
" transform="scale(0.015625)"/>
       </defs>
       <use xlink:href="#DejaVuSans-31"/>
       <use xlink:href="#DejaVuSans-30" x="63.623047"/>
       <use xlink:href="#DejaVuSans-30" x="127.246094"/>
      </g>
     </g>
    </g>
    <g id="xtick_4">
     <g id="text_4">
      <!-- 150 -->
      <g transform="translate(648.800357 366.30265) scale(0.08 -0.08)">
       <use xlink:href="#DejaVuSans-31"/>
       <use xlink:href="#DejaVuSans-35" x="63.623047"/>
       <use xlink:href="#DejaVuSans-30" x="127.246094"/>
      </g>
     </g>
    </g>
    <g id="xtick_5">
     <g id="text_5">
      <!-- 200 -->
      <g transform="translate(841.741771 366.30265) scale(0.08 -0.08)">
       <defs>
        <path id="DejaVuSans-32" d="M 1228 531 
L 3431 531 
L 3431 0 
L 469 0 
L 469 531 
Q 828 903 1448 1529 
Q 2069 2156 2228 2338 
Q 2531 2678 2651 2914 
Q 2772 3150 2772 3378 
Q 2772 3750 2511 3984 
Q 2250 4219 1831 4219 
Q 1534 4219 1204 4116 
Q 875 4013 500 3803 
L 500 4441 
Q 881 4594 1212 4672 
Q 1544 4750 1819 4750 
Q 2544 4750 2975 4387 
Q 3406 4025 3406 3419 
Q 3406 3131 3298 2873 
Q 3191 2616 2906 2266 
Q 2828 2175 2409 1742 
Q 1991 1309 1228 531 
z
" transform="scale(0.015625)"/>
       </defs>
       <use xlink:href="#DejaVuSans-32"/>
       <use xlink:href="#DejaVuSans-30" x="63.623047"/>
       <use xlink:href="#DejaVuSans-30" x="127.246094"/>
      </g>
     </g>
    </g>
    <g id="text_6">
     <!-- Position (bp) -->
     <g transform="translate(484.285 379.564837) scale(0.1 -0.1)">
      <defs>
       <path id="DejaVuSans-50" d="M 1259 4147 
L 1259 2394 
L 2053 2394 
Q 2494 2394 2734 2622 
Q 2975 2850 2975 3272 
Q 2975 3691 2734 3919 
Q 2494 4147 2053 4147 
L 1259 4147 
z
M 628 4666 
L 2053 4666 
Q 2838 4666 3239 4311 
Q 3641 3956 3641 3272 
Q 3641 2581 3239 2228 
Q 2838 1875 2053 1875 
L 1259 1875 
L 1259 0 
L 628 0 
L 628 4666 
z
" transform="scale(0.015625)"/>
       <path id="DejaVuSans-6f" d="M 1959 3097 
Q 1497 3097 1228 2736 
Q 959 2375 959 1747 
Q 959 1119 1226 758 
Q 1494 397 1959 397 
Q 2419 397 2687 759 
Q 2956 1122 2956 1747 
Q 2956 2369 2687 2733 
Q 2419 3097 1959 3097 
z
M 1959 3584 
Q 2709 3584 3137 3096 
Q 3566 2609 3566 1747 
Q 3566 888 3137 398 
Q 2709 -91 1959 -91 
Q 1206 -91 779 398 
Q 353 888 353 1747 
Q 353 2609 779 3096 
Q 1206 3584 1959 3584 
z
" transform="scale(0.015625)"/>
       <path id="DejaVuSans-73" d="M 2834 3397 
L 2834 2853 
Q 2591 2978 2328 3040 
Q 2066 3103 1784 3103 
Q 1356 3103 1142 2972 
Q 928 2841 928 2578 
Q 928 2378 1081 2264 
Q 1234 2150 1697 2047 
L 1894 2003 
Q 2506 1872 2764 1633 
Q 3022 1394 3022 966 
Q 3022 478 2636 193 
Q 2250 -91 1575 -91 
Q 1294 -91 989 -36 
Q 684 19 347 128 
L 347 722 
Q 666 556 975 473 
Q 1284 391 1588 391 
Q 1994 391 2212 530 
Q 2431 669 2431 922 
Q 2431 1156 2273 1281 
Q 2116 1406 1581 1522 
L 1381 1569 
Q 847 1681 609 1914 
Q 372 2147 372 2553 
Q 372 3047 722 3315 
Q 1072 3584 1716 3584 
Q 2034 3584 2315 3537 
Q 2597 3491 2834 3397 
z
" transform="scale(0.015625)"/>
       <path id="DejaVuSans-69" d="M 603 3500 
L 1178 3500 
L 1178 0 
L 603 0 
L 603 3500 
z
M 603 4863 
L 1178 4863 
L 1178 4134 
L 603 4134 
L 603 4863 
z
" transform="scale(0.015625)"/>
       <path id="DejaVuSans-74" d="M 1172 4494 
L 1172 3500 
L 2356 3500 
L 2356 3053 
L 1172 3053 
L 1172 1153 
Q 1172 725 1289 603 
Q 1406 481 1766 481 
L 2356 481 
L 2356 0 
L 1766 0 
Q 1100 0 847 248 
Q 594 497 594 1153 
L 594 3053 
L 172 3053 
L 172 3500 
L 594 3500 
L 594 4494 
L 1172 4494 
z
" transform="scale(0.015625)"/>
       <path id="DejaVuSans-6e" d="M 3513 2113 
L 3513 0 
L 2938 0 
L 2938 2094 
Q 2938 2591 2744 2837 
Q 2550 3084 2163 3084 
Q 1697 3084 1428 2787 
Q 1159 2491 1159 1978 
L 1159 0 
L 581 0 
L 581 3500 
L 1159 3500 
L 1159 2956 
Q 1366 3272 1645 3428 
Q 1925 3584 2291 3584 
Q 2894 3584 3203 3211 
Q 3513 2838 3513 2113 
z
" transform="scale(0.015625)"/>
       <path id="DejaVuSans-20" transform="scale(0.015625)"/>
       <path id="DejaVuSans-28" d="M 1984 4856 
Q 1566 4138 1362 3434 
Q 1159 2731 1159 2009 
Q 1159 1288 1364 580 
Q 1569 -128 1984 -844 
L 1484 -844 
Q 1016 -109 783 600 
Q 550 1309 550 2009 
Q 550 2706 781 3412 
Q 1013 4119 1484 4856 
L 1984 4856 
z
" transform="scale(0.015625)"/>
       <path id="DejaVuSans-62" d="M 3116 1747 
Q 3116 2381 2855 2742 
Q 2594 3103 2138 3103 
Q 1681 3103 1420 2742 
Q 1159 2381 1159 1747 
Q 1159 1113 1420 752 
Q 1681 391 2138 391 
Q 2594 391 2855 752 
Q 3116 1113 3116 1747 
z
M 1159 2969 
Q 1341 3281 1617 3432 
Q 1894 3584 2278 3584 
Q 2916 3584 3314 3078 
Q 3713 2572 3713 1747 
Q 3713 922 3314 415 
Q 2916 -91 2278 -91 
Q 1894 -91 1617 61 
Q 1341 213 1159 525 
L 1159 0 
L 581 0 
L 581 4863 
L 1159 4863 
L 1159 2969 
z
" transform="scale(0.015625)"/>
       <path id="DejaVuSans-70" d="M 1159 525 
L 1159 -1331 
L 581 -1331 
L 581 3500 
L 1159 3500 
L 1159 2969 
Q 1341 3281 1617 3432 
Q 1894 3584 2278 3584 
Q 2916 3584 3314 3078 
Q 3713 2572 3713 1747 
Q 3713 922 3314 415 
Q 2916 -91 2278 -91 
Q 1894 -91 1617 61 
Q 1341 213 1159 525 
z
M 3116 1747 
Q 3116 2381 2855 2742 
Q 2594 3103 2138 3103 
Q 1681 3103 1420 2742 
Q 1159 2381 1159 1747 
Q 1159 1113 1420 752 
Q 1681 391 2138 391 
Q 2594 391 2855 752 
Q 3116 1113 3116 1747 
z
" transform="scale(0.015625)"/>
       <path id="DejaVuSans-29" d="M 513 4856 
L 1013 4856 
Q 1481 4119 1714 3412 
Q 1947 2706 1947 2009 
Q 1947 1309 1714 600 
Q 1481 -109 1013 -844 
L 513 -844 
Q 928 -128 1133 580 
Q 1338 1288 1338 2009 
Q 1338 2731 1133 3434 
Q 928 4138 513 4856 
z
" transform="scale(0.015625)"/>
      </defs>
      <use xlink:href="#DejaVuSans-50"/>
      <use xlink:href="#DejaVuSans-6f" x="56.677734"/>
      <use xlink:href="#DejaVuSans-73" x="117.859375"/>
      <use xlink:href="#DejaVuSans-69" x="169.958984"/>
      <use xlink:href="#DejaVuSans-74" x="197.742188"/>
      <use xlink:href="#DejaVuSans-69" x="236.951172"/>
      <use xlink:href="#DejaVuSans-6f" x="264.734375"/>
      <use xlink:href="#DejaVuSans-6e" x="325.916016"/>
      <use xlink:href="#DejaVuSans-20" x="389.294922"/>
      <use xlink:href="#DejaVuSans-28" x="421.082031"/>
      <use xlink:href="#DejaVuSans-62" x="460.095703"/>
      <use xlink:href="#DejaVuSans-70" x="523.572266"/>
      <use xlink:href="#DejaVuSans-29" x="587.048828"/>
     </g>
    </g>
   </g>
   <g id="matplotlib.axis_2">
    <g id="ytick_1">
     <g id="line2d_1">
      <path d="M 38.058125 353.2239 
L 993.118125 353.2239 
" clip-path="url(#pa53d8b364e)" style="fill: none; stroke: #dedede; stroke-linecap: square"/>
     </g>
     <g id="text_7">
      <!-- 0 -->
      <g transform="translate(25.968125 356.263275) scale(0.08 -0.08)">
       <use xlink:href="#DejaVuSans-30"/>
      </g>
     </g>
    </g>
    <g id="ytick_2">
     <g id="line2d_2">
      <path d="M 38.058125 310.022962 
L 993.118125 310.022962 
" clip-path="url(#pa53d8b364e)" style="fill: none; stroke: #dedede; stroke-linecap: square"/>
     </g>
     <g id="text_8">
      <!-- 5 -->
      <g transform="translate(25.968125 313.062337) scale(0.08 -0.08)">
       <use xlink:href="#DejaVuSans-35"/>
      </g>
     </g>
    </g>
    <g id="ytick_3">
     <g id="line2d_3">
      <path d="M 38.058125 266.822025 
L 993.118125 266.822025 
" clip-path="url(#pa53d8b364e)" style="fill: none; stroke: #dedede; stroke-linecap: square"/>
     </g>
     <g id="text_9">
      <!-- 10 -->
      <g transform="translate(20.878125 269.8614) scale(0.08 -0.08)">
       <use xlink:href="#DejaVuSans-31"/>
       <use xlink:href="#DejaVuSans-30" x="63.623047"/>
      </g>
     </g>
    </g>
    <g id="ytick_4">
     <g id="line2d_4">
      <path d="M 38.058125 223.621087 
L 993.118125 223.621087 
" clip-path="url(#pa53d8b364e)" style="fill: none; stroke: #dedede; stroke-linecap: square"/>
     </g>
     <g id="text_10">
      <!-- 15 -->
      <g transform="translate(20.878125 226.660462) scale(0.08 -0.08)">
       <use xlink:href="#DejaVuSans-31"/>
       <use xlink:href="#DejaVuSans-35" x="63.623047"/>
      </g>
     </g>
    </g>
    <g id="ytick_5">
     <g id="line2d_5">
      <path d="M 38.058125 180.42015 
L 993.118125 180.42015 
" clip-path="url(#pa53d8b364e)" style="fill: none; stroke: #dedede; stroke-linecap: square"/>
     </g>
     <g id="text_11">
      <!-- 20 -->
      <g transform="translate(20.878125 183.459525) scale(0.08 -0.08)">
       <use xlink:href="#DejaVuSans-32"/>
       <use xlink:href="#DejaVuSans-30" x="63.623047"/>
      </g>
     </g>
    </g>
    <g id="ytick_6">
     <g id="line2d_6">
      <path d="M 38.058125 137.219212 
L 993.118125 137.219212 
" clip-path="url(#pa53d8b364e)" style="fill: none; stroke: #dedede; stroke-linecap: square"/>
     </g>
     <g id="text_12">
      <!-- 25 -->
      <g transform="translate(20.878125 140.258587) scale(0.08 -0.08)">
       <use xlink:href="#DejaVuSans-32"/>
       <use xlink:href="#DejaVuSans-35" x="63.623047"/>
      </g>
     </g>
    </g>
    <g id="ytick_7">
     <g id="line2d_7">
      <path d="M 38.058125 94.018275 
L 993.118125 94.018275 
" clip-path="url(#pa53d8b364e)" style="fill: none; stroke: #dedede; stroke-linecap: square"/>
     </g>
     <g id="text_13">
      <!-- 30 -->
      <g transform="translate(20.878125 97.05765) scale(0.08 -0.08)">
       <defs>
        <path id="DejaVuSans-33" d="M 2597 2516 
Q 3050 2419 3304 2112 
Q 3559 1806 3559 1356 
Q 3559 666 3084 287 
Q 2609 -91 1734 -91 
Q 1441 -91 1130 -33 
Q 819 25 488 141 
L 488 750 
Q 750 597 1062 519 
Q 1375 441 1716 441 
Q 2309 441 2620 675 
Q 2931 909 2931 1356 
Q 2931 1769 2642 2001 
Q 2353 2234 1838 2234 
L 1294 2234 
L 1294 2753 
L 1863 2753 
Q 2328 2753 2575 2939 
Q 2822 3125 2822 3475 
Q 2822 3834 2567 4026 
Q 2313 4219 1838 4219 
Q 1578 4219 1281 4162 
Q 984 4106 628 3988 
L 628 4550 
Q 988 4650 1302 4700 
Q 1616 4750 1894 4750 
Q 2613 4750 3031 4423 
Q 3450 4097 3450 3541 
Q 3450 3153 3228 2886 
Q 3006 2619 2597 2516 
z
" transform="scale(0.015625)"/>
       </defs>
       <use xlink:href="#DejaVuSans-33"/>
       <use xlink:href="#DejaVuSans-30" x="63.623047"/>
      </g>
     </g>
    </g>
    <g id="ytick_8">
     <g id="line2d_8">
      <path d="M 38.058125 50.817337 
L 993.118125 50.817337 
" clip-path="url(#pa53d8b364e)" style="fill: none; stroke: #dedede; stroke-linecap: square"/>
     </g>
     <g id="text_14">
      <!-- 35 -->
      <g transform="translate(20.878125 53.856712) scale(0.08 -0.08)">
       <use xlink:href="#DejaVuSans-33"/>
       <use xlink:href="#DejaVuSans-35" x="63.623047"/>
      </g>
     </g>
    </g>
    <g id="text_15">
     <!-- Phred Score -->
     <g transform="translate(14.798438 224.20865) rotate(-90) scale(0.1 -0.1)">
      <defs>
       <path id="DejaVuSans-68" d="M 3513 2113 
L 3513 0 
L 2938 0 
L 2938 2094 
Q 2938 2591 2744 2837 
Q 2550 3084 2163 3084 
Q 1697 3084 1428 2787 
Q 1159 2491 1159 1978 
L 1159 0 
L 581 0 
L 581 4863 
L 1159 4863 
L 1159 2956 
Q 1366 3272 1645 3428 
Q 1925 3584 2291 3584 
Q 2894 3584 3203 3211 
Q 3513 2838 3513 2113 
z
" transform="scale(0.015625)"/>
       <path id="DejaVuSans-72" d="M 2631 2963 
Q 2534 3019 2420 3045 
Q 2306 3072 2169 3072 
Q 1681 3072 1420 2755 
Q 1159 2438 1159 1844 
L 1159 0 
L 581 0 
L 581 3500 
L 1159 3500 
L 1159 2956 
Q 1341 3275 1631 3429 
Q 1922 3584 2338 3584 
Q 2397 3584 2469 3576 
Q 2541 3569 2628 3553 
L 2631 2963 
z
" transform="scale(0.015625)"/>
       <path id="DejaVuSans-65" d="M 3597 1894 
L 3597 1613 
L 953 1613 
Q 991 1019 1311 708 
Q 1631 397 2203 397 
Q 2534 397 2845 478 
Q 3156 559 3463 722 
L 3463 178 
Q 3153 47 2828 -22 
Q 2503 -91 2169 -91 
Q 1331 -91 842 396 
Q 353 884 353 1716 
Q 353 2575 817 3079 
Q 1281 3584 2069 3584 
Q 2775 3584 3186 3129 
Q 3597 2675 3597 1894 
z
M 3022 2063 
Q 3016 2534 2758 2815 
Q 2500 3097 2075 3097 
Q 1594 3097 1305 2825 
Q 1016 2553 972 2059 
L 3022 2063 
z
" transform="scale(0.015625)"/>
       <path id="DejaVuSans-64" d="M 2906 2969 
L 2906 4863 
L 3481 4863 
L 3481 0 
L 2906 0 
L 2906 525 
Q 2725 213 2448 61 
Q 2172 -91 1784 -91 
Q 1150 -91 751 415 
Q 353 922 353 1747 
Q 353 2572 751 3078 
Q 1150 3584 1784 3584 
Q 2172 3584 2448 3432 
Q 2725 3281 2906 2969 
z
M 947 1747 
Q 947 1113 1208 752 
Q 1469 391 1925 391 
Q 2381 391 2643 752 
Q 2906 1113 2906 1747 
Q 2906 2381 2643 2742 
Q 2381 3103 1925 3103 
Q 1469 3103 1208 2742 
Q 947 2381 947 1747 
z
" transform="scale(0.015625)"/>
       <path id="DejaVuSans-53" d="M 3425 4513 
L 3425 3897 
Q 3066 4069 2747 4153 
Q 2428 4238 2131 4238 
Q 1616 4238 1336 4038 
Q 1056 3838 1056 3469 
Q 1056 3159 1242 3001 
Q 1428 2844 1947 2747 
L 2328 2669 
Q 3034 2534 3370 2195 
Q 3706 1856 3706 1288 
Q 3706 609 3251 259 
Q 2797 -91 1919 -91 
Q 1588 -91 1214 -16 
Q 841 59 441 206 
L 441 856 
Q 825 641 1194 531 
Q 1563 422 1919 422 
Q 2459 422 2753 634 
Q 3047 847 3047 1241 
Q 3047 1584 2836 1778 
Q 2625 1972 2144 2069 
L 1759 2144 
Q 1053 2284 737 2584 
Q 422 2884 422 3419 
Q 422 4038 858 4394 
Q 1294 4750 2059 4750 
Q 2388 4750 2728 4690 
Q 3069 4631 3425 4513 
z
" transform="scale(0.015625)"/>
       <path id="DejaVuSans-63" d="M 3122 3366 
L 3122 2828 
Q 2878 2963 2633 3030 
Q 2388 3097 2138 3097 
Q 1578 3097 1268 2742 
Q 959 2388 959 1747 
Q 959 1106 1268 751 
Q 1578 397 2138 397 
Q 2388 397 2633 464 
Q 2878 531 3122 666 
L 3122 134 
Q 2881 22 2623 -34 
Q 2366 -91 2075 -91 
Q 1284 -91 818 406 
Q 353 903 353 1747 
Q 353 2603 823 3093 
Q 1294 3584 2113 3584 
Q 2378 3584 2631 3529 
Q 2884 3475 3122 3366 
z
" transform="scale(0.015625)"/>
      </defs>
      <use xlink:href="#DejaVuSans-50"/>
      <use xlink:href="#DejaVuSans-68" x="60.302734"/>
      <use xlink:href="#DejaVuSans-72" x="123.681641"/>
      <use xlink:href="#DejaVuSans-65" x="162.544922"/>
      <use xlink:href="#DejaVuSans-64" x="224.068359"/>
      <use xlink:href="#DejaVuSans-20" x="287.544922"/>
      <use xlink:href="#DejaVuSans-53" x="319.332031"/>
      <use xlink:href="#DejaVuSans-63" x="382.808594"/>
      <use xlink:href="#DejaVuSans-6f" x="437.789062"/>
      <use xlink:href="#DejaVuSans-72" x="498.970703"/>
      <use xlink:href="#DejaVuSans-65" x="537.833984"/>
     </g>
    </g>
   </g>
   <g id="line2d_9">
    <path d="M 81.469943 41.200572 
L 85.328771 40.021619 
L 89.1876 40.39713 
L 93.046428 39.34192 
L 96.905256 38.424342 
L 100.764085 40.428457 
L 104.622913 57.946137 
L 108.481741 39.224286 
L 112.340569 38.149445 
L 123.917054 39.71339 
L 143.211196 40.986732 
L 162.505337 39.647832 
L 181.799479 40.214826 
L 201.09362 40.588206 
L 220.387761 38.837498 
L 239.681903 41.193398 
L 258.976044 41.356864 
L 278.270186 44.901199 
L 297.564327 45.232026 
L 316.858468 43.324921 
L 336.15261 43.110747 
L 355.446751 43.380214 
L 374.740893 41.446721 
L 394.035034 42.742191 
L 413.329176 43.304924 
L 432.623317 43.965357 
L 451.917458 47.865372 
L 471.2116 42.725796 
L 490.505741 45.804857 
L 509.799883 45.900082 
L 529.094024 49.087775 
L 548.388165 45.34636 
L 567.682307 44.97959 
L 586.976448 45.437419 
L 606.27059 46.878278 
L 625.564731 47.332097 
L 644.858872 44.810454 
L 664.153014 48.544799 
L 683.447155 46.015346 
L 702.741297 45.220675 
L 722.035438 46.381646 
L 741.32958 50.457136 
L 760.623721 52.628622 
L 779.917862 49.516866 
L 799.212004 51.097863 
L 818.506145 65.004314 
L 837.800287 60.136827 
L 857.094428 60.311279 
L 876.388569 52.615611 
L 895.682711 54.532385 
L 914.976852 60.201382 
L 934.270994 53.036922 
L 949.706307 57.22489 
" clip-path="url(#pa53d8b364e)" style="fill: none; stroke: #5cb85c; stroke-linecap: square"/>
   </g>
   <g id="line2d_10">
    <path d="M 81.469943 37.510837 
L 85.328771 37.014612 
L 89.1876 39.569096 
L 93.046428 39.566276 
L 96.905256 42.163836 
L 100.764085 38.668382 
L 104.622913 37.968947 
L 108.481741 39.632743 
L 112.340569 37.277552 
L 123.917054 38.156817 
L 143.211196 38.14108 
L 162.505337 39.118285 
L 181.799479 39.284946 
L 201.09362 38.565148 
L 220.387761 39.120175 
L 239.681903 40.456537 
L 258.976044 39.159752 
L 278.270186 39.965188 
L 297.564327 39.948084 
L 316.858468 39.839973 
L 336.15261 41.292674 
L 355.446751 44.369417 
L 374.740893 42.735215 
L 394.035034 43.551679 
L 413.329176 41.216852 
L 432.623317 43.891873 
L 451.917458 40.584144 
L 471.2116 42.211944 
L 490.505741 43.833239 
L 509.799883 47.511519 
L 529.094024 45.519131 
L 548.388165 41.933131 
L 567.682307 46.2012 
L 586.976448 45.008568 
L 606.27059 45.07044 
L 625.564731 44.388422 
L 644.858872 47.7839 
L 664.153014 48.804472 
L 683.447155 47.193463 
L 702.741297 47.079045 
L 722.035438 49.133534 
L 741.32958 45.18067 
L 760.623721 50.896867 
L 779.917862 47.873078 
L 799.212004 50.362297 
L 818.506145 51.650739 
L 837.800287 51.369618 
L 857.094428 47.296457 
L 876.388569 49.515289 
L 895.682711 55.984063 
L 914.976852 52.399922 
L 934.270994 55.536165 
" clip-path="url(#pa53d8b364e)" style="fill: none; stroke: #5cb85c; stroke-linecap: square"/>
   </g>
   <g id="line2d_11">
    <path d="M 81.469943 41.009229 
L 85.328771 39.481707 
L 89.1876 40.17005 
L 93.046428 38.86916 
L 96.905256 37.909681 
L 100.764085 43.158502 
L 104.622913 60.45853 
L 108.481741 39.385012 
L 112.340569 38.316385 
L 123.917054 39.912081 
L 143.211196 42.202607 
L 162.505337 39.003212 
L 181.799479 40.577599 
L 201.09362 41.400449 
L 220.387761 38.633313 
L 239.681903 42.140822 
L 258.976044 41.867812 
L 278.270186 47.5299 
L 297.564327 48.566172 
L 316.858468 44.127965 
L 336.15261 43.519707 
L 355.446751 45.608212 
L 374.740893 41.728205 
L 394.035034 42.505978 
L 413.329176 42.845667 
L 432.623317 44.243155 
L 451.917458 48.813876 
L 471.2116 42.63636 
L 490.505741 46.750546 
L 509.799883 46.62481 
L 529.094024 51.174665 
L 548.388165 46.374345 
L 567.682307 45.420572 
L 586.976448 44.981654 
L 606.27059 47.712916 
L 625.564731 47.164808 
L 644.858872 45.074473 
L 664.153014 48.162272 
L 683.447155 45.100298 
L 702.741297 45.363053 
L 722.035438 45.114363 
L 741.32958 48.759768 
L 760.623721 53.721363 
L 779.917862 48.55359 
L 799.212004 51.16636 
L 818.506145 64.834118 
L 837.800287 62.260827 
L 857.094428 60.367736 
L 876.388569 52.498002 
L 895.682711 53.417818 
L 914.976852 62.292759 
L 934.270994 53.270296 
L 949.706307 58.995616 
" clip-path="url(#pa53d8b364e)" style="fill: none; stroke: #5cb85c; stroke-linecap: square"/>
   </g>
   <g id="line2d_12">
    <path d="M 81.469943 37.406173 
L 85.328771 37.311806 
L 89.1876 39.470608 
L 93.046428 39.508561 
L 96.905256 42.646278 
L 100.764085 39.281008 
L 104.622913 38.155425 
L 108.481741 39.537255 
L 112.340569 37.58343 
L 123.917054 38.366833 
L 143.211196 38.314587 
L 162.505337 39.229347 
L 181.799479 39.57524 
L 201.09362 38.550402 
L 220.387761 39.150637 
L 239.681903 40.511179 
L 258.976044 39.376891 
L 278.270186 39.930836 
L 297.564327 40.185101 
L 316.858468 39.720229 
L 336.15261 41.303115 
L 355.446751 45.272367 
L 374.740893 43.180505 
L 394.035034 43.687488 
L 413.329176 41.241135 
L 432.623317 44.216052 
L 451.917458 40.778287 
L 471.2116 42.459331 
L 490.505741 43.74544 
L 509.799883 48.603486 
L 529.094024 46.417549 
L 548.388165 41.807651 
L 567.682307 46.809635 
L 586.976448 45.846636 
L 606.27059 44.546017 
L 625.564731 44.386562 
L 644.858872 48.211616 
L 664.153014 49.448772 
L 683.447155 46.97733 
L 702.741297 47.205316 
L 722.035438 49.604004 
L 741.32958 45.067954 
L 760.623721 51.089968 
L 779.917862 48.226591 
L 799.212004 50.538221 
L 818.506145 51.865532 
L 837.800287 51.811066 
L 857.094428 46.965668 
L 876.388569 49.418886 
L 895.682711 56.561632 
L 914.976852 52.364621 
L 934.270994 55.461359 
" clip-path="url(#pa53d8b364e)" style="fill: none; stroke: #5cb85c; stroke-linecap: square"/>
   </g>
   <g id="line2d_13">
    <path d="M 81.469943 41.639716 
L 85.328771 40.364069 
L 89.1876 40.863534 
L 93.046428 39.556676 
L 96.905256 38.553821 
L 100.764085 40.859757 
L 104.622913 57.412852 
L 108.481741 39.805564 
L 112.340569 38.180739 
L 123.917054 40.100491 
L 143.211196 41.558152 
L 162.505337 39.933476 
L 181.799479 40.658192 
L 201.09362 40.978555 
L 220.387761 39.172859 
L 239.681903 42.140622 
L 258.976044 41.847941 
L 278.270186 45.307594 
L 297.564327 46.278404 
L 316.858468 43.820651 
L 336.15261 43.64323 
L 355.446751 44.219438 
L 374.740893 42.166942 
L 394.035034 43.576058 
L 413.329176 44.065513 
L 432.623317 44.461367 
L 451.917458 47.381897 
L 471.2116 43.439945 
L 490.505741 46.984661 
L 509.799883 46.211053 
L 529.094024 47.575053 
L 548.388165 48.132326 
L 567.682307 46.024696 
L 586.976448 46.326382 
L 606.27059 48.160883 
L 625.564731 48.330979 
L 644.858872 45.976161 
L 664.153014 49.106774 
L 683.447155 46.857633 
L 702.741297 46.507134 
L 722.035438 46.545083 
L 741.32958 51.188303 
L 760.623721 54.033441 
L 779.917862 50.688898 
L 799.212004 52.115209 
L 818.506145 66.867181 
L 837.800287 62.534415 
L 857.094428 62.366028 
L 876.388569 54.598835 
L 895.682711 56.101164 
L 914.976852 62.103643 
L 934.270994 54.079262 
L 949.706307 59.436071 
" clip-path="url(#pa53d8b364e)" style="fill: none; stroke: #5cb85c; stroke-linecap: square"/>
   </g>
   <g id="line2d_14">
    <path d="M 81.469943 37.388653 
L 85.328771 37.348 
L 89.1876 39.509762 
L 93.046428 39.573773 
L 96.905256 42.922719 
L 100.764085 39.332837 
L 104.622913 38.068968 
L 108.481741 39.769235 
L 112.340569 37.634956 
L 123.917054 38.443094 
L 143.211196 38.374253 
L 162.505337 39.306278 
L 181.799479 39.689151 
L 201.09362 38.680581 
L 220.387761 39.363262 
L 239.681903 40.653063 
L 258.976044 39.426796 
L 278.270186 40.164989 
L 297.564327 40.43137 
L 316.858468 40.094975 
L 336.15261 41.499658 
L 355.446751 44.887448 
L 374.740893 42.990795 
L 394.035034 44.284691 
L 413.329176 41.720108 
L 432.623317 44.611783 
L 451.917458 41.036751 
L 471.2116 42.556783 
L 490.505741 44.088454 
L 509.799883 48.843424 
L 529.094024 46.676494 
L 548.388165 42.362175 
L 567.682307 47.139003 
L 586.976448 45.702057 
L 606.27059 46.604532 
L 625.564731 44.929065 
L 644.858872 48.600998 
L 664.153014 49.66021 
L 683.447155 48.09059 
L 702.741297 47.941228 
L 722.035438 49.932515 
L 741.32958 46.006476 
L 760.623721 52.364892 
L 779.917862 49.125112 
L 799.212004 51.10822 
L 818.506145 52.950602 
L 837.800287 52.609535 
L 857.094428 48.119564 
L 876.388569 50.335754 
L 895.682711 57.806629 
L 914.976852 54.044869 
L 934.270994 57.27701 
" clip-path="url(#pa53d8b364e)" style="fill: none; stroke: #5cb85c; stroke-linecap: square"/>
   </g>
   <g id="line2d_15">
    <path d="M 81.469943 40.494883 
L 85.328771 39.932922 
L 89.1876 40.199388 
L 93.046428 39.401244 
L 96.905256 38.287303 
L 100.764085 40.415609 
L 104.622913 57.190923 
L 108.481741 39.026523 
L 112.340569 37.395177 
L 123.917054 39.38048 
L 143.211196 40.992113 
L 162.505337 39.478512 
L 181.799479 40.080332 
L 201.09362 40.777986 
L 220.387761 38.634953 
L 239.681903 40.860105 
L 258.976044 41.341017 
L 278.270186 45.277609 
L 297.564327 46.693294 
L 316.858468 43.095711 
L 336.15261 42.814692 
L 355.446751 43.832134 
L 374.740893 41.104573 
L 394.035034 42.699512 
L 413.329176 42.966104 
L 432.623317 42.932485 
L 451.917458 47.661088 
L 471.2116 42.326296 
L 490.505741 44.959335 
L 509.799883 44.69987 
L 529.094024 48.456831 
L 548.388165 45.584156 
L 567.682307 44.593081 
L 586.976448 45.048523 
L 606.27059 46.205785 
L 625.564731 47.616001 
L 644.858872 44.718348 
L 664.153014 47.69652 
L 683.447155 45.542021 
L 702.741297 44.842786 
L 722.035438 46.067354 
L 741.32958 48.322132 
L 760.623721 52.880459 
L 779.917862 48.732777 
L 799.212004 50.021507 
L 818.506145 62.918731 
L 837.800287 59.743974 
L 857.094428 60.058901 
L 876.388569 51.543663 
L 895.682711 52.400887 
L 914.976852 60.58488 
L 934.270994 52.297425 
L 949.706307 58.251737 
" clip-path="url(#pa53d8b364e)" style="fill: none; stroke: #5cb85c; stroke-linecap: square"/>
   </g>
   <g id="line2d_16">
    <path d="M 81.469943 37.216279 
L 85.328771 37.239087 
L 89.1876 39.403076 
L 93.046428 39.307696 
L 96.905256 42.442845 
L 100.764085 39.082603 
L 104.622913 37.815032 
L 108.481741 39.39917 
L 112.340569 37.273275 
L 123.917054 38.112986 
L 143.211196 38.158989 
L 162.505337 39.055561 
L 181.799479 39.229434 
L 201.09362 38.363974 
L 220.387761 38.909318 
L 239.681903 40.315812 
L 258.976044 39.162099 
L 278.270186 39.705177 
L 297.564327 40.082001 
L 316.858468 39.608399 
L 336.15261 41.232868 
L 355.446751 45.300861 
L 374.740893 42.752786 
L 394.035034 43.291804 
L 413.329176 40.959998 
L 432.623317 44.171191 
L 451.917458 40.56054 
L 471.2116 42.545139 
L 490.505741 43.419048 
L 509.799883 47.219205 
L 529.094024 45.577704 
L 548.388165 41.251173 
L 567.682307 46.636442 
L 586.976448 45.458233 
L 606.27059 44.388086 
L 625.564731 44.545767 
L 644.858872 48.385137 
L 664.153014 50.435885 
L 683.447155 46.773648 
L 702.741297 46.873194 
L 722.035438 50.651266 
L 741.32958 44.679704 
L 760.623721 50.681742 
L 779.917862 48.087433 
L 799.212004 50.335046 
L 818.506145 51.689173 
L 837.800287 51.14595 
L 857.094428 46.498531 
L 876.388569 48.761073 
L 895.682711 55.874351 
L 914.976852 51.727421 
L 934.270994 54.806628 
" clip-path="url(#pa53d8b364e)" style="fill: none; stroke: #5cb85c; stroke-linecap: square"/>
   </g>
   <g id="line2d_17">
    <path d="M 81.469943 40.944983 
L 85.328771 39.994059 
L 89.1876 40.288455 
L 93.046428 39.049349 
L 96.905256 38.114996 
L 100.764085 41.406333 
L 104.622913 58.343583 
L 108.481741 39.269693 
L 112.340569 38.16792 
L 123.917054 39.769375 
L 143.211196 41.575908 
L 162.505337 39.432556 
L 181.799479 40.514558 
L 201.09362 41.032665 
L 220.387761 38.742835 
L 239.681903 41.688706 
L 258.976044 41.551911 
L 278.270186 45.760947 
L 297.564327 47.03361 
L 316.858468 43.72044 
L 336.15261 43.133128 
L 355.446751 44.523601 
L 374.740893 41.695148 
L 394.035034 43.31134 
L 413.329176 43.448342 
L 432.623317 43.802053 
L 451.917458 48.704239 
L 471.2116 42.792467 
L 490.505741 45.999934 
L 509.799883 45.792329 
L 529.094024 50.211155 
L 548.388165 46.139794 
L 567.682307 45.218584 
L 586.976448 45.32697 
L 606.27059 47.24744 
L 625.564731 47.516534 
L 644.858872 45.205203 
L 664.153014 48.294818 
L 683.447155 45.698785 
L 702.741297 45.405082 
L 722.035438 46.046499 
L 741.32958 49.412665 
L 760.623721 53.775595 
L 779.917862 49.605491 
L 799.212004 51.412842 
L 818.506145 64.841982 
L 837.800287 61.179172 
L 857.094428 61.185107 
L 876.388569 53.083885 
L 895.682711 53.642705 
L 914.976852 61.407336 
L 934.270994 53.331101 
L 949.706307 58.899834 
" clip-path="url(#pa53d8b364e)" style="fill: none; stroke: #5cb85c; stroke-linecap: square"/>
   </g>
   <g id="line2d_18">
    <path d="M 81.469943 37.182818 
L 85.328771 37.143721 
L 89.1876 39.199266 
L 93.046428 39.344574 
L 96.905256 42.599973 
L 100.764085 39.097146 
L 104.622913 37.959745 
L 108.481741 39.602514 
L 112.340569 37.236778 
L 123.917054 38.240398 
L 143.211196 38.141427 
L 162.505337 39.040121 
L 181.799479 39.209582 
L 201.09362 38.361647 
L 220.387761 38.900054 
L 239.681903 40.228395 
L 258.976044 39.070312 
L 278.270186 39.852044 
L 297.564327 40.237054 
L 316.858468 39.776035 
L 336.15261 41.532409 
L 355.446751 45.142305 
L 374.740893 42.939008 
L 394.035034 43.8272 
L 413.329176 41.169615 
L 432.623317 44.236196 
L 451.917458 40.622892 
L 471.2116 42.359743 
L 490.505741 44.016287 
L 509.799883 49.125839 
L 529.094024 46.162517 
L 548.388165 42.047056 
L 567.682307 46.456821 
L 586.976448 45.458545 
L 606.27059 44.890352 
L 625.564731 44.598203 
L 644.858872 48.232956 
L 664.153014 49.634646 
L 683.447155 47.319804 
L 702.741297 47.219859 
L 722.035438 49.704824 
L 741.32958 45.366575 
L 760.623721 51.182969 
L 779.917862 48.179856 
L 799.212004 50.523221 
L 818.506145 52.017812 
L 837.800287 51.854224 
L 857.094428 47.069735 
L 876.388569 49.488882 
L 895.682711 56.556749 
L 914.976852 52.410848 
L 934.270994 55.779076 
" clip-path="url(#pa53d8b364e)" style="fill: none; stroke: #5cb85c; stroke-linecap: square"/>
   </g>
   <g id="line2d_19">
    <path d="M 81.469943 42.052437 
L 85.328771 40.669136 
L 89.1876 40.673452 
L 93.046428 39.115716 
L 96.905256 38.489035 
L 100.764085 39.026101 
L 104.622913 51.579184 
L 108.481741 39.222161 
L 112.340569 39.351524 
L 123.917054 39.77037 
L 143.211196 39.511268 
L 162.505337 39.566159 
L 181.799479 40.30851 
L 201.09362 39.774723 
L 220.387761 39.125862 
L 239.681903 42.720967 
L 258.976044 40.250982 
L 278.270186 41.599626 
L 297.564327 43.211849 
L 316.858468 42.72323 
L 336.15261 43.033684 
L 355.446751 41.901209 
L 374.740893 43.356288 
L 394.035034 43.332765 
L 413.329176 44.884171 
L 432.623317 44.590796 
L 451.917458 47.903315 
L 471.2116 44.753848 
L 490.505741 47.298134 
L 509.799883 48.940767 
L 529.094024 51.583221 
L 548.388165 45.798348 
L 567.682307 46.892225 
L 586.976448 46.482375 
L 606.27059 47.142466 
L 625.564731 47.035686 
L 644.858872 45.828968 
L 664.153014 49.928774 
L 683.447155 47.987214 
L 702.741297 47.859769 
L 722.035438 47.224937 
L 741.32958 54.04891 
L 760.623721 51.611961 
L 779.917862 52.421132 
L 799.212004 54.401894 
L 818.506145 67.965942 
L 837.800287 61.011914 
L 857.094428 60.95149 
L 876.388569 57.075467 
L 895.682711 58.433096 
L 914.976852 58.363658 
L 934.270994 58.392359 
L 949.706307 59.613924 
" clip-path="url(#pa53d8b364e)" style="fill: none; stroke: #5cb85c; stroke-linecap: square"/>
   </g>
   <g id="line2d_20">
    <path d="M 81.469943 36.942232 
L 85.328771 36.917443 
L 89.1876 39.02917 
L 93.046428 39.441523 
L 96.905256 42.189664 
L 100.764085 38.956672 
L 104.622913 38.343753 
L 108.481741 39.641754 
L 112.340569 38.651196 
L 123.917054 38.704629 
L 143.211196 38.431354 
L 162.505337 38.994868 
L 181.799479 39.590334 
L 201.09362 38.965466 
L 220.387761 40.150224 
L 239.681903 40.864764 
L 258.976044 39.699953 
L 278.270186 40.79758 
L 297.564327 40.433501 
L 316.858468 40.125943 
L 336.15261 41.702666 
L 355.446751 43.8813 
L 374.740893 43.281949 
L 394.035034 44.232193 
L 413.329176 41.906196 
L 432.623317 43.971317 
L 451.917458 41.111975 
L 471.2116 42.470985 
L 490.505741 44.407827 
L 509.799883 46.09438 
L 529.094024 47.876282 
L 548.388165 43.55159 
L 567.682307 46.951345 
L 586.976448 44.742581 
L 606.27059 46.855363 
L 625.564731 44.918147 
L 644.858872 47.743399 
L 664.153014 48.537648 
L 683.447155 49.017551 
L 702.741297 47.651511 
L 722.035438 49.86928 
L 741.32958 48.007612 
L 760.623721 52.705157 
L 779.917862 49.560083 
L 799.212004 51.829329 
L 818.506145 53.403731 
L 837.800287 54.980617 
L 857.094428 49.98308 
L 876.388569 52.871393 
L 895.682711 57.088835 
L 914.976852 55.61099 
L 934.270994 59.552102 
" clip-path="url(#pa53d8b364e)" style="fill: none; stroke: #5cb85c; stroke-linecap: square"/>
   </g>
   <g id="line2d_21">
    <path d="M 81.469943 43.152143 
L 85.328771 40.17073 
L 89.1876 40.31502 
L 93.046428 39.064797 
L 96.905256 38.137853 
L 100.764085 39.951404 
L 104.622913 54.791863 
L 108.481741 39.141376 
L 112.340569 39.380799 
L 123.917054 39.8411 
L 143.211196 39.614197 
L 162.505337 39.412992 
L 181.799479 40.053082 
L 201.09362 39.366775 
L 220.387761 39.028807 
L 239.681903 43.108731 
L 258.976044 40.261642 
L 278.270186 41.525783 
L 297.564327 42.749268 
L 316.858468 42.885163 
L 336.15261 43.503104 
L 355.446751 41.701398 
L 374.740893 42.781616 
L 394.035034 42.236206 
L 413.329176 44.017265 
L 432.623317 44.93539 
L 451.917458 47.016837 
L 471.2116 44.053005 
L 490.505741 47.46695 
L 509.799883 50.006085 
L 529.094024 51.190853 
L 548.388165 44.659042 
L 567.682307 46.753433 
L 586.976448 46.050316 
L 606.27059 46.82393 
L 625.564731 46.704797 
L 644.858872 45.236105 
L 664.153014 50.972413 
L 683.447155 47.558738 
L 702.741297 47.51627 
L 722.035438 48.203223 
L 741.32958 54.462522 
L 760.623721 49.704648 
L 779.917862 51.958413 
L 799.212004 55.15894 
L 818.506145 68.987211 
L 837.800287 59.432648 
L 857.094428 59.958607 
L 876.388569 55.556715 
L 895.682711 58.73437 
L 914.976852 57.28209 
L 934.270994 59.125076 
L 949.706307 60.560999 
" clip-path="url(#pa53d8b364e)" style="fill: none; stroke: #5cb85c; stroke-linecap: square"/>
   </g>
   <g id="line2d_22">
    <path d="M 81.469943 37.342283 
L 85.328771 36.983341 
L 89.1876 39.367112 
L 93.046428 39.743788 
L 96.905256 42.154258 
L 100.764085 38.770001 
L 104.622913 38.109949 
L 108.481741 40.069429 
L 112.340569 38.576602 
L 123.917054 38.635908 
L 143.211196 38.245217 
L 162.505337 39.127602 
L 181.799479 39.786131 
L 201.09362 39.017742 
L 220.387761 40.158865 
L 239.681903 41.24262 
L 258.976044 39.901582 
L 278.270186 40.721962 
L 297.564327 40.261931 
L 316.858468 40.034884 
L 336.15261 41.41091 
L 355.446751 43.023506 
L 374.740893 43.208721 
L 394.035034 43.782025 
L 413.329176 42.121391 
L 432.623317 43.587885 
L 451.917458 41.046648 
L 471.2116 42.759717 
L 490.505741 44.889115 
L 509.799883 45.746209 
L 529.094024 48.206915 
L 548.388165 42.840353 
L 567.682307 45.788059 
L 586.976448 44.334028 
L 606.27059 46.496641 
L 625.564731 44.788334 
L 644.858872 47.190322 
L 664.153014 48.207638 
L 683.447155 48.785578 
L 702.741297 47.424135 
L 722.035438 49.709052 
L 741.32958 47.500357 
L 760.623721 53.063546 
L 779.917862 49.52537 
L 799.212004 51.502199 
L 818.506145 53.330979 
L 837.800287 54.482454 
L 857.094428 50.373441 
L 876.388569 53.183364 
L 895.682711 56.766524 
L 914.976852 55.561216 
L 934.270994 58.96658 
" clip-path="url(#pa53d8b364e)" style="fill: none; stroke: #5cb85c; stroke-linecap: square"/>
   </g>
   <g id="line2d_23">
    <path d="M 81.469943 41.183555 
L 85.328771 39.554783 
L 89.1876 40.399629 
L 93.046428 38.959037 
L 96.905256 38.143624 
L 100.764085 39.468262 
L 104.622913 49.768522 
L 108.481741 38.89438 
L 112.340569 39.373518 
L 123.917054 39.365959 
L 143.211196 39.667065 
L 162.505337 39.104386 
L 181.799479 41.056716 
L 201.09362 39.982532 
L 220.387761 38.993132 
L 239.681903 41.138434 
L 258.976044 39.685117 
L 278.270186 41.373827 
L 297.564327 44.5851 
L 316.858468 42.696335 
L 336.15261 42.522077 
L 355.446751 41.872867 
L 374.740893 42.728159 
L 394.035034 42.404171 
L 413.329176 44.034269 
L 432.623317 43.702058 
L 451.917458 48.694562 
L 471.2116 45.705853 
L 490.505741 46.648301 
L 509.799883 47.293447 
L 529.094024 50.878613 
L 548.388165 46.201725 
L 567.682307 46.172919 
L 586.976448 46.133966 
L 606.27059 46.205939 
L 625.564731 46.357137 
L 644.858872 45.994746 
L 664.153014 48.180983 
L 683.447155 49.991244 
L 702.741297 48.134723 
L 722.035438 46.486555 
L 741.32958 53.465735 
L 760.623721 53.259672 
L 779.917862 53.314977 
L 799.212004 52.944626 
L 818.506145 62.195304 
L 837.800287 60.239862 
L 857.094428 58.493782 
L 876.388569 56.731977 
L 895.682711 58.039881 
L 914.976852 59.492928 
L 934.270994 57.326565 
L 949.706307 58.18705 
" clip-path="url(#pa53d8b364e)" style="fill: none; stroke: #5cb85c; stroke-linecap: square"/>
   </g>
   <g id="line2d_24">
    <path d="M 81.469943 36.954841 
L 85.328771 36.938116 
L 89.1876 39.528995 
L 93.046428 39.782486 
L 96.905256 41.859749 
L 100.764085 39.04995 
L 104.622913 38.955673 
L 108.481741 39.746887 
L 112.340569 37.741757 
L 123.917054 38.502875 
L 143.211196 38.831282 
L 162.505337 39.285763 
L 181.799479 39.307805 
L 201.09362 39.178368 
L 220.387761 40.656054 
L 239.681903 40.925392 
L 258.976044 39.46573 
L 278.270186 41.037804 
L 297.564327 40.292178 
L 316.858468 39.900654 
L 336.15261 41.466898 
L 355.446751 43.717933 
L 374.740893 43.10605 
L 394.035034 44.105317 
L 413.329176 41.607444 
L 432.623317 44.176048 
L 451.917458 41.325493 
L 471.2116 42.110054 
L 490.505741 43.688977 
L 509.799883 45.821778 
L 529.094024 47.66362 
L 548.388165 43.74403 
L 567.682307 47.86603 
L 586.976448 44.86694 
L 606.27059 46.463476 
L 625.564731 44.155399 
L 644.858872 47.53851 
L 664.153014 48.292284 
L 683.447155 47.646017 
L 702.741297 46.886899 
L 722.035438 49.196639 
L 741.32958 46.230242 
L 760.623721 52.063107 
L 779.917862 48.914061 
L 799.212004 51.260914 
L 818.506145 52.121635 
L 837.800287 54.094044 
L 857.094428 49.314396 
L 876.388569 51.883579 
L 895.682711 56.130317 
L 914.976852 53.832742 
L 934.270994 58.063339 
" clip-path="url(#pa53d8b364e)" style="fill: none; stroke: #5cb85c; stroke-linecap: square"/>
   </g>
   <g id="line2d_25">
    <path d="M 81.469943 42.062618 
L 85.328771 39.681995 
L 89.1876 40.441441 
L 93.046428 38.709493 
L 96.905256 38.228963 
L 100.764085 39.446323 
L 104.622913 51.960778 
L 108.481741 39.115459 
L 112.340569 38.856472 
L 123.917054 39.557213 
L 143.211196 39.5706 
L 162.505337 39.279908 
L 181.799479 40.460781 
L 201.09362 39.531771 
L 220.387761 38.898095 
L 239.681903 42.655413 
L 258.976044 40.081933 
L 278.270186 41.729229 
L 297.564327 43.768566 
L 316.858468 42.320154 
L 336.15261 42.629659 
L 355.446751 41.787139 
L 374.740893 43.077247 
L 394.035034 42.133454 
L 413.329176 43.920852 
L 432.623317 44.230841 
L 451.917458 47.571256 
L 471.2116 44.598869 
L 490.505741 47.964253 
L 509.799883 49.912427 
L 529.094024 52.259861 
L 548.388165 45.258643 
L 567.682307 46.723321 
L 586.976448 45.895531 
L 606.27059 46.297758 
L 625.564731 46.456878 
L 644.858872 45.728804 
L 664.153014 48.299845 
L 683.447155 47.899843 
L 702.741297 47.908244 
L 722.035438 45.96237 
L 741.32958 52.961548 
L 760.623721 51.277883 
L 779.917862 51.590536 
L 799.212004 53.926915 
L 818.506145 65.802816 
L 837.800287 60.618736 
L 857.094428 59.248305 
L 876.388569 56.35882 
L 895.682711 58.065133 
L 914.976852 58.082624 
L 934.270994 58.39348 
L 949.706307 59.963093 
" clip-path="url(#pa53d8b364e)" style="fill: none; stroke: #5cb85c; stroke-linecap: square"/>
   </g>
   <g id="line2d_26">
    <path d="M 81.469943 36.991512 
L 85.328771 36.862153 
L 89.1876 39.037456 
L 93.046428 39.463997 
L 96.905256 41.820822 
L 100.764085 38.897031 
L 104.622913 38.208979 
L 108.481741 39.665449 
L 112.340569 39.018815 
L 123.917054 38.574225 
L 143.211196 38.548031 
L 162.505337 39.176098 
L 181.799479 39.774727 
L 201.09362 39.017848 
L 220.387761 40.741556 
L 239.681903 41.424601 
L 258.976044 39.920224 
L 278.270186 40.712525 
L 297.564327 40.157432 
L 316.858468 39.698272 
L 336.15261 41.073409 
L 355.446751 42.820689 
L 374.740893 42.913056 
L 394.035034 44.076846 
L 413.329176 41.848832 
L 432.623317 43.658933 
L 451.917458 41.058013 
L 471.2116 42.366708 
L 490.505741 43.302927 
L 509.799883 45.739011 
L 529.094024 49.140034 
L 548.388165 43.132128 
L 567.682307 47.503708 
L 586.976448 44.380614 
L 606.27059 45.850245 
L 625.564731 44.085302 
L 644.858872 47.22839 
L 664.153014 47.854255 
L 683.447155 48.493572 
L 702.741297 46.927803 
L 722.035438 49.663486 
L 741.32958 47.271077 
L 760.623721 52.767993 
L 779.917862 49.405176 
L 799.212004 51.223217 
L 818.506145 53.619054 
L 837.800287 54.74958 
L 857.094428 49.881774 
L 876.388569 52.602125 
L 895.682711 57.036063 
L 914.976852 55.37335 
L 934.270994 58.806093 
" clip-path="url(#pa53d8b364e)" style="fill: none; stroke: #5cb85c; stroke-linecap: square"/>
   </g>
   <g id="line2d_27">
    <path d="M 81.469943 41.351662 
L 85.328771 39.358537 
L 89.1876 40.263553 
L 93.046428 38.763274 
L 96.905256 38.025571 
L 100.764085 39.482375 
L 104.622913 48.819614 
L 108.481741 38.77686 
L 112.340569 39.512577 
L 123.917054 39.124675 
L 143.211196 39.432683 
L 162.505337 38.982349 
L 181.799479 41.148974 
L 201.09362 39.919877 
L 220.387761 38.868887 
L 239.681903 40.83481 
L 258.976044 39.514605 
L 278.270186 40.941928 
L 297.564327 44.110311 
L 316.858468 42.390654 
L 336.15261 42.432958 
L 355.446751 41.566024 
L 374.740893 42.422434 
L 394.035034 42.168455 
L 413.329176 43.403499 
L 432.623317 43.725689 
L 451.917458 48.588385 
L 471.2116 45.567031 
L 490.505741 45.754326 
L 509.799883 46.784194 
L 529.094024 50.627399 
L 548.388165 45.5909 
L 567.682307 45.805283 
L 586.976448 45.812431 
L 606.27059 45.507777 
L 625.564731 45.526535 
L 644.858872 45.834105 
L 664.153014 47.579104 
L 683.447155 49.977115 
L 702.741297 47.372246 
L 722.035438 46.109132 
L 741.32958 53.520671 
L 760.623721 52.545751 
L 779.917862 52.75378 
L 799.212004 52.249186 
L 818.506145 60.031698 
L 837.800287 59.328576 
L 857.094428 56.920972 
L 876.388569 55.761495 
L 895.682711 57.430466 
L 914.976852 58.946405 
L 934.270994 56.965766 
L 949.706307 56.718402 
" clip-path="url(#pa53d8b364e)" style="fill: none; stroke: #5cb85c; stroke-linecap: square"/>
   </g>
   <g id="line2d_28">
    <path d="M 81.469943 37.242826 
L 85.328771 36.950734 
L 89.1876 39.964145 
L 93.046428 40.256969 
L 96.905256 41.726523 
L 100.764085 38.900385 
L 104.622913 38.994231 
L 108.481741 40.350606 
L 112.340569 37.410871 
L 123.917054 38.669554 
L 143.211196 38.943546 
L 162.505337 39.351315 
L 181.799479 39.177209 
L 201.09362 39.287703 
L 220.387761 40.673193 
L 239.681903 40.614085 
L 258.976044 39.437271 
L 278.270186 41.196566 
L 297.564327 40.266458 
L 316.858468 39.892789 
L 336.15261 41.607178 
L 355.446751 43.807527 
L 374.740893 43.452909 
L 394.035034 43.691223 
L 413.329176 41.4321 
L 432.623317 43.830153 
L 451.917458 41.354003 
L 471.2116 42.046727 
L 490.505741 43.954639 
L 509.799883 45.677974 
L 529.094024 46.407181 
L 548.388165 43.840655 
L 567.682307 47.284514 
L 586.976448 44.772728 
L 606.27059 46.590954 
L 625.564731 44.352115 
L 644.858872 47.180406 
L 664.153014 48.133996 
L 683.447155 47.183133 
L 702.741297 46.951236 
L 722.035438 48.620552 
L 741.32958 45.85811 
L 760.623721 51.31751 
L 779.917862 48.456614 
L 799.212004 51.066614 
L 818.506145 51.21034 
L 837.800287 53.421882 
L 857.094428 49.171107 
L 876.388569 51.705549 
L 895.682711 55.762185 
L 914.976852 53.167621 
L 934.270994 57.72224 
" clip-path="url(#pa53d8b364e)" style="fill: none; stroke: #5cb85c; stroke-linecap: square"/>
   </g>
   <g id="line2d_29">
    <path d="M 38.058125 353.2239 
L 993.118125 353.2239 
" clip-path="url(#pa53d8b364e)" style="fill: none; stroke: #dedede; stroke-width: 2; stroke-linecap: square"/>
   </g>
   <g id="text_16">
    <!-- FastQC: Mean Quality Scores -->
    <g transform="translate(400.349375 19.3575) scale(0.16 -0.16)">
     <defs>
      <path id="DejaVuSans-46" d="M 628 4666 
L 3309 4666 
L 3309 4134 
L 1259 4134 
L 1259 2759 
L 3109 2759 
L 3109 2228 
L 1259 2228 
L 1259 0 
L 628 0 
L 628 4666 
z
" transform="scale(0.015625)"/>
      <path id="DejaVuSans-61" d="M 2194 1759 
Q 1497 1759 1228 1600 
Q 959 1441 959 1056 
Q 959 750 1161 570 
Q 1363 391 1709 391 
Q 2188 391 2477 730 
Q 2766 1069 2766 1631 
L 2766 1759 
L 2194 1759 
z
M 3341 1997 
L 3341 0 
L 2766 0 
L 2766 531 
Q 2569 213 2275 61 
Q 1981 -91 1556 -91 
Q 1019 -91 701 211 
Q 384 513 384 1019 
Q 384 1609 779 1909 
Q 1175 2209 1959 2209 
L 2766 2209 
L 2766 2266 
Q 2766 2663 2505 2880 
Q 2244 3097 1772 3097 
Q 1472 3097 1187 3025 
Q 903 2953 641 2809 
L 641 3341 
Q 956 3463 1253 3523 
Q 1550 3584 1831 3584 
Q 2591 3584 2966 3190 
Q 3341 2797 3341 1997 
z
" transform="scale(0.015625)"/>
      <path id="DejaVuSans-51" d="M 2522 4238 
Q 1834 4238 1429 3725 
Q 1025 3213 1025 2328 
Q 1025 1447 1429 934 
Q 1834 422 2522 422 
Q 3209 422 3611 934 
Q 4013 1447 4013 2328 
Q 4013 3213 3611 3725 
Q 3209 4238 2522 4238 
z
M 3406 84 
L 4238 -825 
L 3475 -825 
L 2784 -78 
Q 2681 -84 2626 -87 
Q 2572 -91 2522 -91 
Q 1538 -91 948 567 
Q 359 1225 359 2328 
Q 359 3434 948 4092 
Q 1538 4750 2522 4750 
Q 3503 4750 4090 4092 
Q 4678 3434 4678 2328 
Q 4678 1516 4351 937 
Q 4025 359 3406 84 
z
" transform="scale(0.015625)"/>
      <path id="DejaVuSans-43" d="M 4122 4306 
L 4122 3641 
Q 3803 3938 3442 4084 
Q 3081 4231 2675 4231 
Q 1875 4231 1450 3742 
Q 1025 3253 1025 2328 
Q 1025 1406 1450 917 
Q 1875 428 2675 428 
Q 3081 428 3442 575 
Q 3803 722 4122 1019 
L 4122 359 
Q 3791 134 3420 21 
Q 3050 -91 2638 -91 
Q 1578 -91 968 557 
Q 359 1206 359 2328 
Q 359 3453 968 4101 
Q 1578 4750 2638 4750 
Q 3056 4750 3426 4639 
Q 3797 4528 4122 4306 
z
" transform="scale(0.015625)"/>
      <path id="DejaVuSans-3a" d="M 750 794 
L 1409 794 
L 1409 0 
L 750 0 
L 750 794 
z
M 750 3309 
L 1409 3309 
L 1409 2516 
L 750 2516 
L 750 3309 
z
" transform="scale(0.015625)"/>
      <path id="DejaVuSans-4d" d="M 628 4666 
L 1569 4666 
L 2759 1491 
L 3956 4666 
L 4897 4666 
L 4897 0 
L 4281 0 
L 4281 4097 
L 3078 897 
L 2444 897 
L 1241 4097 
L 1241 0 
L 628 0 
L 628 4666 
z
" transform="scale(0.015625)"/>
      <path id="DejaVuSans-75" d="M 544 1381 
L 544 3500 
L 1119 3500 
L 1119 1403 
Q 1119 906 1312 657 
Q 1506 409 1894 409 
Q 2359 409 2629 706 
Q 2900 1003 2900 1516 
L 2900 3500 
L 3475 3500 
L 3475 0 
L 2900 0 
L 2900 538 
Q 2691 219 2414 64 
Q 2138 -91 1772 -91 
Q 1169 -91 856 284 
Q 544 659 544 1381 
z
M 1991 3584 
L 1991 3584 
z
" transform="scale(0.015625)"/>
      <path id="DejaVuSans-6c" d="M 603 4863 
L 1178 4863 
L 1178 0 
L 603 0 
L 603 4863 
z
" transform="scale(0.015625)"/>
      <path id="DejaVuSans-79" d="M 2059 -325 
Q 1816 -950 1584 -1140 
Q 1353 -1331 966 -1331 
L 506 -1331 
L 506 -850 
L 844 -850 
Q 1081 -850 1212 -737 
Q 1344 -625 1503 -206 
L 1606 56 
L 191 3500 
L 800 3500 
L 1894 763 
L 2988 3500 
L 3597 3500 
L 2059 -325 
z
" transform="scale(0.015625)"/>
     </defs>
     <use xlink:href="#DejaVuSans-46"/>
     <use xlink:href="#DejaVuSans-61" x="48.394531"/>
     <use xlink:href="#DejaVuSans-73" x="109.673828"/>
     <use xlink:href="#DejaVuSans-74" x="161.773438"/>
     <use xlink:href="#DejaVuSans-51" x="200.982422"/>
     <use xlink:href="#DejaVuSans-43" x="279.693359"/>
     <use xlink:href="#DejaVuSans-3a" x="349.517578"/>
     <use xlink:href="#DejaVuSans-20" x="383.208984"/>
     <use xlink:href="#DejaVuSans-4d" x="414.996094"/>
     <use xlink:href="#DejaVuSans-65" x="501.275391"/>
     <use xlink:href="#DejaVuSans-61" x="562.798828"/>
     <use xlink:href="#DejaVuSans-6e" x="624.078125"/>
     <use xlink:href="#DejaVuSans-20" x="687.457031"/>
     <use xlink:href="#DejaVuSans-51" x="719.244141"/>
     <use xlink:href="#DejaVuSans-75" x="797.955078"/>
     <use xlink:href="#DejaVuSans-61" x="861.333984"/>
     <use xlink:href="#DejaVuSans-6c" x="922.613281"/>
     <use xlink:href="#DejaVuSans-69" x="950.396484"/>
     <use xlink:href="#DejaVuSans-74" x="978.179688"/>
     <use xlink:href="#DejaVuSans-79" x="1017.388672"/>
     <use xlink:href="#DejaVuSans-20" x="1076.568359"/>
     <use xlink:href="#DejaVuSans-53" x="1108.355469"/>
     <use xlink:href="#DejaVuSans-63" x="1171.832031"/>
     <use xlink:href="#DejaVuSans-6f" x="1226.8125"/>
     <use xlink:href="#DejaVuSans-72" x="1287.994141"/>
     <use xlink:href="#DejaVuSans-65" x="1326.857422"/>
     <use xlink:href="#DejaVuSans-73" x="1388.380859"/>
    </g>
   </g>
  </g>
 </g>
 <defs>
  <clipPath id="pa53d8b364e">
   <rect x="38.058125" y="35.2559" width="955.06" height="317.968"/>
  </clipPath>
 </defs>
</svg>
