<?xml version="1.0" encoding="utf-8" standalone="no"?>
<!DOCTYPE svg PUBLIC "-//W3C//DTD SVG 1.1//EN"
  "http://www.w3.org/Graphics/SVG/1.1/DTD/svg11.dtd">
<svg xmlns:xlink="http://www.w3.org/1999/xlink" width="1000.358125pt" height="388.844525pt" viewBox="0 0 1000.358125 388.844525" xmlns="http://www.w3.org/2000/svg" version="1.1">
 <metadata>
  <rdf:RDF xmlns:dc="http://purl.org/dc/elements/1.1/" xmlns:cc="http://creativecommons.org/ns#" xmlns:rdf="http://www.w3.org/1999/02/22-rdf-syntax-ns#">
   <cc:Work>
    <dc:type rdf:resource="http://purl.org/dc/dcmitype/StillImage"/>
    <dc:date>2024-04-03T14:11:15.527242</dc:date>
    <dc:format>image/svg+xml</dc:format>
    <dc:creator>
     <cc:Agent>
      <dc:title>Matplotlib v3.8.1, https://matplotlib.org/</dc:title>
     </cc:Agent>
    </dc:creator>
   </cc:Work>
  </rdf:RDF>
 </metadata>
 <defs>
  <style type="text/css">*{stroke-linejoin: round; stroke-linecap: butt}</style>
 </defs>
 <g id="figure_1">
  <g id="axes_1">
   <g id="patch_1">
    <path d="M 32.968125 353.2239 
L 993.158125 353.2239 
L 993.158125 35.2559 
L 32.968125 35.2559 
z
" style="fill: #ffffff"/>
   </g>
   <g id="patch_2">
    <path d="M 32.968125 -918.6481 
L 953.592097 -918.6481 
L 953.592097 -6006.1361 
L 32.968125 -6006.1361 
z
" clip-path="url(#pfd693e2e59)" style="fill: #e6c3c3"/>
   </g>
   <g id="patch_3">
    <path d="M 32.968125 35.2559 
L 953.592097 35.2559 
L 953.592097 -918.6481 
L 32.968125 -918.6481 
z
" clip-path="url(#pfd693e2e59)" style="fill: #e6dcc3"/>
   </g>
   <g id="patch_4">
    <path d="M 32.968125 353.2239 
L 953.592097 353.2239 
L 953.592097 35.2559 
L 32.968125 35.2559 
z
" clip-path="url(#pfd693e2e59)" style="fill: #c3e6c3"/>
   </g>
   <g id="matplotlib.axis_1">
    <g id="xtick_1">
     <g id="text_1">
      <!-- 0 -->
      <g transform="translate(69.989153 366.30265) scale(0.08 -0.08)">
       <defs>
        <path id="DejaVuSans-30" d="M 2034 4250 
Q 1547 4250 1301 3770 
Q 1056 3291 1056 2328 
Q 1056 1369 1301 889 
Q 1547 409 2034 409 
Q 2525 409 2770 889 
Q 3016 1369 3016 2328 
Q 3016 3291 2770 3770 
Q 2525 4250 2034 4250 
z
M 2034 4750 
Q 2819 4750 3233 4129 
Q 3647 3509 3647 2328 
Q 3647 1150 3233 529 
Q 2819 -91 2034 -91 
Q 1250 -91 836 529 
Q 422 1150 422 2328 
Q 422 3509 836 4129 
Q 1250 4750 2034 4750 
z
" transform="scale(0.015625)"/>
       </defs>
       <use xlink:href="#DejaVuSans-30"/>
      </g>
     </g>
    </g>
    <g id="xtick_2">
     <g id="text_2">
      <!-- 50 -->
      <g transform="translate(271.392751 366.30265) scale(0.08 -0.08)">
       <defs>
        <path id="DejaVuSans-35" d="M 691 4666 
L 3169 4666 
L 3169 4134 
L 1269 4134 
L 1269 2991 
Q 1406 3038 1543 3061 
Q 1681 3084 1819 3084 
Q 2600 3084 3056 2656 
Q 3513 2228 3513 1497 
Q 3513 744 3044 326 
Q 2575 -91 1722 -91 
Q 1428 -91 1123 -41 
Q 819 9 494 109 
L 494 744 
Q 775 591 1075 516 
Q 1375 441 1709 441 
Q 2250 441 2565 725 
Q 2881 1009 2881 1497 
Q 2881 1984 2565 2268 
Q 2250 2553 1709 2553 
Q 1456 2553 1204 2497 
Q 953 2441 691 2322 
L 691 4666 
z
" transform="scale(0.015625)"/>
       </defs>
       <use xlink:href="#DejaVuSans-35"/>
       <use xlink:href="#DejaVuSans-30" x="63.623047"/>
      </g>
     </g>
    </g>
    <g id="xtick_3">
     <g id="text_3">
      <!-- 100 -->
      <g transform="translate(472.796349 366.30265) scale(0.08 -0.08)">
       <defs>
        <path id="DejaVuSans-31" d="M 794 531 
L 1825 531 
L 1825 4091 
L 703 3866 
L 703 4441 
L 1819 4666 
L 2450 4666 
L 2450 531 
L 3481 531 
L 3481 0 
L 794 0 
L 794 531 
z
" transform="scale(0.015625)"/>
       </defs>
       <use xlink:href="#DejaVuSans-31"/>
       <use xlink:href="#DejaVuSans-30" x="63.623047"/>
       <use xlink:href="#DejaVuSans-30" x="127.246094"/>
      </g>
     </g>
    </g>
    <g id="xtick_4">
     <g id="text_4">
      <!-- 150 -->
      <g transform="translate(676.744947 366.30265) scale(0.08 -0.08)">
       <use xlink:href="#DejaVuSans-31"/>
       <use xlink:href="#DejaVuSans-35" x="63.623047"/>
       <use xlink:href="#DejaVuSans-30" x="127.246094"/>
      </g>
     </g>
    </g>
    <g id="xtick_5">
     <g id="text_5">
      <!-- 200 -->
      <g transform="translate(880.693546 366.30265) scale(0.08 -0.08)">
       <defs>
        <path id="DejaVuSans-32" d="M 1228 531 
L 3431 531 
L 3431 0 
L 469 0 
L 469 531 
Q 828 903 1448 1529 
Q 2069 2156 2228 2338 
Q 2531 2678 2651 2914 
Q 2772 3150 2772 3378 
Q 2772 3750 2511 3984 
Q 2250 4219 1831 4219 
Q 1534 4219 1204 4116 
Q 875 4013 500 3803 
L 500 4441 
Q 881 4594 1212 4672 
Q 1544 4750 1819 4750 
Q 2544 4750 2975 4387 
Q 3406 4025 3406 3419 
Q 3406 3131 3298 2873 
Q 3191 2616 2906 2266 
Q 2828 2175 2409 1742 
Q 1991 1309 1228 531 
z
" transform="scale(0.015625)"/>
       </defs>
       <use xlink:href="#DejaVuSans-32"/>
       <use xlink:href="#DejaVuSans-30" x="63.623047"/>
       <use xlink:href="#DejaVuSans-30" x="127.246094"/>
      </g>
     </g>
    </g>
    <g id="text_6">
     <!-- Position (bp) -->
     <g transform="translate(481.76 379.564837) scale(0.1 -0.1)">
      <defs>
       <path id="DejaVuSans-50" d="M 1259 4147 
L 1259 2394 
L 2053 2394 
Q 2494 2394 2734 2622 
Q 2975 2850 2975 3272 
Q 2975 3691 2734 3919 
Q 2494 4147 2053 4147 
L 1259 4147 
z
M 628 4666 
L 2053 4666 
Q 2838 4666 3239 4311 
Q 3641 3956 3641 3272 
Q 3641 2581 3239 2228 
Q 2838 1875 2053 1875 
L 1259 1875 
L 1259 0 
L 628 0 
L 628 4666 
z
" transform="scale(0.015625)"/>
       <path id="DejaVuSans-6f" d="M 1959 3097 
Q 1497 3097 1228 2736 
Q 959 2375 959 1747 
Q 959 1119 1226 758 
Q 1494 397 1959 397 
Q 2419 397 2687 759 
Q 2956 1122 2956 1747 
Q 2956 2369 2687 2733 
Q 2419 3097 1959 3097 
z
M 1959 3584 
Q 2709 3584 3137 3096 
Q 3566 2609 3566 1747 
Q 3566 888 3137 398 
Q 2709 -91 1959 -91 
Q 1206 -91 779 398 
Q 353 888 353 1747 
Q 353 2609 779 3096 
Q 1206 3584 1959 3584 
z
" transform="scale(0.015625)"/>
       <path id="DejaVuSans-73" d="M 2834 3397 
L 2834 2853 
Q 2591 2978 2328 3040 
Q 2066 3103 1784 3103 
Q 1356 3103 1142 2972 
Q 928 2841 928 2578 
Q 928 2378 1081 2264 
Q 1234 2150 1697 2047 
L 1894 2003 
Q 2506 1872 2764 1633 
Q 3022 1394 3022 966 
Q 3022 478 2636 193 
Q 2250 -91 1575 -91 
Q 1294 -91 989 -36 
Q 684 19 347 128 
L 347 722 
Q 666 556 975 473 
Q 1284 391 1588 391 
Q 1994 391 2212 530 
Q 2431 669 2431 922 
Q 2431 1156 2273 1281 
Q 2116 1406 1581 1522 
L 1381 1569 
Q 847 1681 609 1914 
Q 372 2147 372 2553 
Q 372 3047 722 3315 
Q 1072 3584 1716 3584 
Q 2034 3584 2315 3537 
Q 2597 3491 2834 3397 
z
" transform="scale(0.015625)"/>
       <path id="DejaVuSans-69" d="M 603 3500 
L 1178 3500 
L 1178 0 
L 603 0 
L 603 3500 
z
M 603 4863 
L 1178 4863 
L 1178 4134 
L 603 4134 
L 603 4863 
z
" transform="scale(0.015625)"/>
       <path id="DejaVuSans-74" d="M 1172 4494 
L 1172 3500 
L 2356 3500 
L 2356 3053 
L 1172 3053 
L 1172 1153 
Q 1172 725 1289 603 
Q 1406 481 1766 481 
L 2356 481 
L 2356 0 
L 1766 0 
Q 1100 0 847 248 
Q 594 497 594 1153 
L 594 3053 
L 172 3053 
L 172 3500 
L 594 3500 
L 594 4494 
L 1172 4494 
z
" transform="scale(0.015625)"/>
       <path id="DejaVuSans-6e" d="M 3513 2113 
L 3513 0 
L 2938 0 
L 2938 2094 
Q 2938 2591 2744 2837 
Q 2550 3084 2163 3084 
Q 1697 3084 1428 2787 
Q 1159 2491 1159 1978 
L 1159 0 
L 581 0 
L 581 3500 
L 1159 3500 
L 1159 2956 
Q 1366 3272 1645 3428 
Q 1925 3584 2291 3584 
Q 2894 3584 3203 3211 
Q 3513 2838 3513 2113 
z
" transform="scale(0.015625)"/>
       <path id="DejaVuSans-20" transform="scale(0.015625)"/>
       <path id="DejaVuSans-28" d="M 1984 4856 
Q 1566 4138 1362 3434 
Q 1159 2731 1159 2009 
Q 1159 1288 1364 580 
Q 1569 -128 1984 -844 
L 1484 -844 
Q 1016 -109 783 600 
Q 550 1309 550 2009 
Q 550 2706 781 3412 
Q 1013 4119 1484 4856 
L 1984 4856 
z
" transform="scale(0.015625)"/>
       <path id="DejaVuSans-62" d="M 3116 1747 
Q 3116 2381 2855 2742 
Q 2594 3103 2138 3103 
Q 1681 3103 1420 2742 
Q 1159 2381 1159 1747 
Q 1159 1113 1420 752 
Q 1681 391 2138 391 
Q 2594 391 2855 752 
Q 3116 1113 3116 1747 
z
M 1159 2969 
Q 1341 3281 1617 3432 
Q 1894 3584 2278 3584 
Q 2916 3584 3314 3078 
Q 3713 2572 3713 1747 
Q 3713 922 3314 415 
Q 2916 -91 2278 -91 
Q 1894 -91 1617 61 
Q 1341 213 1159 525 
L 1159 0 
L 581 0 
L 581 4863 
L 1159 4863 
L 1159 2969 
z
" transform="scale(0.015625)"/>
       <path id="DejaVuSans-70" d="M 1159 525 
L 1159 -1331 
L 581 -1331 
L 581 3500 
L 1159 3500 
L 1159 2969 
Q 1341 3281 1617 3432 
Q 1894 3584 2278 3584 
Q 2916 3584 3314 3078 
Q 3713 2572 3713 1747 
Q 3713 922 3314 415 
Q 2916 -91 2278 -91 
Q 1894 -91 1617 61 
Q 1341 213 1159 525 
z
M 3116 1747 
Q 3116 2381 2855 2742 
Q 2594 3103 2138 3103 
Q 1681 3103 1420 2742 
Q 1159 2381 1159 1747 
Q 1159 1113 1420 752 
Q 1681 391 2138 391 
Q 2594 391 2855 752 
Q 3116 1113 3116 1747 
z
" transform="scale(0.015625)"/>
       <path id="DejaVuSans-29" d="M 513 4856 
L 1013 4856 
Q 1481 4119 1714 3412 
Q 1947 2706 1947 2009 
Q 1947 1309 1714 600 
Q 1481 -109 1013 -844 
L 513 -844 
Q 928 -128 1133 580 
Q 1338 1288 1338 2009 
Q 1338 2731 1133 3434 
Q 928 4138 513 4856 
z
" transform="scale(0.015625)"/>
      </defs>
      <use xlink:href="#DejaVuSans-50"/>
      <use xlink:href="#DejaVuSans-6f" x="56.677734"/>
      <use xlink:href="#DejaVuSans-73" x="117.859375"/>
      <use xlink:href="#DejaVuSans-69" x="169.958984"/>
      <use xlink:href="#DejaVuSans-74" x="197.742188"/>
      <use xlink:href="#DejaVuSans-69" x="236.951172"/>
      <use xlink:href="#DejaVuSans-6f" x="264.734375"/>
      <use xlink:href="#DejaVuSans-6e" x="325.916016"/>
      <use xlink:href="#DejaVuSans-20" x="389.294922"/>
      <use xlink:href="#DejaVuSans-28" x="421.082031"/>
      <use xlink:href="#DejaVuSans-62" x="460.095703"/>
      <use xlink:href="#DejaVuSans-70" x="523.572266"/>
      <use xlink:href="#DejaVuSans-29" x="587.048828"/>
     </g>
    </g>
   </g>
   <g id="matplotlib.axis_2">
    <g id="ytick_1">
     <g id="line2d_1">
      <path d="M 32.968125 353.2239 
L 993.158125 353.2239 
" clip-path="url(#pfd693e2e59)" style="fill: none; stroke: #dedede; stroke-linecap: square"/>
     </g>
     <g id="text_7">
      <!-- 0 -->
      <g transform="translate(20.878125 356.263275) scale(0.08 -0.08)">
       <use xlink:href="#DejaVuSans-30"/>
      </g>
     </g>
    </g>
    <g id="ytick_2">
     <g id="line2d_2">
      <path d="M 32.968125 289.6303 
L 993.158125 289.6303 
" clip-path="url(#pfd693e2e59)" style="fill: none; stroke: #dedede; stroke-linecap: square"/>
     </g>
     <g id="text_8">
      <!-- 1 -->
      <g transform="translate(20.878125 292.669675) scale(0.08 -0.08)">
       <use xlink:href="#DejaVuSans-31"/>
      </g>
     </g>
    </g>
    <g id="ytick_3">
     <g id="line2d_3">
      <path d="M 32.968125 226.0367 
L 993.158125 226.0367 
" clip-path="url(#pfd693e2e59)" style="fill: none; stroke: #dedede; stroke-linecap: square"/>
     </g>
     <g id="text_9">
      <!-- 2 -->
      <g transform="translate(20.878125 229.076075) scale(0.08 -0.08)">
       <use xlink:href="#DejaVuSans-32"/>
      </g>
     </g>
    </g>
    <g id="ytick_4">
     <g id="line2d_4">
      <path d="M 32.968125 162.4431 
L 993.158125 162.4431 
" clip-path="url(#pfd693e2e59)" style="fill: none; stroke: #dedede; stroke-linecap: square"/>
     </g>
     <g id="text_10">
      <!-- 3 -->
      <g transform="translate(20.878125 165.482475) scale(0.08 -0.08)">
       <defs>
        <path id="DejaVuSans-33" d="M 2597 2516 
Q 3050 2419 3304 2112 
Q 3559 1806 3559 1356 
Q 3559 666 3084 287 
Q 2609 -91 1734 -91 
Q 1441 -91 1130 -33 
Q 819 25 488 141 
L 488 750 
Q 750 597 1062 519 
Q 1375 441 1716 441 
Q 2309 441 2620 675 
Q 2931 909 2931 1356 
Q 2931 1769 2642 2001 
Q 2353 2234 1838 2234 
L 1294 2234 
L 1294 2753 
L 1863 2753 
Q 2328 2753 2575 2939 
Q 2822 3125 2822 3475 
Q 2822 3834 2567 4026 
Q 2313 4219 1838 4219 
Q 1578 4219 1281 4162 
Q 984 4106 628 3988 
L 628 4550 
Q 988 4650 1302 4700 
Q 1616 4750 1894 4750 
Q 2613 4750 3031 4423 
Q 3450 4097 3450 3541 
Q 3450 3153 3228 2886 
Q 3006 2619 2597 2516 
z
" transform="scale(0.015625)"/>
       </defs>
       <use xlink:href="#DejaVuSans-33"/>
      </g>
     </g>
    </g>
    <g id="ytick_5">
     <g id="line2d_5">
      <path d="M 32.968125 98.8495 
L 993.158125 98.8495 
" clip-path="url(#pfd693e2e59)" style="fill: none; stroke: #dedede; stroke-linecap: square"/>
     </g>
     <g id="text_11">
      <!-- 4 -->
      <g transform="translate(20.878125 101.888875) scale(0.08 -0.08)">
       <defs>
        <path id="DejaVuSans-34" d="M 2419 4116 
L 825 1625 
L 2419 1625 
L 2419 4116 
z
M 2253 4666 
L 3047 4666 
L 3047 1625 
L 3713 1625 
L 3713 1100 
L 3047 1100 
L 3047 0 
L 2419 0 
L 2419 1100 
L 313 1100 
L 313 1709 
L 2253 4666 
z
" transform="scale(0.015625)"/>
       </defs>
       <use xlink:href="#DejaVuSans-34"/>
      </g>
     </g>
    </g>
    <g id="ytick_6">
     <g id="line2d_6">
      <path d="M 32.968125 35.2559 
L 993.158125 35.2559 
" clip-path="url(#pfd693e2e59)" style="fill: none; stroke: #dedede; stroke-linecap: square"/>
     </g>
     <g id="text_12">
      <!-- 5 -->
      <g transform="translate(20.878125 38.295275) scale(0.08 -0.08)">
       <use xlink:href="#DejaVuSans-35"/>
      </g>
     </g>
    </g>
    <g id="text_13">
     <!-- % of Sequences -->
     <g transform="translate(14.798437 234.257869) rotate(-90) scale(0.1 -0.1)">
      <defs>
       <path id="DejaVuSans-25" d="M 4653 2053 
Q 4381 2053 4226 1822 
Q 4072 1591 4072 1178 
Q 4072 772 4226 539 
Q 4381 306 4653 306 
Q 4919 306 5073 539 
Q 5228 772 5228 1178 
Q 5228 1588 5073 1820 
Q 4919 2053 4653 2053 
z
M 4653 2450 
Q 5147 2450 5437 2106 
Q 5728 1763 5728 1178 
Q 5728 594 5436 251 
Q 5144 -91 4653 -91 
Q 4153 -91 3862 251 
Q 3572 594 3572 1178 
Q 3572 1766 3864 2108 
Q 4156 2450 4653 2450 
z
M 1428 4353 
Q 1159 4353 1004 4120 
Q 850 3888 850 3481 
Q 850 3069 1003 2837 
Q 1156 2606 1428 2606 
Q 1700 2606 1854 2837 
Q 2009 3069 2009 3481 
Q 2009 3884 1853 4118 
Q 1697 4353 1428 4353 
z
M 4250 4750 
L 4750 4750 
L 1831 -91 
L 1331 -91 
L 4250 4750 
z
M 1428 4750 
Q 1922 4750 2215 4408 
Q 2509 4066 2509 3481 
Q 2509 2891 2217 2550 
Q 1925 2209 1428 2209 
Q 931 2209 642 2551 
Q 353 2894 353 3481 
Q 353 4063 643 4406 
Q 934 4750 1428 4750 
z
" transform="scale(0.015625)"/>
       <path id="DejaVuSans-66" d="M 2375 4863 
L 2375 4384 
L 1825 4384 
Q 1516 4384 1395 4259 
Q 1275 4134 1275 3809 
L 1275 3500 
L 2222 3500 
L 2222 3053 
L 1275 3053 
L 1275 0 
L 697 0 
L 697 3053 
L 147 3053 
L 147 3500 
L 697 3500 
L 697 3744 
Q 697 4328 969 4595 
Q 1241 4863 1831 4863 
L 2375 4863 
z
" transform="scale(0.015625)"/>
       <path id="DejaVuSans-53" d="M 3425 4513 
L 3425 3897 
Q 3066 4069 2747 4153 
Q 2428 4238 2131 4238 
Q 1616 4238 1336 4038 
Q 1056 3838 1056 3469 
Q 1056 3159 1242 3001 
Q 1428 2844 1947 2747 
L 2328 2669 
Q 3034 2534 3370 2195 
Q 3706 1856 3706 1288 
Q 3706 609 3251 259 
Q 2797 -91 1919 -91 
Q 1588 -91 1214 -16 
Q 841 59 441 206 
L 441 856 
Q 825 641 1194 531 
Q 1563 422 1919 422 
Q 2459 422 2753 634 
Q 3047 847 3047 1241 
Q 3047 1584 2836 1778 
Q 2625 1972 2144 2069 
L 1759 2144 
Q 1053 2284 737 2584 
Q 422 2884 422 3419 
Q 422 4038 858 4394 
Q 1294 4750 2059 4750 
Q 2388 4750 2728 4690 
Q 3069 4631 3425 4513 
z
" transform="scale(0.015625)"/>
       <path id="DejaVuSans-65" d="M 3597 1894 
L 3597 1613 
L 953 1613 
Q 991 1019 1311 708 
Q 1631 397 2203 397 
Q 2534 397 2845 478 
Q 3156 559 3463 722 
L 3463 178 
Q 3153 47 2828 -22 
Q 2503 -91 2169 -91 
Q 1331 -91 842 396 
Q 353 884 353 1716 
Q 353 2575 817 3079 
Q 1281 3584 2069 3584 
Q 2775 3584 3186 3129 
Q 3597 2675 3597 1894 
z
M 3022 2063 
Q 3016 2534 2758 2815 
Q 2500 3097 2075 3097 
Q 1594 3097 1305 2825 
Q 1016 2553 972 2059 
L 3022 2063 
z
" transform="scale(0.015625)"/>
       <path id="DejaVuSans-71" d="M 947 1747 
Q 947 1113 1208 752 
Q 1469 391 1925 391 
Q 2381 391 2643 752 
Q 2906 1113 2906 1747 
Q 2906 2381 2643 2742 
Q 2381 3103 1925 3103 
Q 1469 3103 1208 2742 
Q 947 2381 947 1747 
z
M 2906 525 
Q 2725 213 2448 61 
Q 2172 -91 1784 -91 
Q 1150 -91 751 415 
Q 353 922 353 1747 
Q 353 2572 751 3078 
Q 1150 3584 1784 3584 
Q 2172 3584 2448 3432 
Q 2725 3281 2906 2969 
L 2906 3500 
L 3481 3500 
L 3481 -1331 
L 2906 -1331 
L 2906 525 
z
" transform="scale(0.015625)"/>
       <path id="DejaVuSans-75" d="M 544 1381 
L 544 3500 
L 1119 3500 
L 1119 1403 
Q 1119 906 1312 657 
Q 1506 409 1894 409 
Q 2359 409 2629 706 
Q 2900 1003 2900 1516 
L 2900 3500 
L 3475 3500 
L 3475 0 
L 2900 0 
L 2900 538 
Q 2691 219 2414 64 
Q 2138 -91 1772 -91 
Q 1169 -91 856 284 
Q 544 659 544 1381 
z
M 1991 3584 
L 1991 3584 
z
" transform="scale(0.015625)"/>
       <path id="DejaVuSans-63" d="M 3122 3366 
L 3122 2828 
Q 2878 2963 2633 3030 
Q 2388 3097 2138 3097 
Q 1578 3097 1268 2742 
Q 959 2388 959 1747 
Q 959 1106 1268 751 
Q 1578 397 2138 397 
Q 2388 397 2633 464 
Q 2878 531 3122 666 
L 3122 134 
Q 2881 22 2623 -34 
Q 2366 -91 2075 -91 
Q 1284 -91 818 406 
Q 353 903 353 1747 
Q 353 2603 823 3093 
Q 1294 3584 2113 3584 
Q 2378 3584 2631 3529 
Q 2884 3475 3122 3366 
z
" transform="scale(0.015625)"/>
      </defs>
      <use xlink:href="#DejaVuSans-25"/>
      <use xlink:href="#DejaVuSans-20" x="95.019531"/>
      <use xlink:href="#DejaVuSans-6f" x="126.806641"/>
      <use xlink:href="#DejaVuSans-66" x="187.988281"/>
      <use xlink:href="#DejaVuSans-20" x="223.193359"/>
      <use xlink:href="#DejaVuSans-53" x="254.980469"/>
      <use xlink:href="#DejaVuSans-65" x="318.457031"/>
      <use xlink:href="#DejaVuSans-71" x="379.980469"/>
      <use xlink:href="#DejaVuSans-75" x="443.457031"/>
      <use xlink:href="#DejaVuSans-65" x="506.835938"/>
      <use xlink:href="#DejaVuSans-6e" x="568.359375"/>
      <use xlink:href="#DejaVuSans-63" x="631.738281"/>
      <use xlink:href="#DejaVuSans-65" x="686.71875"/>
      <use xlink:href="#DejaVuSans-73" x="748.242188"/>
     </g>
    </g>
   </g>
   <g id="line2d_7">
    <path d="M 76.613125 353.2239 
L 80.692097 353.2239 
L 84.771069 353.2239 
L 88.850041 353.2239 
L 92.929013 353.2239 
L 97.007985 353.2239 
L 101.086957 353.2239 
L 105.165929 353.2239 
L 109.244901 353.2239 
L 121.481817 353.2239 
L 141.876676 353.2239 
L 162.271536 353.2239 
L 182.666396 353.2239 
L 203.061256 353.2239 
L 223.456116 353.193157 
L 243.850975 353.185471 
L 264.245835 353.177785 
L 284.640695 353.147041 
L 305.035555 353.139356 
L 325.430415 353.024068 
L 345.825275 352.954895 
L 366.220134 352.947209 
L 386.614994 352.916465 
L 407.009854 352.824235 
L 427.404714 352.378455 
L 447.799574 352.24011 
L 468.194433 352.124822 
L 488.589293 352.101764 
L 508.984153 351.971104 
L 529.379013 351.871188 
L 549.773873 351.786644 
L 570.168732 351.725157 
L 590.563592 351.648298 
L 610.958452 351.556068 
L 631.353312 351.53301 
L 651.748172 351.509953 
L 672.143032 351.194832 
L 692.537891 350.925827 
L 712.932751 350.456989 
L 733.327611 350.211042 
L 753.722471 349.834434 
L 774.117331 349.088906 
L 794.51219 348.051314 
L 814.90705 347.25967 
L 835.30191 346.544885 
L 855.69677 345.491922 
L 876.09163 344.984655 
L 896.486489 344.208383 
L 916.881349 343.370623 
L 937.276209 342.256173 
L 949.513125 341.675891 
" clip-path="url(#pfd693e2e59)" style="fill: none; stroke: #7cb5ec; stroke-linecap: square"/>
   </g>
   <g id="line2d_8">
    <path d="M 76.613125 353.2239 
L 80.692097 353.2239 
L 84.771069 353.2239 
L 88.850041 353.2239 
L 92.929013 353.2239 
L 97.007985 353.2239 
L 101.086957 353.2239 
L 105.165929 353.2239 
L 109.244901 353.2239 
L 121.481817 353.2239 
L 141.876676 353.2239 
L 162.271536 353.2239 
L 182.666396 353.2239 
L 203.061256 353.2239 
L 223.456116 353.2239 
L 243.850975 353.2239 
L 264.245835 353.2239 
L 284.640695 353.2239 
L 305.035555 353.2239 
L 325.430415 353.2239 
L 345.825275 353.2239 
L 366.220134 353.2239 
L 386.614994 353.2239 
L 407.009854 353.2239 
L 427.404714 353.2239 
L 447.799574 353.208528 
L 468.194433 353.116298 
L 488.589293 353.100926 
L 508.984153 353.070183 
L 529.379013 353.024068 
L 549.773873 352.977952 
L 570.168732 352.947209 
L 590.563592 352.839607 
L 610.958452 352.77812 
L 631.353312 352.662832 
L 651.748172 352.532172 
L 672.143032 352.324654 
L 692.537891 352.117136 
L 712.932751 351.909617 
L 733.327611 351.617555 
L 753.722471 351.133345 
L 774.117331 350.54922 
L 794.51219 350.380131 
L 814.90705 350.149555 
L 835.30191 349.319482 
L 855.69677 348.766099 
L 876.09163 348.166602 
L 896.486489 347.605534 
L 916.881349 346.614058 
L 933.197237 346.018403 
" clip-path="url(#pfd693e2e59)" style="fill: none; stroke: #434348; stroke-linecap: square"/>
   </g>
   <g id="line2d_9">
    <path d="M 76.613125 353.2239 
L 80.692097 353.2239 
L 84.771069 353.2239 
L 88.850041 353.2239 
L 92.929013 353.2239 
L 97.007985 353.2239 
L 101.086957 353.2239 
L 105.165929 353.2239 
L 109.244901 353.2239 
L 121.481817 353.2239 
L 141.876676 353.2239 
L 162.271536 353.2239 
L 182.666396 353.2239 
L 203.061256 353.2239 
L 223.456116 353.2239 
L 243.850975 353.192021 
L 264.245835 353.144203 
L 284.640695 353.128263 
L 305.035555 353.064506 
L 325.430415 352.984808 
L 345.825275 352.94496 
L 366.220134 352.905111 
L 386.614994 352.905111 
L 407.009854 352.833384 
L 427.404714 352.347231 
L 447.799574 352.132048 
L 468.194433 351.773411 
L 488.589293 351.709653 
L 508.984153 351.629956 
L 529.379013 351.51041 
L 549.773873 351.51041 
L 570.168732 351.446652 
L 590.563592 351.382894 
L 610.958452 351.103954 
L 631.353312 351.024257 
L 651.748172 350.968469 
L 672.143032 350.840953 
L 692.537891 350.474346 
L 712.932751 350.203375 
L 733.327611 350.004132 
L 753.722471 349.573767 
L 774.117331 348.896341 
L 794.51219 347.852307 
L 814.90705 346.856092 
L 835.30191 346.282272 
L 855.69677 345.150572 
L 876.09163 344.249993 
L 896.486489 343.676173 
L 916.881349 341.851107 
L 937.276209 340.089798 
L 949.513125 339.575751 
" clip-path="url(#pfd693e2e59)" style="fill: none; stroke: #90ed7d; stroke-linecap: square"/>
   </g>
   <g id="line2d_10">
    <path d="M 76.613125 353.2239 
L 80.692097 353.2239 
L 84.771069 353.2239 
L 88.850041 353.2239 
L 92.929013 353.2239 
L 97.007985 353.2239 
L 101.086957 353.2239 
L 105.165929 353.2239 
L 109.244901 353.2239 
L 121.481817 353.2239 
L 141.876676 353.2239 
L 162.271536 353.2239 
L 182.666396 353.2239 
L 203.061256 353.2239 
L 223.456116 353.2239 
L 243.850975 353.2239 
L 264.245835 353.2239 
L 284.640695 353.2239 
L 305.035555 353.2239 
L 325.430415 353.2239 
L 345.825275 353.2239 
L 366.220134 353.2239 
L 386.614994 353.192021 
L 407.009854 353.152173 
L 427.404714 353.104354 
L 447.799574 353.064506 
L 468.194433 353.048566 
L 488.589293 352.984808 
L 508.984153 352.960899 
L 529.379013 352.93699 
L 549.773873 352.905111 
L 570.168732 352.873232 
L 590.563592 352.833384 
L 610.958452 352.801505 
L 631.353312 352.64211 
L 651.748172 352.498655 
L 672.143032 352.219715 
L 692.537891 351.948744 
L 712.932751 351.653865 
L 733.327611 351.2235 
L 753.722471 350.721407 
L 774.117331 350.099769 
L 794.51219 349.812859 
L 814.90705 349.50204 
L 835.30191 348.944159 
L 855.69677 348.402218 
L 876.09163 347.828398 
L 896.486489 346.895941 
L 916.881349 345.596876 
L 933.197237 345.044973 
" clip-path="url(#pfd693e2e59)" style="fill: none; stroke: #f7a35c; stroke-linecap: square"/>
   </g>
   <g id="line2d_11">
    <path d="M 76.613125 353.2239 
L 80.692097 353.2239 
L 84.771069 353.2239 
L 88.850041 353.2239 
L 92.929013 353.2239 
L 97.007985 353.2239 
L 101.086957 353.2239 
L 105.165929 353.2239 
L 109.244901 353.2239 
L 121.481817 353.2239 
L 141.876676 353.2239 
L 162.271536 353.2239 
L 182.666396 353.2239 
L 203.061256 353.2239 
L 223.456116 353.2239 
L 243.850975 353.2239 
L 264.245835 353.187321 
L 284.640695 353.17269 
L 305.035555 353.143427 
L 325.430415 353.099532 
L 345.825275 353.077585 
L 366.220134 353.062954 
L 386.614994 353.004428 
L 407.009854 352.923954 
L 427.404714 352.624009 
L 447.799574 352.485009 
L 468.194433 352.367958 
L 488.589293 352.324063 
L 508.984153 352.170432 
L 529.379013 352.163117 
L 549.773873 352.119222 
L 570.168732 352.031433 
L 590.563592 351.980223 
L 610.958452 351.870487 
L 631.353312 351.70954 
L 651.748172 351.577857 
L 672.143032 351.431542 
L 692.537891 351.212069 
L 712.932751 351.116965 
L 733.327611 350.992597 
L 753.722471 350.641441 
L 774.117331 350.129339 
L 794.51219 348.76861 
L 814.90705 347.678563 
L 835.30191 347.071356 
L 855.69677 346.010573 
L 876.09163 345.308261 
L 896.486489 344.488897 
L 916.881349 343.120852 
L 937.276209 341.67965 
L 949.513125 341.152916 
" clip-path="url(#pfd693e2e59)" style="fill: none; stroke: #8085e9; stroke-linecap: square"/>
   </g>
   <g id="line2d_12">
    <path d="M 76.613125 353.2239 
L 80.692097 353.2239 
L 84.771069 353.2239 
L 88.850041 353.2239 
L 92.929013 353.2239 
L 97.007985 353.2239 
L 101.086957 353.2239 
L 105.165929 353.2239 
L 109.244901 353.2239 
L 121.481817 353.2239 
L 141.876676 353.2239 
L 162.271536 353.187321 
L 182.666396 353.187321 
L 203.061256 353.187321 
L 223.456116 353.187321 
L 243.850975 353.187321 
L 264.245835 353.187321 
L 284.640695 353.187321 
L 305.035555 353.187321 
L 325.430415 353.180006 
L 345.825275 353.150743 
L 366.220134 353.12148 
L 386.614994 353.084901 
L 407.009854 353.041006 
L 427.404714 353.019059 
L 447.799574 352.98248 
L 468.194433 352.938586 
L 488.589293 352.821534 
L 508.984153 352.748376 
L 529.379013 352.660587 
L 549.773873 352.616693 
L 570.168732 352.565483 
L 590.563592 352.426484 
L 610.958452 352.34601 
L 631.353312 352.185064 
L 651.748172 352.104591 
L 672.143032 352.024117 
L 692.537891 351.885118 
L 712.932751 351.70954 
L 733.327611 351.387647 
L 753.722471 350.868229 
L 774.117331 350.202496 
L 794.51219 349.953761 
L 814.90705 349.734288 
L 835.30191 348.973451 
L 855.69677 348.263823 
L 876.09163 347.59809 
L 896.486489 346.654359 
L 916.881349 345.374103 
L 933.197237 344.893092 
" clip-path="url(#pfd693e2e59)" style="fill: none; stroke: #f15c80; stroke-linecap: square"/>
   </g>
   <g id="line2d_13">
    <path d="M 76.613125 353.2239 
L 80.692097 353.2239 
L 84.771069 353.2239 
L 88.850041 353.2239 
L 92.929013 353.2239 
L 97.007985 353.2239 
L 101.086957 353.2239 
L 105.165929 353.2239 
L 109.244901 353.2239 
L 121.481817 353.2239 
L 141.876676 353.2239 
L 162.271536 353.2239 
L 182.666396 353.2239 
L 203.061256 353.2239 
L 223.456116 353.195507 
L 243.850975 353.167114 
L 264.245835 353.145819 
L 284.640695 353.10323 
L 305.035555 353.053542 
L 325.430415 353.025149 
L 345.825275 352.975461 
L 366.220134 352.975461 
L 386.614994 352.975461 
L 407.009854 352.904479 
L 427.404714 352.535369 
L 447.799574 352.443092 
L 468.194433 352.322422 
L 488.589293 352.286931 
L 508.984153 352.187555 
L 529.379013 352.116573 
L 549.773873 352.052688 
L 570.168732 351.995902 
L 590.563592 351.981706 
L 610.958452 351.861035 
L 631.353312 351.832642 
L 651.748172 351.754562 
L 672.143032 351.548712 
L 692.537891 351.371256 
L 712.932751 351.094424 
L 733.327611 350.775003 
L 753.722471 350.476876 
L 774.117331 349.923213 
L 794.51219 349.177896 
L 814.90705 348.432579 
L 835.30191 347.453021 
L 855.69677 346.217925 
L 876.09163 345.614573 
L 896.486489 344.776979 
L 916.881349 343.520589 
L 937.276209 342.349377 
L 949.513125 342.044152 
" clip-path="url(#pfd693e2e59)" style="fill: none; stroke: #e4d354; stroke-linecap: square"/>
   </g>
   <g id="line2d_14">
    <path d="M 76.613125 353.188409 
L 80.692097 353.188409 
L 84.771069 353.188409 
L 88.850041 353.188409 
L 92.929013 353.188409 
L 97.007985 353.188409 
L 101.086957 353.188409 
L 105.165929 353.188409 
L 109.244901 353.188409 
L 121.481817 353.188409 
L 141.876676 353.188409 
L 162.271536 353.188409 
L 182.666396 353.188409 
L 203.061256 353.188409 
L 223.456116 353.188409 
L 243.850975 353.188409 
L 264.245835 353.188409 
L 284.640695 353.188409 
L 305.035555 353.188409 
L 325.430415 353.152917 
L 345.825275 353.152917 
L 366.220134 353.10323 
L 386.614994 353.046444 
L 407.009854 353.039345 
L 427.404714 353.010952 
L 447.799574 353.003854 
L 468.194433 352.932872 
L 488.589293 352.883184 
L 508.984153 352.840594 
L 529.379013 352.805103 
L 549.773873 352.798005 
L 570.168732 352.798005 
L 590.563592 352.77671 
L 610.958452 352.734121 
L 631.353312 352.61345 
L 651.748172 352.350815 
L 672.143032 352.003001 
L 692.537891 351.768758 
L 712.932751 351.612597 
L 733.327611 351.002147 
L 753.722471 350.491073 
L 774.117331 349.632184 
L 794.51219 349.220486 
L 814.90705 348.893966 
L 835.30191 348.020881 
L 855.69677 347.474315 
L 876.09163 347.105206 
L 896.486489 346.409577 
L 916.881349 345.288054 
L 933.197237 344.785852 
" clip-path="url(#pfd693e2e59)" style="fill: none; stroke: #2b908f; stroke-linecap: square"/>
   </g>
   <g id="line2d_15">
    <path d="M 76.613125 353.2239 
L 80.692097 353.185785 
L 84.771069 353.185785 
L 88.850041 353.185785 
L 92.929013 353.185785 
L 97.007985 353.185785 
L 101.086957 353.185785 
L 105.165929 353.185785 
L 109.244901 353.185785 
L 121.481817 353.185785 
L 141.876676 353.185785 
L 162.271536 353.185785 
L 182.666396 353.185785 
L 203.061256 353.185785 
L 223.456116 353.185785 
L 243.850975 353.185785 
L 264.245835 353.147671 
L 284.640695 353.147671 
L 305.035555 353.132425 
L 325.430415 353.071441 
L 345.825275 352.987589 
L 366.220134 352.949474 
L 386.614994 352.91136 
L 407.009854 352.797015 
L 427.404714 352.354885 
L 447.799574 352.194803 
L 468.194433 352.088082 
L 488.589293 352.080459 
L 508.984153 352.072836 
L 529.379013 352.042345 
L 549.773873 351.996607 
L 570.168732 351.912755 
L 590.563592 351.87464 
L 610.958452 351.836525 
L 631.353312 351.760296 
L 651.748172 351.684066 
L 672.143032 351.508739 
L 692.537891 351.249559 
L 712.932751 351.005625 
L 733.327611 350.822674 
L 753.722471 350.44915 
L 774.117331 349.793578 
L 794.51219 348.634891 
L 814.90705 347.643909 
L 835.30191 347.087435 
L 855.69677 346.21842 
L 876.09163 345.616208 
L 896.486489 344.678586 
L 916.881349 343.009163 
L 937.276209 341.44646 
L 949.513125 340.989084 
" clip-path="url(#pfd693e2e59)" style="fill: none; stroke: #f45b5b; stroke-linecap: square"/>
   </g>
   <g id="line2d_16">
    <path d="M 76.613125 353.2239 
L 80.692097 353.2239 
L 84.771069 353.2239 
L 88.850041 353.2239 
L 92.929013 353.2239 
L 97.007985 353.2239 
L 101.086957 353.2239 
L 105.165929 353.2239 
L 109.244901 353.2239 
L 121.481817 353.2239 
L 141.876676 353.2239 
L 162.271536 353.2239 
L 182.666396 353.2239 
L 203.061256 353.2239 
L 223.456116 353.2239 
L 243.850975 353.2239 
L 264.245835 353.193408 
L 284.640695 353.185785 
L 305.035555 353.155294 
L 325.430415 353.147671 
L 345.825275 353.147671 
L 366.220134 353.147671 
L 386.614994 353.140048 
L 407.009854 353.109556 
L 427.404714 353.086687 
L 447.799574 353.033327 
L 468.194433 352.972343 
L 488.589293 352.934228 
L 508.984153 352.880868 
L 529.379013 352.880868 
L 549.773873 352.842753 
L 570.168732 352.827507 
L 590.563592 352.804638 
L 610.958452 352.789393 
L 631.353312 352.736032 
L 651.748172 352.553081 
L 672.143032 352.400623 
L 692.537891 352.286279 
L 712.932751 352.011853 
L 733.327611 351.531608 
L 753.722471 350.860789 
L 774.117331 350.304315 
L 794.51219 350.167102 
L 814.90705 349.785955 
L 835.30191 348.9703 
L 855.69677 348.352842 
L 876.09163 347.872597 
L 896.486489 347.201779 
L 916.881349 346.050715 
L 933.197237 345.448503 
" clip-path="url(#pfd693e2e59)" style="fill: none; stroke: #91e8e1; stroke-linecap: square"/>
   </g>
   <g id="line2d_17">
    <path d="M 76.613125 353.2239 
L 80.692097 353.2239 
L 84.771069 353.2239 
L 88.850041 353.2239 
L 92.929013 353.2239 
L 97.007985 353.2239 
L 101.086957 353.2239 
L 105.165929 353.2239 
L 109.244901 353.2239 
L 121.481817 353.2239 
L 141.876676 353.2239 
L 162.271536 353.2239 
L 182.666396 353.195667 
L 203.061256 353.188609 
L 223.456116 353.188609 
L 243.850975 353.188609 
L 264.245835 353.188609 
L 284.640695 353.174493 
L 305.035555 353.132144 
L 325.430415 353.03333 
L 345.825275 352.983923 
L 366.220134 352.976865 
L 386.614994 352.976865 
L 407.009854 352.906283 
L 427.404714 352.758062 
L 447.799574 352.68748 
L 468.194433 352.602783 
L 488.589293 352.539259 
L 508.984153 352.426329 
L 529.379013 352.376922 
L 549.773873 352.341631 
L 570.168732 352.341631 
L 590.563592 352.313398 
L 610.958452 352.278108 
L 631.353312 352.151061 
L 651.748172 352.03813 
L 672.143032 351.720514 
L 692.537891 351.226443 
L 712.932751 350.767663 
L 733.327611 350.330058 
L 753.722471 349.97715 
L 774.117331 349.144288 
L 794.51219 347.775006 
L 814.90705 346.822156 
L 835.30191 345.671677 
L 855.69677 344.288279 
L 876.09163 343.031928 
L 896.486489 341.761461 
L 916.881349 340.053388 
L 937.276209 338.182977 
L 949.513125 336.813696 
" clip-path="url(#pfd693e2e59)" style="fill: none; stroke: #7cb5ec; stroke-linecap: square"/>
   </g>
   <g id="line2d_18">
    <path d="M 76.613125 353.2239 
L 80.692097 353.2239 
L 84.771069 353.2239 
L 88.850041 353.2239 
L 92.929013 353.2239 
L 97.007985 353.2239 
L 101.086957 353.2239 
L 105.165929 353.2239 
L 109.244901 353.2239 
L 121.481817 353.2239 
L 141.876676 353.2239 
L 162.271536 353.2239 
L 182.666396 353.2239 
L 203.061256 353.2239 
L 223.456116 353.2239 
L 243.850975 353.2239 
L 264.245835 353.2239 
L 284.640695 353.2239 
L 305.035555 353.216842 
L 325.430415 353.188609 
L 345.825275 353.188609 
L 366.220134 353.125086 
L 386.614994 353.075679 
L 407.009854 353.047446 
L 427.404714 353.047446 
L 447.799574 353.047446 
L 468.194433 353.047446 
L 488.589293 353.019214 
L 508.984153 352.998039 
L 529.379013 352.941574 
L 549.773873 352.941574 
L 570.168732 352.906283 
L 590.563592 352.870992 
L 610.958452 352.751004 
L 631.353312 352.659248 
L 651.748172 352.560434 
L 672.143032 352.398096 
L 692.537891 352.151061 
L 712.932751 351.868735 
L 733.327611 351.395839 
L 753.722471 350.73943 
L 774.117331 349.927743 
L 794.51219 349.525428 
L 814.90705 349.066648 
L 835.30191 348.579636 
L 855.69677 348.198496 
L 876.09163 347.577378 
L 896.486489 346.751574 
L 916.881349 345.834014 
L 933.197237 345.415819 
" clip-path="url(#pfd693e2e59)" style="fill: none; stroke: #434348; stroke-linecap: square"/>
   </g>
   <g id="line2d_19">
    <path d="M 76.613125 353.2239 
L 80.692097 353.2239 
L 84.771069 353.2239 
L 88.850041 353.2239 
L 92.929013 353.2239 
L 97.007985 353.2239 
L 101.086957 353.2239 
L 105.165929 353.2239 
L 109.244901 353.2239 
L 121.481817 353.2239 
L 141.876676 353.2239 
L 162.271536 353.2239 
L 182.666396 353.2239 
L 203.061256 353.2239 
L 223.456116 353.2239 
L 243.850975 353.2239 
L 264.245835 353.2239 
L 284.640695 353.167146 
L 305.035555 353.131675 
L 325.430415 353.046545 
L 345.825275 353.046545 
L 366.220134 353.046545 
L 386.614994 353.03945 
L 407.009854 352.961414 
L 427.404714 352.670551 
L 447.799574 352.571232 
L 468.194433 352.54995 
L 488.589293 352.429348 
L 508.984153 352.202333 
L 529.379013 352.088826 
L 549.773873 352.003695 
L 570.168732 351.954036 
L 590.563592 351.91147 
L 610.958452 351.840528 
L 631.353312 351.648984 
L 651.748172 351.521289 
L 672.143032 351.358122 
L 692.537891 350.989223 
L 712.932751 350.591947 
L 733.327611 350.315272 
L 753.722471 349.981844 
L 774.117331 349.350459 
L 794.51219 347.924522 
L 814.90705 346.67594 
L 835.30191 345.363511 
L 855.69677 344.093646 
L 876.09163 343.015326 
L 896.486489 341.532635 
L 916.881349 340.170546 
L 937.276209 337.694665 
L 949.513125 336.002695 
" clip-path="url(#pfd693e2e59)" style="fill: none; stroke: #90ed7d; stroke-linecap: square"/>
   </g>
   <g id="line2d_20">
    <path d="M 76.613125 353.2239 
L 80.692097 353.2239 
L 84.771069 353.2239 
L 88.850041 353.2239 
L 92.929013 353.2239 
L 97.007985 353.2239 
L 101.086957 353.2239 
L 105.165929 353.2239 
L 109.244901 353.2239 
L 121.481817 353.2239 
L 141.876676 353.2239 
L 162.271536 353.2239 
L 182.666396 353.2239 
L 203.061256 353.2239 
L 223.456116 353.2239 
L 243.850975 353.2239 
L 264.245835 353.2239 
L 284.640695 353.2239 
L 305.035555 353.2239 
L 325.430415 353.2239 
L 345.825275 353.2239 
L 366.220134 353.2239 
L 386.614994 353.096204 
L 407.009854 353.082016 
L 427.404714 353.082016 
L 447.799574 353.082016 
L 468.194433 353.082016 
L 488.589293 353.060733 
L 508.984153 353.011074 
L 529.379013 353.011074 
L 549.773873 353.011074 
L 570.168732 352.982697 
L 590.563592 352.890472 
L 610.958452 352.855001 
L 631.353312 352.68474 
L 651.748172 352.471913 
L 672.143032 352.294558 
L 692.537891 351.939847 
L 712.932751 351.549665 
L 733.327611 350.953751 
L 753.722471 350.506816 
L 774.117331 350.052786 
L 794.51219 349.818677 
L 814.90705 349.641322 
L 835.30191 349.109256 
L 855.69677 348.690697 
L 876.09163 348.421117 
L 896.486489 347.839391 
L 916.881349 346.775259 
L 933.197237 346.236099 
" clip-path="url(#pfd693e2e59)" style="fill: none; stroke: #f7a35c; stroke-linecap: square"/>
   </g>
   <g id="line2d_21">
    <path d="M 76.613125 353.2239 
L 80.692097 353.2239 
L 84.771069 353.2239 
L 88.850041 353.2239 
L 92.929013 353.2239 
L 97.007985 353.2239 
L 101.086957 353.2239 
L 105.165929 353.2239 
L 109.244901 353.2239 
L 121.481817 353.217023 
L 141.876676 353.182638 
L 162.271536 353.155129 
L 182.666396 353.155129 
L 203.061256 353.155129 
L 223.456116 353.155129 
L 243.850975 353.148252 
L 264.245835 353.113867 
L 284.640695 353.086359 
L 305.035555 353.079482 
L 325.430415 353.051973 
L 345.825275 353.051973 
L 366.220134 353.051973 
L 386.614994 353.051973 
L 407.009854 353.010711 
L 427.404714 352.783768 
L 447.799574 352.673735 
L 468.194433 352.646226 
L 488.589293 352.598087 
L 508.984153 352.549948 
L 529.379013 352.467423 
L 549.773873 352.398652 
L 570.168732 352.350513 
L 590.563592 352.274865 
L 610.958452 352.212971 
L 631.353312 352.047922 
L 651.748172 351.807225 
L 672.143032 351.428986 
L 692.537891 350.961345 
L 712.932751 350.603738 
L 733.327611 350.314901 
L 753.722471 349.991679 
L 774.117331 349.37962 
L 794.51219 348.189888 
L 814.90705 347.261484 
L 835.30191 346.518761 
L 855.69677 345.432185 
L 876.09163 344.476273 
L 896.486489 343.080228 
L 916.881349 341.443487 
L 937.276209 339.710466 
L 949.513125 338.678906 
" clip-path="url(#pfd693e2e59)" style="fill: none; stroke: #8085e9; stroke-linecap: square"/>
   </g>
   <g id="line2d_22">
    <path d="M 76.613125 353.2239 
L 80.692097 353.2239 
L 84.771069 353.2239 
L 88.850041 353.2239 
L 92.929013 353.2239 
L 97.007985 353.2239 
L 101.086957 353.2239 
L 105.165929 353.2239 
L 109.244901 353.2239 
L 121.481817 353.2239 
L 141.876676 353.2239 
L 162.271536 353.2239 
L 182.666396 353.2239 
L 203.061256 353.2239 
L 223.456116 353.2239 
L 243.850975 353.2239 
L 264.245835 353.2239 
L 284.640695 353.2239 
L 305.035555 353.2239 
L 325.430415 353.189515 
L 345.825275 353.189515 
L 366.220134 353.189515 
L 386.614994 353.189515 
L 407.009854 353.189515 
L 427.404714 353.175761 
L 447.799574 353.127621 
L 468.194433 353.10699 
L 488.589293 353.086359 
L 508.984153 353.024465 
L 529.379013 353.017588 
L 549.773873 353.010711 
L 570.168732 352.976326 
L 590.563592 352.866293 
L 610.958452 352.735628 
L 631.353312 352.604964 
L 651.748172 352.543071 
L 672.143032 352.398652 
L 692.537891 351.944766 
L 712.932751 351.704069 
L 733.327611 351.291445 
L 753.722471 350.968223 
L 774.117331 350.356164 
L 794.51219 349.964171 
L 814.90705 349.613441 
L 835.30191 348.994505 
L 855.69677 348.485602 
L 876.09163 348.127994 
L 896.486489 347.701616 
L 916.881349 347.137697 
L 933.197237 346.621917 
" clip-path="url(#pfd693e2e59)" style="fill: none; stroke: #f15c80; stroke-linecap: square"/>
   </g>
   <g id="line2d_23">
    <path d="M 76.613125 353.2239 
L 80.692097 353.2239 
L 84.771069 353.2239 
L 88.850041 353.2239 
L 92.929013 353.2239 
L 97.007985 353.2239 
L 101.086957 353.2239 
L 105.165929 353.2239 
L 109.244901 353.2239 
L 121.481817 353.2239 
L 141.876676 353.2239 
L 162.271536 353.2239 
L 182.666396 353.2239 
L 203.061256 353.2239 
L 223.456116 353.2239 
L 243.850975 353.215992 
L 264.245835 353.184361 
L 284.640695 353.168545 
L 305.035555 353.144821 
L 325.430415 353.121098 
L 345.825275 353.07365 
L 366.220134 353.065742 
L 386.614994 353.049927 
L 407.009854 352.970848 
L 427.404714 352.733611 
L 447.799574 352.646625 
L 468.194433 352.575454 
L 488.589293 352.417296 
L 508.984153 352.227507 
L 529.379013 352.195875 
L 549.773873 352.187968 
L 570.168732 352.14052 
L 590.563592 352.069349 
L 610.958452 352.006086 
L 631.353312 351.934915 
L 651.748172 351.784666 
L 672.143032 351.539521 
L 692.537891 351.136219 
L 712.932751 350.83572 
L 733.327611 350.645931 
L 753.722471 350.57476 
L 774.117331 349.617906 
L 794.51219 348.368461 
L 814.90705 347.546041 
L 835.30191 346.525925 
L 855.69677 345.023427 
L 876.09163 343.829337 
L 896.486489 343.117628 
L 916.881349 341.35417 
L 937.276209 338.515241 
L 949.513125 336.795277 
" clip-path="url(#pfd693e2e59)" style="fill: none; stroke: #e4d354; stroke-linecap: square"/>
   </g>
   <g id="line2d_24">
    <path d="M 76.613125 353.2239 
L 80.692097 353.2239 
L 84.771069 353.2239 
L 88.850041 353.2239 
L 92.929013 353.2239 
L 97.007985 353.2239 
L 101.086957 353.2239 
L 105.165929 353.2239 
L 109.244901 353.2239 
L 121.481817 353.2239 
L 141.876676 353.2239 
L 162.271536 353.2239 
L 182.666396 353.2239 
L 203.061256 353.2239 
L 223.456116 353.2239 
L 243.850975 353.2239 
L 264.245835 353.2239 
L 284.640695 353.2239 
L 305.035555 353.215992 
L 325.430415 353.184361 
L 345.825275 353.184361 
L 366.220134 353.152729 
L 386.614994 353.136913 
L 407.009854 353.105282 
L 427.404714 353.105282 
L 447.799574 353.07365 
L 468.194433 353.026203 
L 488.589293 353.026203 
L 508.984153 353.026203 
L 529.379013 353.002479 
L 549.773873 352.907585 
L 570.168732 352.907585 
L 590.563592 352.907585 
L 610.958452 352.836414 
L 631.353312 352.694072 
L 651.748172 352.543822 
L 672.143032 352.393572 
L 692.537891 352.235415 
L 712.932751 351.934915 
L 733.327611 351.579061 
L 753.722471 350.914799 
L 774.117331 350.369155 
L 794.51219 350.203089 
L 814.90705 349.704893 
L 835.30191 349.072262 
L 855.69677 348.850842 
L 876.09163 348.384277 
L 896.486489 347.680475 
L 916.881349 346.699898 
L 933.197237 346.23531 
" clip-path="url(#pfd693e2e59)" style="fill: none; stroke: #2b908f; stroke-linecap: square"/>
   </g>
   <g id="line2d_25">
    <path d="M 76.613125 353.2239 
L 80.692097 353.2239 
L 84.771069 353.2239 
L 88.850041 353.2239 
L 92.929013 353.2239 
L 97.007985 353.2239 
L 101.086957 353.2239 
L 105.165929 353.2239 
L 109.244901 353.2239 
L 121.481817 353.2239 
L 141.876676 353.2239 
L 162.271536 353.2239 
L 182.666396 353.2239 
L 203.061256 353.2239 
L 223.456116 353.216208 
L 243.850975 353.185441 
L 264.245835 353.185441 
L 284.640695 353.185441 
L 305.035555 353.146982 
L 325.430415 353.108523 
L 345.825275 353.108523 
L 366.220134 353.100831 
L 386.614994 353.070064 
L 407.009854 353.046988 
L 427.404714 352.931611 
L 447.799574 352.831618 
L 468.194433 352.731624 
L 488.589293 352.708549 
L 508.984153 352.685473 
L 529.379013 352.670089 
L 549.773873 352.647014 
L 570.168732 352.63163 
L 590.563592 352.570096 
L 610.958452 352.462411 
L 631.353312 352.362417 
L 651.748172 352.254732 
L 672.143032 352.047053 
L 692.537891 351.539393 
L 712.932751 351.070192 
L 733.327611 350.76252 
L 753.722471 350.454847 
L 774.117331 349.724125 
L 794.51219 348.493435 
L 814.90705 347.885782 
L 835.30191 347.001224 
L 855.69677 345.762842 
L 876.09163 344.809057 
L 896.486489 343.393763 
L 916.881349 341.686181 
L 937.276209 340.201661 
L 949.513125 339.128653 
" clip-path="url(#pfd693e2e59)" style="fill: none; stroke: #f45b5b; stroke-linecap: square"/>
   </g>
   <g id="line2d_26">
    <path d="M 32.968125 353.2239 
L 993.158125 353.2239 
" clip-path="url(#pfd693e2e59)" style="fill: none; stroke: #dedede; stroke-width: 2; stroke-linecap: square"/>
   </g>
   <g id="text_14">
    <!-- FastQC: Adapter Content -->
    <g transform="translate(413.765625 19.3575) scale(0.16 -0.16)">
     <defs>
      <path id="DejaVuSans-46" d="M 628 4666 
L 3309 4666 
L 3309 4134 
L 1259 4134 
L 1259 2759 
L 3109 2759 
L 3109 2228 
L 1259 2228 
L 1259 0 
L 628 0 
L 628 4666 
z
" transform="scale(0.015625)"/>
      <path id="DejaVuSans-61" d="M 2194 1759 
Q 1497 1759 1228 1600 
Q 959 1441 959 1056 
Q 959 750 1161 570 
Q 1363 391 1709 391 
Q 2188 391 2477 730 
Q 2766 1069 2766 1631 
L 2766 1759 
L 2194 1759 
z
M 3341 1997 
L 3341 0 
L 2766 0 
L 2766 531 
Q 2569 213 2275 61 
Q 1981 -91 1556 -91 
Q 1019 -91 701 211 
Q 384 513 384 1019 
Q 384 1609 779 1909 
Q 1175 2209 1959 2209 
L 2766 2209 
L 2766 2266 
Q 2766 2663 2505 2880 
Q 2244 3097 1772 3097 
Q 1472 3097 1187 3025 
Q 903 2953 641 2809 
L 641 3341 
Q 956 3463 1253 3523 
Q 1550 3584 1831 3584 
Q 2591 3584 2966 3190 
Q 3341 2797 3341 1997 
z
" transform="scale(0.015625)"/>
      <path id="DejaVuSans-51" d="M 2522 4238 
Q 1834 4238 1429 3725 
Q 1025 3213 1025 2328 
Q 1025 1447 1429 934 
Q 1834 422 2522 422 
Q 3209 422 3611 934 
Q 4013 1447 4013 2328 
Q 4013 3213 3611 3725 
Q 3209 4238 2522 4238 
z
M 3406 84 
L 4238 -825 
L 3475 -825 
L 2784 -78 
Q 2681 -84 2626 -87 
Q 2572 -91 2522 -91 
Q 1538 -91 948 567 
Q 359 1225 359 2328 
Q 359 3434 948 4092 
Q 1538 4750 2522 4750 
Q 3503 4750 4090 4092 
Q 4678 3434 4678 2328 
Q 4678 1516 4351 937 
Q 4025 359 3406 84 
z
" transform="scale(0.015625)"/>
      <path id="DejaVuSans-43" d="M 4122 4306 
L 4122 3641 
Q 3803 3938 3442 4084 
Q 3081 4231 2675 4231 
Q 1875 4231 1450 3742 
Q 1025 3253 1025 2328 
Q 1025 1406 1450 917 
Q 1875 428 2675 428 
Q 3081 428 3442 575 
Q 3803 722 4122 1019 
L 4122 359 
Q 3791 134 3420 21 
Q 3050 -91 2638 -91 
Q 1578 -91 968 557 
Q 359 1206 359 2328 
Q 359 3453 968 4101 
Q 1578 4750 2638 4750 
Q 3056 4750 3426 4639 
Q 3797 4528 4122 4306 
z
" transform="scale(0.015625)"/>
      <path id="DejaVuSans-3a" d="M 750 794 
L 1409 794 
L 1409 0 
L 750 0 
L 750 794 
z
M 750 3309 
L 1409 3309 
L 1409 2516 
L 750 2516 
L 750 3309 
z
" transform="scale(0.015625)"/>
      <path id="DejaVuSans-41" d="M 2188 4044 
L 1331 1722 
L 3047 1722 
L 2188 4044 
z
M 1831 4666 
L 2547 4666 
L 4325 0 
L 3669 0 
L 3244 1197 
L 1141 1197 
L 716 0 
L 50 0 
L 1831 4666 
z
" transform="scale(0.015625)"/>
      <path id="DejaVuSans-64" d="M 2906 2969 
L 2906 4863 
L 3481 4863 
L 3481 0 
L 2906 0 
L 2906 525 
Q 2725 213 2448 61 
Q 2172 -91 1784 -91 
Q 1150 -91 751 415 
Q 353 922 353 1747 
Q 353 2572 751 3078 
Q 1150 3584 1784 3584 
Q 2172 3584 2448 3432 
Q 2725 3281 2906 2969 
z
M 947 1747 
Q 947 1113 1208 752 
Q 1469 391 1925 391 
Q 2381 391 2643 752 
Q 2906 1113 2906 1747 
Q 2906 2381 2643 2742 
Q 2381 3103 1925 3103 
Q 1469 3103 1208 2742 
Q 947 2381 947 1747 
z
" transform="scale(0.015625)"/>
      <path id="DejaVuSans-72" d="M 2631 2963 
Q 2534 3019 2420 3045 
Q 2306 3072 2169 3072 
Q 1681 3072 1420 2755 
Q 1159 2438 1159 1844 
L 1159 0 
L 581 0 
L 581 3500 
L 1159 3500 
L 1159 2956 
Q 1341 3275 1631 3429 
Q 1922 3584 2338 3584 
Q 2397 3584 2469 3576 
Q 2541 3569 2628 3553 
L 2631 2963 
z
" transform="scale(0.015625)"/>
     </defs>
     <use xlink:href="#DejaVuSans-46"/>
     <use xlink:href="#DejaVuSans-61" x="48.394531"/>
     <use xlink:href="#DejaVuSans-73" x="109.673828"/>
     <use xlink:href="#DejaVuSans-74" x="161.773438"/>
     <use xlink:href="#DejaVuSans-51" x="200.982422"/>
     <use xlink:href="#DejaVuSans-43" x="279.693359"/>
     <use xlink:href="#DejaVuSans-3a" x="349.517578"/>
     <use xlink:href="#DejaVuSans-20" x="383.208984"/>
     <use xlink:href="#DejaVuSans-41" x="414.996094"/>
     <use xlink:href="#DejaVuSans-64" x="481.654297"/>
     <use xlink:href="#DejaVuSans-61" x="545.130859"/>
     <use xlink:href="#DejaVuSans-70" x="606.410156"/>
     <use xlink:href="#DejaVuSans-74" x="669.886719"/>
     <use xlink:href="#DejaVuSans-65" x="709.095703"/>
     <use xlink:href="#DejaVuSans-72" x="770.619141"/>
     <use xlink:href="#DejaVuSans-20" x="811.732422"/>
     <use xlink:href="#DejaVuSans-43" x="843.519531"/>
     <use xlink:href="#DejaVuSans-6f" x="913.34375"/>
     <use xlink:href="#DejaVuSans-6e" x="974.525391"/>
     <use xlink:href="#DejaVuSans-74" x="1037.904297"/>
     <use xlink:href="#DejaVuSans-65" x="1077.113281"/>
     <use xlink:href="#DejaVuSans-6e" x="1138.636719"/>
     <use xlink:href="#DejaVuSans-74" x="1202.015625"/>
    </g>
   </g>
  </g>
 </g>
 <defs>
  <clipPath id="pfd693e2e59">
   <rect x="32.968125" y="35.2559" width="960.19" height="317.968"/>
  </clipPath>
 </defs>
</svg>
