<?xml version="1.0" encoding="utf-8" standalone="no"?>
<!DOCTYPE svg PUBLIC "-//W3C//DTD SVG 1.1//EN"
  "http://www.w3.org/Graphics/SVG/1.1/DTD/svg11.dtd">
<svg xmlns:xlink="http://www.w3.org/1999/xlink" width="1000.258125pt" height="388.844525pt" viewBox="0 0 1000.258125 388.844525" xmlns="http://www.w3.org/2000/svg" version="1.1">
 <metadata>
  <rdf:RDF xmlns:dc="http://purl.org/dc/elements/1.1/" xmlns:cc="http://creativecommons.org/ns#" xmlns:rdf="http://www.w3.org/1999/02/22-rdf-syntax-ns#">
   <cc:Work>
    <dc:type rdf:resource="http://purl.org/dc/dcmitype/StillImage"/>
    <dc:date>2024-04-03T14:11:14.018073</dc:date>
    <dc:format>image/svg+xml</dc:format>
    <dc:creator>
     <cc:Agent>
      <dc:title>Matplotlib v3.8.1, https://matplotlib.org/</dc:title>
     </cc:Agent>
    </dc:creator>
   </cc:Work>
  </rdf:RDF>
 </metadata>
 <defs>
  <style type="text/css">*{stroke-linejoin: round; stroke-linecap: butt}</style>
 </defs>
 <g id="figure_1">
  <g id="axes_1">
   <g id="patch_1">
    <path d="M 38.058125 353.2239 
L 985.423125 353.2239 
L 985.423125 35.2559 
L 38.058125 35.2559 
z
" style="fill: #ffffff"/>
   </g>
   <g id="matplotlib.axis_1">
    <g id="xtick_1">
     <g id="text_1">
      <!-- 0 -->
      <g transform="translate(35.513125 366.30265) scale(0.08 -0.08)">
       <defs>
        <path id="DejaVuSans-30" d="M 2034 4250 
Q 1547 4250 1301 3770 
Q 1056 3291 1056 2328 
Q 1056 1369 1301 889 
Q 1547 409 2034 409 
Q 2525 409 2770 889 
Q 3016 1369 3016 2328 
Q 3016 3291 2770 3770 
Q 2525 4250 2034 4250 
z
M 2034 4750 
Q 2819 4750 3233 4129 
Q 3647 3509 3647 2328 
Q 3647 1150 3233 529 
Q 2819 -91 2034 -91 
Q 1250 -91 836 529 
Q 422 1150 422 2328 
Q 422 3509 836 4129 
Q 1250 4750 2034 4750 
z
" transform="scale(0.015625)"/>
       </defs>
       <use xlink:href="#DejaVuSans-30"/>
      </g>
     </g>
    </g>
    <g id="xtick_2">
     <g id="text_2">
      <!-- 20 -->
      <g transform="translate(222.441125 366.30265) scale(0.08 -0.08)">
       <defs>
        <path id="DejaVuSans-32" d="M 1228 531 
L 3431 531 
L 3431 0 
L 469 0 
L 469 531 
Q 828 903 1448 1529 
Q 2069 2156 2228 2338 
Q 2531 2678 2651 2914 
Q 2772 3150 2772 3378 
Q 2772 3750 2511 3984 
Q 2250 4219 1831 4219 
Q 1534 4219 1204 4116 
Q 875 4013 500 3803 
L 500 4441 
Q 881 4594 1212 4672 
Q 1544 4750 1819 4750 
Q 2544 4750 2975 4387 
Q 3406 4025 3406 3419 
Q 3406 3131 3298 2873 
Q 3191 2616 2906 2266 
Q 2828 2175 2409 1742 
Q 1991 1309 1228 531 
z
" transform="scale(0.015625)"/>
       </defs>
       <use xlink:href="#DejaVuSans-32"/>
       <use xlink:href="#DejaVuSans-30" x="63.623047"/>
      </g>
     </g>
    </g>
    <g id="xtick_3">
     <g id="text_3">
      <!-- 40 -->
      <g transform="translate(411.914125 366.30265) scale(0.08 -0.08)">
       <defs>
        <path id="DejaVuSans-34" d="M 2419 4116 
L 825 1625 
L 2419 1625 
L 2419 4116 
z
M 2253 4666 
L 3047 4666 
L 3047 1625 
L 3713 1625 
L 3713 1100 
L 3047 1100 
L 3047 0 
L 2419 0 
L 2419 1100 
L 313 1100 
L 313 1709 
L 2253 4666 
z
" transform="scale(0.015625)"/>
       </defs>
       <use xlink:href="#DejaVuSans-34"/>
       <use xlink:href="#DejaVuSans-30" x="63.623047"/>
      </g>
     </g>
    </g>
    <g id="xtick_4">
     <g id="text_4">
      <!-- 60 -->
      <g transform="translate(601.387125 366.30265) scale(0.08 -0.08)">
       <defs>
        <path id="DejaVuSans-36" d="M 2113 2584 
Q 1688 2584 1439 2293 
Q 1191 2003 1191 1497 
Q 1191 994 1439 701 
Q 1688 409 2113 409 
Q 2538 409 2786 701 
Q 3034 994 3034 1497 
Q 3034 2003 2786 2293 
Q 2538 2584 2113 2584 
z
M 3366 4563 
L 3366 3988 
Q 3128 4100 2886 4159 
Q 2644 4219 2406 4219 
Q 1781 4219 1451 3797 
Q 1122 3375 1075 2522 
Q 1259 2794 1537 2939 
Q 1816 3084 2150 3084 
Q 2853 3084 3261 2657 
Q 3669 2231 3669 1497 
Q 3669 778 3244 343 
Q 2819 -91 2113 -91 
Q 1303 -91 875 529 
Q 447 1150 447 2328 
Q 447 3434 972 4092 
Q 1497 4750 2381 4750 
Q 2619 4750 2861 4703 
Q 3103 4656 3366 4563 
z
" transform="scale(0.015625)"/>
       </defs>
       <use xlink:href="#DejaVuSans-36"/>
       <use xlink:href="#DejaVuSans-30" x="63.623047"/>
      </g>
     </g>
    </g>
    <g id="xtick_5">
     <g id="text_5">
      <!-- 80 -->
      <g transform="translate(790.860125 366.30265) scale(0.08 -0.08)">
       <defs>
        <path id="DejaVuSans-38" d="M 2034 2216 
Q 1584 2216 1326 1975 
Q 1069 1734 1069 1313 
Q 1069 891 1326 650 
Q 1584 409 2034 409 
Q 2484 409 2743 651 
Q 3003 894 3003 1313 
Q 3003 1734 2745 1975 
Q 2488 2216 2034 2216 
z
M 1403 2484 
Q 997 2584 770 2862 
Q 544 3141 544 3541 
Q 544 4100 942 4425 
Q 1341 4750 2034 4750 
Q 2731 4750 3128 4425 
Q 3525 4100 3525 3541 
Q 3525 3141 3298 2862 
Q 3072 2584 2669 2484 
Q 3125 2378 3379 2068 
Q 3634 1759 3634 1313 
Q 3634 634 3220 271 
Q 2806 -91 2034 -91 
Q 1263 -91 848 271 
Q 434 634 434 1313 
Q 434 1759 690 2068 
Q 947 2378 1403 2484 
z
M 1172 3481 
Q 1172 3119 1398 2916 
Q 1625 2713 2034 2713 
Q 2441 2713 2670 2916 
Q 2900 3119 2900 3481 
Q 2900 3844 2670 4047 
Q 2441 4250 2034 4250 
Q 1625 4250 1398 4047 
Q 1172 3844 1172 3481 
z
" transform="scale(0.015625)"/>
       </defs>
       <use xlink:href="#DejaVuSans-38"/>
       <use xlink:href="#DejaVuSans-30" x="63.623047"/>
      </g>
     </g>
    </g>
    <g id="xtick_6">
     <g id="text_6">
      <!-- 100 -->
      <g transform="translate(977.788125 366.30265) scale(0.08 -0.08)">
       <defs>
        <path id="DejaVuSans-31" d="M 794 531 
L 1825 531 
L 1825 4091 
L 703 3866 
L 703 4441 
L 1819 4666 
L 2450 4666 
L 2450 531 
L 3481 531 
L 3481 0 
L 794 0 
L 794 531 
z
" transform="scale(0.015625)"/>
       </defs>
       <use xlink:href="#DejaVuSans-31"/>
       <use xlink:href="#DejaVuSans-30" x="63.623047"/>
       <use xlink:href="#DejaVuSans-30" x="127.246094"/>
      </g>
     </g>
    </g>
    <g id="text_7">
     <!-- % GC -->
     <g transform="translate(498.035156 379.564837) scale(0.1 -0.1)">
      <defs>
       <path id="DejaVuSans-25" d="M 4653 2053 
Q 4381 2053 4226 1822 
Q 4072 1591 4072 1178 
Q 4072 772 4226 539 
Q 4381 306 4653 306 
Q 4919 306 5073 539 
Q 5228 772 5228 1178 
Q 5228 1588 5073 1820 
Q 4919 2053 4653 2053 
z
M 4653 2450 
Q 5147 2450 5437 2106 
Q 5728 1763 5728 1178 
Q 5728 594 5436 251 
Q 5144 -91 4653 -91 
Q 4153 -91 3862 251 
Q 3572 594 3572 1178 
Q 3572 1766 3864 2108 
Q 4156 2450 4653 2450 
z
M 1428 4353 
Q 1159 4353 1004 4120 
Q 850 3888 850 3481 
Q 850 3069 1003 2837 
Q 1156 2606 1428 2606 
Q 1700 2606 1854 2837 
Q 2009 3069 2009 3481 
Q 2009 3884 1853 4118 
Q 1697 4353 1428 4353 
z
M 4250 4750 
L 4750 4750 
L 1831 -91 
L 1331 -91 
L 4250 4750 
z
M 1428 4750 
Q 1922 4750 2215 4408 
Q 2509 4066 2509 3481 
Q 2509 2891 2217 2550 
Q 1925 2209 1428 2209 
Q 931 2209 642 2551 
Q 353 2894 353 3481 
Q 353 4063 643 4406 
Q 934 4750 1428 4750 
z
" transform="scale(0.015625)"/>
       <path id="DejaVuSans-20" transform="scale(0.015625)"/>
       <path id="DejaVuSans-47" d="M 3809 666 
L 3809 1919 
L 2778 1919 
L 2778 2438 
L 4434 2438 
L 4434 434 
Q 4069 175 3628 42 
Q 3188 -91 2688 -91 
Q 1594 -91 976 548 
Q 359 1188 359 2328 
Q 359 3472 976 4111 
Q 1594 4750 2688 4750 
Q 3144 4750 3555 4637 
Q 3966 4525 4313 4306 
L 4313 3634 
Q 3963 3931 3569 4081 
Q 3175 4231 2741 4231 
Q 1884 4231 1454 3753 
Q 1025 3275 1025 2328 
Q 1025 1384 1454 906 
Q 1884 428 2741 428 
Q 3075 428 3337 486 
Q 3600 544 3809 666 
z
" transform="scale(0.015625)"/>
       <path id="DejaVuSans-43" d="M 4122 4306 
L 4122 3641 
Q 3803 3938 3442 4084 
Q 3081 4231 2675 4231 
Q 1875 4231 1450 3742 
Q 1025 3253 1025 2328 
Q 1025 1406 1450 917 
Q 1875 428 2675 428 
Q 3081 428 3442 575 
Q 3803 722 4122 1019 
L 4122 359 
Q 3791 134 3420 21 
Q 3050 -91 2638 -91 
Q 1578 -91 968 557 
Q 359 1206 359 2328 
Q 359 3453 968 4101 
Q 1578 4750 2638 4750 
Q 3056 4750 3426 4639 
Q 3797 4528 4122 4306 
z
" transform="scale(0.015625)"/>
      </defs>
      <use xlink:href="#DejaVuSans-25"/>
      <use xlink:href="#DejaVuSans-20" x="95.019531"/>
      <use xlink:href="#DejaVuSans-47" x="126.806641"/>
      <use xlink:href="#DejaVuSans-43" x="204.296875"/>
     </g>
    </g>
   </g>
   <g id="matplotlib.axis_2">
    <g id="ytick_1">
     <g id="line2d_1">
      <path d="M 38.058125 353.2239 
L 985.423125 353.2239 
" clip-path="url(#pa630a6d9a4)" style="fill: none; stroke: #dedede; stroke-linecap: square"/>
     </g>
     <g id="text_8">
      <!-- 0 -->
      <g transform="translate(25.968125 356.263275) scale(0.08 -0.08)">
       <use xlink:href="#DejaVuSans-30"/>
      </g>
     </g>
    </g>
    <g id="ytick_2">
     <g id="line2d_2">
      <path d="M 38.058125 292.547634 
L 985.423125 292.547634 
" clip-path="url(#pa630a6d9a4)" style="fill: none; stroke: #dedede; stroke-linecap: square"/>
     </g>
     <g id="text_9">
      <!-- 10 -->
      <g transform="translate(20.878125 295.587009) scale(0.08 -0.08)">
       <use xlink:href="#DejaVuSans-31"/>
       <use xlink:href="#DejaVuSans-30" x="63.623047"/>
      </g>
     </g>
    </g>
    <g id="ytick_3">
     <g id="line2d_3">
      <path d="M 38.058125 231.871369 
L 985.423125 231.871369 
" clip-path="url(#pa630a6d9a4)" style="fill: none; stroke: #dedede; stroke-linecap: square"/>
     </g>
     <g id="text_10">
      <!-- 20 -->
      <g transform="translate(20.878125 234.910744) scale(0.08 -0.08)">
       <use xlink:href="#DejaVuSans-32"/>
       <use xlink:href="#DejaVuSans-30" x="63.623047"/>
      </g>
     </g>
    </g>
    <g id="ytick_4">
     <g id="line2d_4">
      <path d="M 38.058125 171.195103 
L 985.423125 171.195103 
" clip-path="url(#pa630a6d9a4)" style="fill: none; stroke: #dedede; stroke-linecap: square"/>
     </g>
     <g id="text_11">
      <!-- 30 -->
      <g transform="translate(20.878125 174.234478) scale(0.08 -0.08)">
       <defs>
        <path id="DejaVuSans-33" d="M 2597 2516 
Q 3050 2419 3304 2112 
Q 3559 1806 3559 1356 
Q 3559 666 3084 287 
Q 2609 -91 1734 -91 
Q 1441 -91 1130 -33 
Q 819 25 488 141 
L 488 750 
Q 750 597 1062 519 
Q 1375 441 1716 441 
Q 2309 441 2620 675 
Q 2931 909 2931 1356 
Q 2931 1769 2642 2001 
Q 2353 2234 1838 2234 
L 1294 2234 
L 1294 2753 
L 1863 2753 
Q 2328 2753 2575 2939 
Q 2822 3125 2822 3475 
Q 2822 3834 2567 4026 
Q 2313 4219 1838 4219 
Q 1578 4219 1281 4162 
Q 984 4106 628 3988 
L 628 4550 
Q 988 4650 1302 4700 
Q 1616 4750 1894 4750 
Q 2613 4750 3031 4423 
Q 3450 4097 3450 3541 
Q 3450 3153 3228 2886 
Q 3006 2619 2597 2516 
z
" transform="scale(0.015625)"/>
       </defs>
       <use xlink:href="#DejaVuSans-33"/>
       <use xlink:href="#DejaVuSans-30" x="63.623047"/>
      </g>
     </g>
    </g>
    <g id="ytick_5">
     <g id="line2d_5">
      <path d="M 38.058125 110.518838 
L 985.423125 110.518838 
" clip-path="url(#pa630a6d9a4)" style="fill: none; stroke: #dedede; stroke-linecap: square"/>
     </g>
     <g id="text_12">
      <!-- 40 -->
      <g transform="translate(20.878125 113.558213) scale(0.08 -0.08)">
       <use xlink:href="#DejaVuSans-34"/>
       <use xlink:href="#DejaVuSans-30" x="63.623047"/>
      </g>
     </g>
    </g>
    <g id="ytick_6">
     <g id="line2d_6">
      <path d="M 38.058125 49.842572 
L 985.423125 49.842572 
" clip-path="url(#pa630a6d9a4)" style="fill: none; stroke: #dedede; stroke-linecap: square"/>
     </g>
     <g id="text_13">
      <!-- 50 -->
      <g transform="translate(20.878125 52.881947) scale(0.08 -0.08)">
       <defs>
        <path id="DejaVuSans-35" d="M 691 4666 
L 3169 4666 
L 3169 4134 
L 1269 4134 
L 1269 2991 
Q 1406 3038 1543 3061 
Q 1681 3084 1819 3084 
Q 2600 3084 3056 2656 
Q 3513 2228 3513 1497 
Q 3513 744 3044 326 
Q 2575 -91 1722 -91 
Q 1428 -91 1123 -41 
Q 819 9 494 109 
L 494 744 
Q 775 591 1075 516 
Q 1375 441 1709 441 
Q 2250 441 2565 725 
Q 2881 1009 2881 1497 
Q 2881 1984 2565 2268 
Q 2250 2553 1709 2553 
Q 1456 2553 1204 2497 
Q 953 2441 691 2322 
L 691 4666 
z
" transform="scale(0.015625)"/>
       </defs>
       <use xlink:href="#DejaVuSans-35"/>
       <use xlink:href="#DejaVuSans-30" x="63.623047"/>
      </g>
     </g>
    </g>
    <g id="text_14">
     <!-- Percentage -->
     <g transform="translate(14.798438 222.362556) rotate(-90) scale(0.1 -0.1)">
      <defs>
       <path id="DejaVuSans-50" d="M 1259 4147 
L 1259 2394 
L 2053 2394 
Q 2494 2394 2734 2622 
Q 2975 2850 2975 3272 
Q 2975 3691 2734 3919 
Q 2494 4147 2053 4147 
L 1259 4147 
z
M 628 4666 
L 2053 4666 
Q 2838 4666 3239 4311 
Q 3641 3956 3641 3272 
Q 3641 2581 3239 2228 
Q 2838 1875 2053 1875 
L 1259 1875 
L 1259 0 
L 628 0 
L 628 4666 
z
" transform="scale(0.015625)"/>
       <path id="DejaVuSans-65" d="M 3597 1894 
L 3597 1613 
L 953 1613 
Q 991 1019 1311 708 
Q 1631 397 2203 397 
Q 2534 397 2845 478 
Q 3156 559 3463 722 
L 3463 178 
Q 3153 47 2828 -22 
Q 2503 -91 2169 -91 
Q 1331 -91 842 396 
Q 353 884 353 1716 
Q 353 2575 817 3079 
Q 1281 3584 2069 3584 
Q 2775 3584 3186 3129 
Q 3597 2675 3597 1894 
z
M 3022 2063 
Q 3016 2534 2758 2815 
Q 2500 3097 2075 3097 
Q 1594 3097 1305 2825 
Q 1016 2553 972 2059 
L 3022 2063 
z
" transform="scale(0.015625)"/>
       <path id="DejaVuSans-72" d="M 2631 2963 
Q 2534 3019 2420 3045 
Q 2306 3072 2169 3072 
Q 1681 3072 1420 2755 
Q 1159 2438 1159 1844 
L 1159 0 
L 581 0 
L 581 3500 
L 1159 3500 
L 1159 2956 
Q 1341 3275 1631 3429 
Q 1922 3584 2338 3584 
Q 2397 3584 2469 3576 
Q 2541 3569 2628 3553 
L 2631 2963 
z
" transform="scale(0.015625)"/>
       <path id="DejaVuSans-63" d="M 3122 3366 
L 3122 2828 
Q 2878 2963 2633 3030 
Q 2388 3097 2138 3097 
Q 1578 3097 1268 2742 
Q 959 2388 959 1747 
Q 959 1106 1268 751 
Q 1578 397 2138 397 
Q 2388 397 2633 464 
Q 2878 531 3122 666 
L 3122 134 
Q 2881 22 2623 -34 
Q 2366 -91 2075 -91 
Q 1284 -91 818 406 
Q 353 903 353 1747 
Q 353 2603 823 3093 
Q 1294 3584 2113 3584 
Q 2378 3584 2631 3529 
Q 2884 3475 3122 3366 
z
" transform="scale(0.015625)"/>
       <path id="DejaVuSans-6e" d="M 3513 2113 
L 3513 0 
L 2938 0 
L 2938 2094 
Q 2938 2591 2744 2837 
Q 2550 3084 2163 3084 
Q 1697 3084 1428 2787 
Q 1159 2491 1159 1978 
L 1159 0 
L 581 0 
L 581 3500 
L 1159 3500 
L 1159 2956 
Q 1366 3272 1645 3428 
Q 1925 3584 2291 3584 
Q 2894 3584 3203 3211 
Q 3513 2838 3513 2113 
z
" transform="scale(0.015625)"/>
       <path id="DejaVuSans-74" d="M 1172 4494 
L 1172 3500 
L 2356 3500 
L 2356 3053 
L 1172 3053 
L 1172 1153 
Q 1172 725 1289 603 
Q 1406 481 1766 481 
L 2356 481 
L 2356 0 
L 1766 0 
Q 1100 0 847 248 
Q 594 497 594 1153 
L 594 3053 
L 172 3053 
L 172 3500 
L 594 3500 
L 594 4494 
L 1172 4494 
z
" transform="scale(0.015625)"/>
       <path id="DejaVuSans-61" d="M 2194 1759 
Q 1497 1759 1228 1600 
Q 959 1441 959 1056 
Q 959 750 1161 570 
Q 1363 391 1709 391 
Q 2188 391 2477 730 
Q 2766 1069 2766 1631 
L 2766 1759 
L 2194 1759 
z
M 3341 1997 
L 3341 0 
L 2766 0 
L 2766 531 
Q 2569 213 2275 61 
Q 1981 -91 1556 -91 
Q 1019 -91 701 211 
Q 384 513 384 1019 
Q 384 1609 779 1909 
Q 1175 2209 1959 2209 
L 2766 2209 
L 2766 2266 
Q 2766 2663 2505 2880 
Q 2244 3097 1772 3097 
Q 1472 3097 1187 3025 
Q 903 2953 641 2809 
L 641 3341 
Q 956 3463 1253 3523 
Q 1550 3584 1831 3584 
Q 2591 3584 2966 3190 
Q 3341 2797 3341 1997 
z
" transform="scale(0.015625)"/>
       <path id="DejaVuSans-67" d="M 2906 1791 
Q 2906 2416 2648 2759 
Q 2391 3103 1925 3103 
Q 1463 3103 1205 2759 
Q 947 2416 947 1791 
Q 947 1169 1205 825 
Q 1463 481 1925 481 
Q 2391 481 2648 825 
Q 2906 1169 2906 1791 
z
M 3481 434 
Q 3481 -459 3084 -895 
Q 2688 -1331 1869 -1331 
Q 1566 -1331 1297 -1286 
Q 1028 -1241 775 -1147 
L 775 -588 
Q 1028 -725 1275 -790 
Q 1522 -856 1778 -856 
Q 2344 -856 2625 -561 
Q 2906 -266 2906 331 
L 2906 616 
Q 2728 306 2450 153 
Q 2172 0 1784 0 
Q 1141 0 747 490 
Q 353 981 353 1791 
Q 353 2603 747 3093 
Q 1141 3584 1784 3584 
Q 2172 3584 2450 3431 
Q 2728 3278 2906 2969 
L 2906 3500 
L 3481 3500 
L 3481 434 
z
" transform="scale(0.015625)"/>
      </defs>
      <use xlink:href="#DejaVuSans-50"/>
      <use xlink:href="#DejaVuSans-65" x="56.677734"/>
      <use xlink:href="#DejaVuSans-72" x="118.201172"/>
      <use xlink:href="#DejaVuSans-63" x="157.064453"/>
      <use xlink:href="#DejaVuSans-65" x="212.044922"/>
      <use xlink:href="#DejaVuSans-6e" x="273.568359"/>
      <use xlink:href="#DejaVuSans-74" x="336.947266"/>
      <use xlink:href="#DejaVuSans-61" x="376.15625"/>
      <use xlink:href="#DejaVuSans-67" x="437.435547"/>
      <use xlink:href="#DejaVuSans-65" x="500.912109"/>
     </g>
    </g>
   </g>
   <g id="line2d_7">
    <path d="M 38.058125 353.2239 
L 47.531775 353.2239 
L 57.005425 353.2239 
L 66.479075 353.2239 
L 75.952725 353.2239 
L 85.426375 353.2239 
L 94.900025 353.2239 
L 104.373675 353.2239 
L 113.847325 353.2239 
L 123.320975 353.221443 
L 132.794625 353.221443 
L 142.268275 353.2239 
L 151.741925 353.2239 
L 161.215575 353.221443 
L 170.689225 353.221443 
L 180.162875 353.2239 
L 189.636525 353.2239 
L 199.110175 353.2239 
L 208.583825 353.2239 
L 218.057475 353.2239 
L 227.531125 353.2239 
L 237.004775 353.2239 
L 246.478425 353.221443 
L 255.952075 353.221443 
L 265.425725 353.221443 
L 274.899375 353.2239 
L 284.373025 353.2239 
L 293.846675 353.2239 
L 303.320325 353.221443 
L 312.793975 353.221443 
L 322.267625 353.2239 
L 331.741275 353.218985 
L 341.214925 353.221443 
L 350.688575 353.218985 
L 360.162225 353.216528 
L 369.635875 353.21407 
L 379.109525 353.206698 
L 388.583175 353.199326 
L 398.056825 353.199326 
L 407.530475 353.174752 
L 417.004125 353.155093 
L 426.477775 353.128062 
L 435.951425 353.098573 
L 445.425075 353.019936 
L 454.898725 352.857748 
L 464.372375 352.113158 
L 473.846025 342.617785 
L 483.319675 343.08469 
L 492.793325 345.782909 
L 502.266975 341.821589 
L 511.740625 332.83244 
L 521.214275 321.921608 
L 530.687925 311.92247 
L 540.161575 208.161444 
L 549.635225 100.090147 
L 559.108875 319.869684 
L 568.582525 340.460193 
L 578.056175 346.161348 
L 587.529825 347.466225 
L 597.003475 346.930513 
L 606.477125 348.682635 
L 615.950775 351.769122 
L 625.424425 352.599722 
L 634.898075 352.843004 
L 644.371725 352.973246 
L 653.845375 353.051882 
L 663.319025 353.069084 
L 672.792675 353.120689 
L 682.266325 353.132976 
L 691.739975 353.130519 
L 701.213625 353.145263 
L 710.687275 353.17721 
L 720.160925 353.162465 
L 729.634575 353.179667 
L 739.108225 353.169837 
L 748.581875 353.164923 
L 758.055525 353.182124 
L 767.529175 353.201783 
L 777.002825 353.201783 
L 786.476475 353.17721 
L 795.950125 353.194411 
L 805.423775 353.184582 
L 814.897425 353.182124 
L 824.371075 353.199326 
L 833.844725 353.204241 
L 843.318375 353.206698 
L 852.792025 353.206698 
L 862.265675 353.211613 
L 871.739325 353.206698 
L 881.212975 353.206698 
L 890.686625 353.204241 
L 900.160275 353.218985 
L 909.633925 353.218985 
L 919.107575 353.221443 
L 928.581225 353.221443 
L 938.054875 353.2239 
L 947.528525 353.2239 
L 957.002175 353.2239 
L 966.475825 353.2239 
L 975.949475 353.2239 
L 985.423125 353.2239 
" clip-path="url(#pa630a6d9a4)" style="fill: none; stroke: #d9534f; stroke-linecap: square"/>
   </g>
   <g id="line2d_8">
    <path d="M 38.058125 353.2239 
L 47.531775 353.2239 
L 57.005425 353.2239 
L 66.479075 353.2239 
L 75.952725 353.2239 
L 85.426375 353.2239 
L 94.900025 353.221765 
L 104.373675 353.221765 
L 113.847325 353.2239 
L 123.320975 353.2239 
L 132.794625 353.2239 
L 142.268275 353.2239 
L 151.741925 353.221765 
L 161.215575 353.2239 
L 170.689225 353.2239 
L 180.162875 353.2239 
L 189.636525 353.2239 
L 199.110175 353.2239 
L 208.583825 353.2239 
L 218.057475 353.2239 
L 227.531125 353.219629 
L 237.004775 353.221765 
L 246.478425 353.2239 
L 255.952075 353.2239 
L 265.425725 353.2239 
L 274.899375 353.2239 
L 284.373025 353.221765 
L 293.846675 353.2239 
L 303.320325 353.221765 
L 312.793975 353.221765 
L 322.267625 353.2239 
L 331.741275 353.221765 
L 341.214925 353.2239 
L 350.688575 353.219629 
L 360.162225 353.215358 
L 369.635875 353.219629 
L 379.109525 353.219629 
L 388.583175 353.217494 
L 398.056825 353.208952 
L 407.530475 353.204681 
L 417.004125 353.168378 
L 426.477775 353.164108 
L 435.951425 353.018897 
L 445.425075 351.808101 
L 454.898725 351.483514 
L 464.372375 343.956077 
L 473.846025 348.278214 
L 483.319675 345.890789 
L 492.793325 338.86091 
L 502.266975 342.025637 
L 511.740625 340.398429 
L 521.214275 338.858775 
L 530.687925 330.212366 
L 540.161575 325.223971 
L 549.635225 333.556469 
L 559.108875 337.357558 
L 568.582525 325.403348 
L 578.056175 151.984017 
L 587.529825 162.945246 
L 597.003475 342.486892 
L 606.477125 349.758076 
L 615.950775 350.951789 
L 625.424425 351.413044 
L 634.898075 352.5491 
L 644.371725 352.435922 
L 653.845375 352.28644 
L 663.319025 352.160449 
L 672.792675 352.976189 
L 682.266325 353.010356 
L 691.739975 353.089367 
L 701.213625 353.134211 
L 710.687275 353.136347 
L 720.160925 353.142753 
L 729.634575 353.168378 
L 739.108225 353.17692 
L 748.581875 353.172649 
L 758.055525 353.187597 
L 767.529175 353.196139 
L 777.002825 353.185462 
L 786.476475 353.187597 
L 795.950125 353.208952 
L 805.423775 353.202546 
L 814.897425 353.198275 
L 824.371075 353.211087 
L 833.844725 353.213223 
L 843.318375 353.213223 
L 852.792025 353.221765 
L 862.265675 353.219629 
L 871.739325 353.213223 
L 881.212975 353.217494 
L 890.686625 353.221765 
L 900.160275 353.2239 
L 909.633925 353.221765 
L 919.107575 353.2239 
L 928.581225 353.2239 
L 938.054875 353.2239 
L 947.528525 353.2239 
L 957.002175 353.2239 
L 966.475825 353.2239 
L 975.949475 353.2239 
L 985.423125 353.2239 
" clip-path="url(#pa630a6d9a4)" style="fill: none; stroke: #d9534f; stroke-linecap: square"/>
   </g>
   <g id="line2d_9">
    <path d="M 38.058125 353.2239 
L 47.531775 353.2239 
L 57.005425 353.2239 
L 66.479075 353.2239 
L 75.952725 353.2239 
L 85.426375 353.2239 
L 94.900025 353.22132 
L 104.373675 353.22132 
L 113.847325 353.2239 
L 123.320975 353.2239 
L 132.794625 353.2239 
L 142.268275 353.2239 
L 151.741925 353.2239 
L 161.215575 353.2239 
L 170.689225 353.2239 
L 180.162875 353.22132 
L 189.636525 353.2239 
L 199.110175 353.2239 
L 208.583825 353.2239 
L 218.057475 353.2239 
L 227.531125 353.22132 
L 237.004775 353.22132 
L 246.478425 353.2239 
L 255.952075 353.2239 
L 265.425725 353.2239 
L 274.899375 353.2239 
L 284.373025 353.22132 
L 293.846675 353.2239 
L 303.320325 353.2239 
L 312.793975 353.2239 
L 322.267625 353.22132 
L 331.741275 353.21616 
L 341.214925 353.22132 
L 350.688575 353.22132 
L 360.162225 353.21358 
L 369.635875 353.21874 
L 379.109525 353.22132 
L 388.583175 353.21616 
L 398.056825 353.21358 
L 407.530475 353.174878 
L 417.004125 353.161978 
L 426.477775 353.118117 
L 435.951425 353.074255 
L 445.425075 352.960732 
L 454.898725 352.754325 
L 464.372375 351.546848 
L 473.846025 332.129163 
L 483.319675 334.097764 
L 492.793325 345.455278 
L 502.266975 341.34521 
L 511.740625 339.616556 
L 521.214275 328.782799 
L 530.687925 319.762838 
L 540.161575 209.794653 
L 549.635225 79.343211 
L 559.108875 324.863657 
L 568.582525 344.55483 
L 578.056175 346.636955 
L 587.529825 349.782073 
L 597.003475 350.99213 
L 606.477125 350.958589 
L 615.950775 352.24863 
L 625.424425 352.664023 
L 634.898075 352.849788 
L 644.371725 352.922031 
L 653.845375 353.051035 
L 663.319025 353.061355 
L 672.792675 353.115537 
L 682.266325 353.128437 
L 691.739975 353.161978 
L 701.213625 353.120697 
L 710.687275 353.115537 
L 720.160925 353.141337 
L 729.634575 353.151658 
L 739.108225 353.174878 
L 748.581875 353.180039 
L 758.055525 353.180039 
L 767.529175 353.151658 
L 777.002825 353.180039 
L 786.476475 353.198099 
L 795.950125 353.198099 
L 805.423775 353.203259 
L 814.897425 353.198099 
L 824.371075 353.203259 
L 833.844725 353.211 
L 843.318375 353.205839 
L 852.792025 353.200679 
L 862.265675 353.20842 
L 871.739325 353.20842 
L 881.212975 353.21358 
L 890.686625 353.21874 
L 900.160275 353.21358 
L 909.633925 353.21616 
L 919.107575 353.21874 
L 928.581225 353.2239 
L 938.054875 353.22132 
L 947.528525 353.2239 
L 957.002175 353.2239 
L 966.475825 353.2239 
L 975.949475 353.2239 
L 985.423125 353.2239 
" clip-path="url(#pa630a6d9a4)" style="fill: none; stroke: #d9534f; stroke-linecap: square"/>
   </g>
   <g id="line2d_10">
    <path d="M 38.058125 353.2239 
L 47.531775 353.2239 
L 57.005425 353.2239 
L 66.479075 353.2239 
L 75.952725 353.2239 
L 85.426375 353.2239 
L 94.900025 353.2239 
L 104.373675 353.221716 
L 113.847325 353.221716 
L 123.320975 353.2239 
L 132.794625 353.2239 
L 142.268275 353.2239 
L 151.741925 353.2239 
L 161.215575 353.2239 
L 170.689225 353.2239 
L 180.162875 353.2239 
L 189.636525 353.2239 
L 199.110175 353.2239 
L 208.583825 353.2239 
L 218.057475 353.2239 
L 227.531125 353.2239 
L 237.004775 353.2239 
L 246.478425 353.2239 
L 255.952075 353.221716 
L 265.425725 353.221716 
L 274.899375 353.2239 
L 284.373025 353.2239 
L 293.846675 353.221716 
L 303.320325 353.221716 
L 312.793975 353.2239 
L 322.267625 353.2239 
L 331.741275 353.2239 
L 341.214925 353.219533 
L 350.688575 353.2239 
L 360.162225 353.221716 
L 369.635875 353.217349 
L 379.109525 353.208615 
L 388.583175 353.206431 
L 398.056825 353.210798 
L 407.530475 353.204248 
L 417.004125 353.191146 
L 426.477775 353.164943 
L 435.951425 353.134373 
L 445.425075 352.933483 
L 454.898725 351.950868 
L 464.372375 336.565298 
L 473.846025 348.970268 
L 483.319675 344.531032 
L 492.793325 338.270681 
L 502.266975 348.444023 
L 511.740625 338.663727 
L 521.214275 342.692449 
L 530.687925 339.8516 
L 540.161575 338.054506 
L 549.635225 339.633241 
L 559.108875 342.786344 
L 568.582525 333.429664 
L 578.056175 129.20512 
L 587.529825 136.600937 
L 597.003475 345.474342 
L 606.477125 350.295707 
L 615.950775 351.811118 
L 625.424425 352.245652 
L 634.898075 352.621229 
L 644.371725 351.570923 
L 653.845375 352.732592 
L 663.319025 352.82212 
L 672.792675 353.009908 
L 682.266325 353.055764 
L 691.739975 353.08415 
L 701.213625 353.123455 
L 710.687275 353.136556 
L 720.160925 353.16276 
L 729.634575 353.167127 
L 739.108225 353.164943 
L 748.581875 353.171494 
L 758.055525 353.167127 
L 767.529175 353.180228 
L 777.002825 353.186779 
L 786.476475 353.186779 
L 795.950125 353.184595 
L 805.423775 353.191146 
L 814.897425 353.215166 
L 824.371075 353.208615 
L 833.844725 353.212982 
L 843.318375 353.215166 
L 852.792025 353.217349 
L 862.265675 353.217349 
L 871.739325 353.212982 
L 881.212975 353.212982 
L 890.686625 353.217349 
L 900.160275 353.221716 
L 909.633925 353.2239 
L 919.107575 353.2239 
L 928.581225 353.2239 
L 938.054875 353.2239 
L 947.528525 353.2239 
L 957.002175 353.2239 
L 966.475825 353.2239 
L 975.949475 353.2239 
L 985.423125 353.2239 
" clip-path="url(#pa630a6d9a4)" style="fill: none; stroke: #d9534f; stroke-linecap: square"/>
   </g>
   <g id="line2d_11">
    <path d="M 38.058125 353.2239 
L 47.531775 353.2239 
L 57.005425 353.2239 
L 66.479075 353.2239 
L 75.952725 353.2239 
L 85.426375 353.2239 
L 94.900025 353.2239 
L 104.373675 353.2239 
L 113.847325 353.2239 
L 123.320975 353.2239 
L 132.794625 353.221272 
L 142.268275 353.221272 
L 151.741925 353.2239 
L 161.215575 353.221272 
L 170.689225 353.2239 
L 180.162875 353.2239 
L 189.636525 353.2239 
L 199.110175 353.2239 
L 208.583825 353.2239 
L 218.057475 353.2239 
L 227.531125 353.2239 
L 237.004775 353.2239 
L 246.478425 353.2239 
L 255.952075 353.2239 
L 265.425725 353.2239 
L 274.899375 353.2239 
L 284.373025 353.221272 
L 293.846675 353.221272 
L 303.320325 353.221272 
L 312.793975 353.221272 
L 322.267625 353.2239 
L 331.741275 353.218645 
L 341.214925 353.210762 
L 350.688575 353.208134 
L 360.162225 353.210762 
L 369.635875 353.216017 
L 379.109525 353.205507 
L 388.583175 353.189741 
L 398.056825 353.17923 
L 407.530475 353.121423 
L 417.004125 353.142444 
L 426.477775 353.129306 
L 435.951425 353.024201 
L 445.425075 352.900702 
L 454.898725 352.606409 
L 464.372375 350.717148 
L 473.846025 330.455553 
L 483.319675 339.407862 
L 492.793325 343.851171 
L 502.266975 334.073789 
L 511.740625 330.368841 
L 521.214275 317.083583 
L 530.687925 309.713103 
L 540.161575 282.446266 
L 549.635225 80.114095 
L 559.108875 311.158295 
L 568.582525 334.607196 
L 578.056175 342.440138 
L 587.529825 347.737425 
L 597.003475 348.071133 
L 606.477125 348.399585 
L 615.950775 351.731411 
L 625.424425 352.643195 
L 634.898075 352.856033 
L 644.371725 352.974276 
L 653.845375 353.018945 
L 663.319025 353.05836 
L 672.792675 353.071498 
L 682.266325 353.118795 
L 691.739975 353.131933 
L 701.213625 353.147699 
L 710.687275 353.126678 
L 720.160925 353.134561 
L 729.634575 353.152954 
L 739.108225 353.150327 
L 748.581875 353.17923 
L 758.055525 353.176603 
L 767.529175 353.171348 
L 777.002825 353.189741 
L 786.476475 353.192369 
L 795.950125 353.194996 
L 805.423775 353.205507 
L 814.897425 353.200251 
L 824.371075 353.194996 
L 833.844725 353.205507 
L 843.318375 353.21339 
L 852.792025 353.210762 
L 862.265675 353.216017 
L 871.739325 353.210762 
L 881.212975 353.210762 
L 890.686625 353.216017 
L 900.160275 353.221272 
L 909.633925 353.218645 
L 919.107575 353.221272 
L 928.581225 353.218645 
L 938.054875 353.218645 
L 947.528525 353.221272 
L 957.002175 353.2239 
L 966.475825 353.2239 
L 975.949475 353.2239 
L 985.423125 353.2239 
" clip-path="url(#pa630a6d9a4)" style="fill: none; stroke: #d9534f; stroke-linecap: square"/>
   </g>
   <g id="line2d_12">
    <path d="M 38.058125 353.2239 
L 47.531775 353.2239 
L 57.005425 353.2239 
L 66.479075 353.2239 
L 75.952725 353.2239 
L 85.426375 353.2239 
L 94.900025 353.2239 
L 104.373675 353.2239 
L 113.847325 353.2239 
L 123.320975 353.2239 
L 132.794625 353.2239 
L 142.268275 353.2239 
L 151.741925 353.2239 
L 161.215575 353.2239 
L 170.689225 353.221277 
L 180.162875 353.2239 
L 189.636525 353.218655 
L 199.110175 353.218655 
L 208.583825 353.221277 
L 218.057475 353.221277 
L 227.531125 353.2239 
L 237.004775 353.2239 
L 246.478425 353.221277 
L 255.952075 353.221277 
L 265.425725 353.2239 
L 274.899375 353.2239 
L 284.373025 353.2239 
L 293.846675 353.2239 
L 303.320325 353.2239 
L 312.793975 353.221277 
L 322.267625 353.221277 
L 331.741275 353.221277 
L 341.214925 353.221277 
L 350.688575 353.21341 
L 360.162225 353.210787 
L 369.635875 353.21341 
L 379.109525 353.205542 
L 388.583175 353.210787 
L 398.056825 353.195052 
L 407.530475 353.176695 
L 417.004125 353.158337 
L 426.477775 353.103264 
L 435.951425 352.977383 
L 445.425075 351.676611 
L 454.898725 350.774464 
L 464.372375 331.394019 
L 473.846025 346.741023 
L 483.319675 344.96033 
L 492.793325 334.543669 
L 502.266975 338.731838 
L 511.740625 330.900984 
L 521.214275 330.164055 
L 530.687925 328.068659 
L 540.161575 324.368279 
L 549.635225 328.309932 
L 559.108875 333.882793 
L 568.582525 312.472515 
L 578.056175 95.477095 
L 587.529825 294.5161 
L 597.003475 336.109315 
L 606.477125 345.54253 
L 615.950775 351.298968 
L 625.424425 352.043765 
L 634.898075 352.510574 
L 644.371725 352.764958 
L 653.845375 352.809541 
L 663.319025 352.757091 
L 672.792675 352.96427 
L 682.266325 352.990495 
L 691.739975 353.071794 
L 701.213625 353.098019 
L 710.687275 353.108509 
L 720.160925 353.134734 
L 729.634575 353.139979 
L 739.108225 353.155714 
L 748.581875 353.17145 
L 758.055525 353.160959 
L 767.529175 353.160959 
L 777.002825 353.176695 
L 786.476475 353.187185 
L 795.950125 353.200297 
L 805.423775 353.19243 
L 814.897425 353.19243 
L 824.371075 353.197675 
L 833.844725 353.197675 
L 843.318375 353.205542 
L 852.792025 353.216032 
L 862.265675 353.218655 
L 871.739325 353.216032 
L 881.212975 353.221277 
L 890.686625 353.21341 
L 900.160275 353.216032 
L 909.633925 353.221277 
L 919.107575 353.2239 
L 928.581225 353.2239 
L 938.054875 353.221277 
L 947.528525 353.221277 
L 957.002175 353.221277 
L 966.475825 353.2239 
L 975.949475 353.2239 
L 985.423125 353.2239 
" clip-path="url(#pa630a6d9a4)" style="fill: none; stroke: #d9534f; stroke-linecap: square"/>
   </g>
   <g id="line2d_13">
    <path d="M 38.058125 353.2239 
L 47.531775 353.2239 
L 57.005425 353.2239 
L 66.479075 353.2239 
L 75.952725 353.2239 
L 85.426375 353.2239 
L 94.900025 353.2239 
L 104.373675 353.221613 
L 113.847325 353.221613 
L 123.320975 353.2239 
L 132.794625 353.2239 
L 142.268275 353.2239 
L 151.741925 353.2239 
L 161.215575 353.2239 
L 170.689225 353.2239 
L 180.162875 353.2239 
L 189.636525 353.2239 
L 199.110175 353.2239 
L 208.583825 353.2239 
L 218.057475 353.221613 
L 227.531125 353.2239 
L 237.004775 353.2239 
L 246.478425 353.2239 
L 255.952075 353.2239 
L 265.425725 353.2239 
L 274.899375 353.2239 
L 284.373025 353.2239 
L 293.846675 353.221613 
L 303.320325 353.221613 
L 312.793975 353.2239 
L 322.267625 353.2239 
L 331.741275 353.2239 
L 341.214925 353.219325 
L 350.688575 353.2239 
L 360.162225 353.221613 
L 369.635875 353.214751 
L 379.109525 353.214751 
L 388.583175 353.19874 
L 398.056825 353.207889 
L 407.530475 353.185017 
L 417.004125 353.17358 
L 426.477775 353.150708 
L 435.951425 353.091239 
L 445.425075 353.066079 
L 454.898725 352.960865 
L 464.372375 352.594903 
L 473.846025 347.174091 
L 483.319675 348.32001 
L 492.793325 349.616887 
L 502.266975 339.724478 
L 511.740625 344.305864 
L 521.214275 339.15495 
L 530.687925 322.757566 
L 540.161575 187.619248 
L 549.635225 50.397233 
L 559.108875 324.868709 
L 568.582525 345.385452 
L 578.056175 347.288454 
L 587.529825 349.587153 
L 597.003475 349.719814 
L 606.477125 350.479185 
L 615.950775 352.178621 
L 625.424425 352.757298 
L 634.898075 352.919694 
L 644.371725 353.038632 
L 653.845375 353.034057 
L 663.319025 353.040919 
L 672.792675 353.104962 
L 682.266325 353.125548 
L 691.739975 353.157569 
L 701.213625 353.14842 
L 710.687275 353.150708 
L 720.160925 353.159857 
L 729.634575 353.164431 
L 739.108225 353.175867 
L 748.581875 353.166718 
L 758.055525 353.169006 
L 767.529175 353.178155 
L 777.002825 353.189591 
L 786.476475 353.203315 
L 795.950125 353.201027 
L 805.423775 353.196453 
L 814.897425 353.194166 
L 824.371075 353.205602 
L 833.844725 353.214751 
L 843.318375 353.207889 
L 852.792025 353.214751 
L 862.265675 353.210176 
L 871.739325 353.210176 
L 881.212975 353.212464 
L 890.686625 353.210176 
L 900.160275 353.221613 
L 909.633925 353.2239 
L 919.107575 353.221613 
L 928.581225 353.2239 
L 938.054875 353.2239 
L 947.528525 353.2239 
L 957.002175 353.2239 
L 966.475825 353.2239 
L 975.949475 353.2239 
L 985.423125 353.2239 
" clip-path="url(#pa630a6d9a4)" style="fill: none; stroke: #d9534f; stroke-linecap: square"/>
   </g>
   <g id="line2d_14">
    <path d="M 38.058125 353.2239 
L 47.531775 353.2239 
L 57.005425 353.2239 
L 66.479075 353.2239 
L 75.952725 353.2239 
L 85.426375 353.2239 
L 94.900025 353.2239 
L 104.373675 353.2239 
L 113.847325 353.2239 
L 123.320975 353.2239 
L 132.794625 353.2239 
L 142.268275 353.2239 
L 151.741925 353.221992 
L 161.215575 353.221992 
L 170.689225 353.2239 
L 180.162875 353.2239 
L 189.636525 353.2239 
L 199.110175 353.2239 
L 208.583825 353.2239 
L 218.057475 353.2239 
L 227.531125 353.221992 
L 237.004775 353.221992 
L 246.478425 353.221992 
L 255.952075 353.2239 
L 265.425725 353.2239 
L 274.899375 353.2239 
L 284.373025 353.220084 
L 293.846675 353.220084 
L 303.320325 353.2239 
L 312.793975 353.2239 
L 322.267625 353.2239 
L 331.741275 353.2239 
L 341.214925 353.2239 
L 350.688575 353.2239 
L 360.162225 353.220084 
L 369.635875 353.216268 
L 379.109525 353.218176 
L 388.583175 353.218176 
L 398.056825 353.2239 
L 407.530475 353.21436 
L 417.004125 353.20482 
L 426.477775 353.201004 
L 435.951425 353.168567 
L 445.425075 353.008294 
L 454.898725 352.832756 
L 464.372375 348.056983 
L 473.846025 349.024349 
L 483.319675 347.99211 
L 492.793325 348.03027 
L 502.266975 350.216861 
L 511.740625 341.254893 
L 521.214275 339.955531 
L 530.687925 345.408651 
L 540.161575 343.340358 
L 549.635225 340.003232 
L 559.108875 342.392072 
L 568.582525 336.063171 
L 578.056175 112.244832 
L 587.529825 115.095414 
L 597.003475 343.544516 
L 606.477125 349.770384 
L 615.950775 351.649784 
L 625.424425 352.159225 
L 634.898075 352.622874 
L 644.371725 351.83677 
L 653.845375 352.754527 
L 663.319025 352.87664 
L 672.792675 352.98349 
L 682.266325 353.035006 
L 691.739975 353.086523 
L 701.213625 353.122775 
L 710.687275 353.124683 
L 720.160925 353.128499 
L 729.634575 353.159027 
L 739.108225 353.1762 
L 748.581875 353.164751 
L 758.055525 353.170475 
L 767.529175 353.187648 
L 777.002825 353.191464 
L 786.476475 353.193372 
L 795.950125 353.189556 
L 805.423775 353.193372 
L 814.897425 353.199096 
L 824.371075 353.202912 
L 833.844725 353.212452 
L 843.318375 353.21436 
L 852.792025 353.20482 
L 862.265675 353.208636 
L 871.739325 353.218176 
L 881.212975 353.221992 
L 890.686625 353.221992 
L 900.160275 353.220084 
L 909.633925 353.218176 
L 919.107575 353.2239 
L 928.581225 353.221992 
L 938.054875 353.2239 
L 947.528525 353.2239 
L 957.002175 353.2239 
L 966.475825 353.2239 
L 975.949475 353.2239 
L 985.423125 353.221038 
" clip-path="url(#pa630a6d9a4)" style="fill: none; stroke: #d9534f; stroke-linecap: square"/>
   </g>
   <g id="line2d_15">
    <path d="M 38.058125 353.2239 
L 47.531775 353.22143 
L 57.005425 353.2239 
L 66.479075 353.2239 
L 75.952725 353.2239 
L 85.426375 353.2239 
L 94.900025 353.2239 
L 104.373675 353.22143 
L 113.847325 353.2239 
L 123.320975 353.2239 
L 132.794625 353.2239 
L 142.268275 353.2239 
L 151.741925 353.2239 
L 161.215575 353.2239 
L 170.689225 353.2239 
L 180.162875 353.2239 
L 189.636525 353.2239 
L 199.110175 353.2239 
L 208.583825 353.2239 
L 218.057475 353.2239 
L 227.531125 353.2239 
L 237.004775 353.2239 
L 246.478425 353.2239 
L 255.952075 353.2239 
L 265.425725 353.2239 
L 274.899375 353.22143 
L 284.373025 353.22143 
L 293.846675 353.2239 
L 303.320325 353.2239 
L 312.793975 353.2239 
L 322.267625 353.218959 
L 331.741275 353.22143 
L 341.214925 353.216489 
L 350.688575 353.218959 
L 360.162225 353.22143 
L 369.635875 353.216489 
L 379.109525 353.211548 
L 388.583175 353.199196 
L 398.056825 353.201666 
L 407.530475 353.199196 
L 417.004125 353.169551 
L 426.477775 353.147318 
L 435.951425 353.080617 
L 445.425075 353.001564 
L 454.898725 352.855811 
L 464.372375 352.139396 
L 473.846025 342.228167 
L 483.319675 342.116999 
L 492.793325 347.475288 
L 502.266975 334.191968 
L 511.740625 337.685108 
L 521.214275 331.71416 
L 530.687925 313.060199 
L 540.161575 211.830774 
L 549.635225 92.313006 
L 559.108875 315.318141 
L 568.582525 337.401012 
L 578.056175 344.110608 
L 587.529825 348.720368 
L 597.003475 350.227309 
L 606.477125 349.629474 
L 615.950775 351.41557 
L 625.424425 352.719939 
L 634.898075 352.875574 
L 644.371725 353.001564 
L 653.845375 353.058383 
L 663.319025 353.09791 
L 672.792675 353.090499 
L 682.266325 353.080617 
L 691.739975 353.130025 
L 701.213625 353.137436 
L 710.687275 353.132495 
L 720.160925 353.15967 
L 729.634575 353.149788 
L 739.108225 353.174492 
L 748.581875 353.176962 
L 758.055525 353.179433 
L 767.529175 353.184374 
L 777.002825 353.179433 
L 786.476475 353.184374 
L 795.950125 353.201666 
L 805.423775 353.206607 
L 814.897425 353.199196 
L 824.371075 353.199196 
L 833.844725 353.191785 
L 843.318375 353.204137 
L 852.792025 353.196726 
L 862.265675 353.199196 
L 871.739325 353.218959 
L 881.212975 353.2239 
L 890.686625 353.218959 
L 900.160275 353.214018 
L 909.633925 353.216489 
L 919.107575 353.22143 
L 928.581225 353.2239 
L 938.054875 353.2239 
L 947.528525 353.2239 
L 957.002175 353.2239 
L 966.475825 353.2239 
L 975.949475 353.22143 
L 985.423125 353.220194 
" clip-path="url(#pa630a6d9a4)" style="fill: none; stroke: #d9534f; stroke-linecap: square"/>
   </g>
   <g id="line2d_16">
    <path d="M 38.058125 353.2239 
L 47.531775 353.2239 
L 57.005425 353.2239 
L 66.479075 353.2239 
L 75.952725 353.2239 
L 85.426375 353.2239 
L 94.900025 353.2239 
L 104.373675 353.2239 
L 113.847325 353.2239 
L 123.320975 353.2239 
L 132.794625 353.2239 
L 142.268275 353.2239 
L 151.741925 353.2239 
L 161.215575 353.2239 
L 170.689225 353.2239 
L 180.162875 353.2239 
L 189.636525 353.2239 
L 199.110175 353.2239 
L 208.583825 353.2239 
L 218.057475 353.2239 
L 227.531125 353.221763 
L 237.004775 353.221763 
L 246.478425 353.2239 
L 255.952075 353.2239 
L 265.425725 353.2239 
L 274.899375 353.221763 
L 284.373025 353.221763 
L 293.846675 353.221763 
L 303.320325 353.221763 
L 312.793975 353.2239 
L 322.267625 353.2239 
L 331.741275 353.2239 
L 341.214925 353.221763 
L 350.688575 353.221763 
L 360.162225 353.221763 
L 369.635875 353.219626 
L 379.109525 353.221763 
L 388.583175 353.213216 
L 398.056825 353.213216 
L 407.530475 353.215353 
L 417.004125 353.211079 
L 426.477775 353.185436 
L 435.951425 353.121331 
L 445.425075 352.911918 
L 454.898725 352.544377 
L 464.372375 343.714853 
L 473.846025 349.375407 
L 483.319675 347.730022 
L 492.793325 342.753264 
L 502.266975 346.928697 
L 511.740625 330.618011 
L 521.214275 329.068784 
L 530.687925 337.34486 
L 540.161575 339.629168 
L 549.635225 335.180217 
L 559.108875 340.558705 
L 568.582525 335.154574 
L 578.056175 140.035346 
L 587.529825 145.73009 
L 597.003475 341.383534 
L 606.477125 348.317659 
L 615.950775 351.168236 
L 625.424425 352.042214 
L 634.898075 352.548651 
L 644.371725 352.185384 
L 653.845375 352.740969 
L 663.319025 352.46745 
L 672.792675 352.956792 
L 682.266325 353.042267 
L 691.739975 353.110646 
L 701.213625 353.121331 
L 710.687275 353.146973 
L 720.160925 353.132015 
L 729.634575 353.151247 
L 739.108225 353.157657 
L 748.581875 353.176889 
L 758.055525 353.181163 
L 767.529175 353.179026 
L 777.002825 353.198258 
L 786.476475 353.193984 
L 795.950125 353.200394 
L 805.423775 353.200394 
L 814.897425 353.204668 
L 824.371075 353.213216 
L 833.844725 353.206805 
L 843.318375 353.211079 
L 852.792025 353.215353 
L 862.265675 353.215353 
L 871.739325 353.217489 
L 881.212975 353.217489 
L 890.686625 353.217489 
L 900.160275 353.221763 
L 909.633925 353.221763 
L 919.107575 353.221763 
L 928.581225 353.2239 
L 938.054875 353.2239 
L 947.528525 353.2239 
L 957.002175 353.2239 
L 966.475825 353.2239 
L 975.949475 353.2239 
L 985.423125 353.2239 
" clip-path="url(#pa630a6d9a4)" style="fill: none; stroke: #d9534f; stroke-linecap: square"/>
   </g>
   <g id="line2d_17">
    <path d="M 38.058125 353.2239 
L 47.531775 353.2239 
L 57.005425 353.2239 
L 66.479075 353.2239 
L 75.952725 353.2239 
L 85.426375 353.2239 
L 94.900025 353.2239 
L 104.373675 353.2239 
L 113.847325 353.221608 
L 123.320975 353.221608 
L 132.794625 353.2239 
L 142.268275 353.2239 
L 151.741925 353.2239 
L 161.215575 353.2239 
L 170.689225 353.2239 
L 180.162875 353.2239 
L 189.636525 353.2239 
L 199.110175 353.221608 
L 208.583825 353.221608 
L 218.057475 353.2239 
L 227.531125 353.2239 
L 237.004775 353.2239 
L 246.478425 353.221608 
L 255.952075 353.221608 
L 265.425725 353.217023 
L 274.899375 353.219315 
L 284.373025 353.2239 
L 293.846675 353.2239 
L 303.320325 353.2239 
L 312.793975 353.2239 
L 322.267625 353.217023 
L 331.741275 353.212438 
L 341.214925 353.205561 
L 350.688575 353.207853 
L 360.162225 353.210146 
L 369.635875 353.212438 
L 379.109525 353.178052 
L 388.583175 353.164297 
L 398.056825 353.14825 
L 407.530475 353.072601 
L 417.004125 353.029045 
L 426.477775 352.919009 
L 435.951425 352.770002 
L 445.425075 352.462819 
L 454.898725 351.733832 
L 464.372375 346.633214 
L 473.846025 271.283902 
L 483.319675 318.725382 
L 492.793325 339.336464 
L 502.266975 325.28856 
L 511.740625 332.670128 
L 521.214275 286.592634 
L 530.687925 251.688359 
L 540.161575 262.464991 
L 549.635225 265.986137 
L 559.108875 320.930683 
L 568.582525 340.808193 
L 578.056175 345.01477 
L 587.529825 348.155376 
L 597.003475 348.907287 
L 606.477125 348.139329 
L 615.950775 351.383093 
L 625.424425 352.657674 
L 634.898075 352.944226 
L 644.371725 353.031337 
L 653.845375 353.061139 
L 663.319025 353.068016 
L 672.792675 353.102402 
L 682.266325 353.134496 
L 691.739975 353.159712 
L 701.213625 353.139081 
L 710.687275 353.14825 
L 720.160925 353.173467 
L 729.634575 353.173467 
L 739.108225 353.16659 
L 748.581875 353.189514 
L 758.055525 353.180344 
L 767.529175 353.184929 
L 777.002825 353.173467 
L 786.476475 353.182637 
L 795.950125 353.207853 
L 805.423775 353.200976 
L 814.897425 353.187221 
L 824.371075 353.203268 
L 833.844725 353.207853 
L 843.318375 353.205561 
L 852.792025 353.219315 
L 862.265675 353.21473 
L 871.739325 353.217023 
L 881.212975 353.217023 
L 890.686625 353.219315 
L 900.160275 353.221608 
L 909.633925 353.2239 
L 919.107575 353.2239 
L 928.581225 353.2239 
L 938.054875 353.2239 
L 947.528525 353.2239 
L 957.002175 353.2239 
L 966.475825 353.2239 
L 975.949475 353.2239 
L 985.423125 353.2239 
" clip-path="url(#pa630a6d9a4)" style="fill: none; stroke: #d9534f; stroke-linecap: square"/>
   </g>
   <g id="line2d_18">
    <path d="M 38.058125 353.2239 
L 47.531775 353.2239 
L 57.005425 353.2239 
L 66.479075 353.2239 
L 75.952725 353.2239 
L 85.426375 353.2239 
L 94.900025 353.2239 
L 104.373675 353.2239 
L 113.847325 353.2239 
L 123.320975 353.2239 
L 132.794625 353.2239 
L 142.268275 353.2239 
L 151.741925 353.2239 
L 161.215575 353.2239 
L 170.689225 353.2239 
L 180.162875 353.2239 
L 189.636525 353.2239 
L 199.110175 353.2239 
L 208.583825 353.221484 
L 218.057475 353.221484 
L 227.531125 353.2239 
L 237.004775 353.2239 
L 246.478425 353.2239 
L 255.952075 353.221484 
L 265.425725 353.221484 
L 274.899375 353.221484 
L 284.373025 353.219069 
L 293.846675 353.219069 
L 303.320325 353.219069 
L 312.793975 353.219069 
L 322.267625 353.219069 
L 331.741275 353.219069 
L 341.214925 353.216653 
L 350.688575 353.219069 
L 360.162225 353.211822 
L 369.635875 353.214238 
L 379.109525 353.214238 
L 388.583175 353.211822 
L 398.056825 353.175588 
L 407.530475 353.136939 
L 417.004125 353.081381 
L 426.477775 353.008913 
L 435.951425 352.714212 
L 445.425075 351.808369 
L 454.898725 348.114945 
L 464.372375 270.222106 
L 473.846025 341.761966 
L 483.319675 342.481809 
L 492.793325 323.775547 
L 502.266975 338.839113 
L 511.740625 303.653753 
L 521.214275 313.231534 
L 530.687925 324.012274 
L 540.161575 320.843031 
L 549.635225 312.690443 
L 559.108875 324.232092 
L 568.582525 253.769581 
L 578.056175 281.406248 
L 587.529825 324.091988 
L 597.003475 338.324594 
L 606.477125 348.107699 
L 615.950775 351.054708 
L 625.424425 350.880786 
L 634.898075 352.318057 
L 644.371725 352.566862 
L 653.845375 352.57894 
L 663.319025 352.472654 
L 672.792675 352.907459 
L 682.266325 352.97268 
L 691.739975 353.088627 
L 701.213625 353.12003 
L 710.687275 353.110368 
L 720.160925 353.12003 
L 729.634575 353.168342 
L 739.108225 353.18042 
L 748.581875 353.178004 
L 758.055525 353.170757 
L 767.529175 353.182835 
L 777.002825 353.187666 
L 786.476475 353.190082 
L 795.950125 353.178004 
L 805.423775 353.199744 
L 814.897425 353.192497 
L 824.371075 353.192497 
L 833.844725 353.209407 
L 843.318375 353.20216 
L 852.792025 353.216653 
L 862.265675 353.219069 
L 871.739325 353.219069 
L 881.212975 353.2239 
L 890.686625 353.221484 
L 900.160275 353.221484 
L 909.633925 353.219069 
L 919.107575 353.2239 
L 928.581225 353.2239 
L 938.054875 353.2239 
L 947.528525 353.2239 
L 957.002175 353.2239 
L 966.475825 353.2239 
L 975.949475 353.2239 
L 985.423125 353.2239 
" clip-path="url(#pa630a6d9a4)" style="fill: none; stroke: #d9534f; stroke-linecap: square"/>
   </g>
   <g id="line2d_19">
    <path d="M 38.058125 353.2239 
L 47.531775 353.2239 
L 57.005425 353.2239 
L 66.479075 353.2239 
L 75.952725 353.2239 
L 85.426375 353.2239 
L 94.900025 353.221535 
L 104.373675 353.221535 
L 113.847325 353.2239 
L 123.320975 353.221535 
L 132.794625 353.2239 
L 142.268275 353.2239 
L 151.741925 353.2239 
L 161.215575 353.2239 
L 170.689225 353.2239 
L 180.162875 353.2239 
L 189.636525 353.2239 
L 199.110175 353.2239 
L 208.583825 353.2239 
L 218.057475 353.2239 
L 227.531125 353.221535 
L 237.004775 353.221535 
L 246.478425 353.2239 
L 255.952075 353.2239 
L 265.425725 353.2239 
L 274.899375 353.221535 
L 284.373025 353.2239 
L 293.846675 353.2239 
L 303.320325 353.2239 
L 312.793975 353.2239 
L 322.267625 353.2239 
L 331.741275 353.216805 
L 341.214925 353.21444 
L 350.688575 353.21444 
L 360.162225 353.216805 
L 369.635875 353.20498 
L 379.109525 353.20025 
L 388.583175 353.193155 
L 398.056825 353.141125 
L 407.530475 353.100919 
L 417.004125 353.077269 
L 426.477775 352.933004 
L 435.951425 352.746168 
L 445.425075 352.365401 
L 454.898725 351.374461 
L 464.372375 345.338951 
L 473.846025 236.108524 
L 483.319675 316.65136 
L 492.793325 344.456802 
L 502.266975 343.437482 
L 511.740625 333.305772 
L 521.214275 314.939092 
L 530.687925 283.709113 
L 540.161575 237.196429 
L 549.635225 253.356554 
L 559.108875 323.017971 
L 568.582525 342.541142 
L 578.056175 342.247881 
L 587.529825 345.123735 
L 597.003475 345.249081 
L 606.477125 347.214405 
L 615.950775 350.958219 
L 625.424425 352.429256 
L 634.898075 352.831308 
L 644.371725 352.989764 
L 653.845375 353.003954 
L 663.319025 353.053619 
L 672.792675 353.108014 
L 682.266325 353.110379 
L 691.739975 353.12457 
L 701.213625 353.15768 
L 710.687275 353.17187 
L 720.160925 353.174235 
L 729.634575 353.188425 
L 739.108225 353.16714 
L 748.581875 353.164775 
L 758.055525 353.18606 
L 767.529175 353.17187 
L 777.002825 353.155315 
L 786.476475 353.169505 
L 795.950125 353.193155 
L 805.423775 353.193155 
L 814.897425 353.20498 
L 824.371075 353.216805 
L 833.844725 353.21444 
L 843.318375 353.207345 
L 852.792025 353.20498 
L 862.265675 353.216805 
L 871.739325 353.216805 
L 881.212975 353.21444 
L 890.686625 353.21444 
L 900.160275 353.21444 
L 909.633925 353.216805 
L 919.107575 353.21917 
L 928.581225 353.2239 
L 938.054875 353.2239 
L 947.528525 353.2239 
L 957.002175 353.2239 
L 966.475825 353.2239 
L 975.949475 353.2239 
L 985.423125 353.2239 
" clip-path="url(#pa630a6d9a4)" style="fill: none; stroke: #d9534f; stroke-linecap: square"/>
   </g>
   <g id="line2d_20">
    <path d="M 38.058125 353.2239 
L 47.531775 353.2239 
L 57.005425 353.2239 
L 66.479075 353.2239 
L 75.952725 353.2239 
L 85.426375 353.2239 
L 94.900025 353.2239 
L 104.373675 353.2239 
L 113.847325 353.2239 
L 123.320975 353.2239 
L 132.794625 353.2239 
L 142.268275 353.2239 
L 151.741925 353.2239 
L 161.215575 353.2239 
L 170.689225 353.2239 
L 180.162875 353.2239 
L 189.636525 353.2239 
L 199.110175 353.2239 
L 208.583825 353.2239 
L 218.057475 353.2239 
L 227.531125 353.2239 
L 237.004775 353.2239 
L 246.478425 353.2239 
L 255.952075 353.2239 
L 265.425725 353.2239 
L 274.899375 353.2239 
L 284.373025 353.2239 
L 293.846675 353.22139 
L 303.320325 353.22139 
L 312.793975 353.2239 
L 322.267625 353.21888 
L 331.741275 353.21637 
L 341.214925 353.21888 
L 350.688575 353.21637 
L 360.162225 353.21386 
L 369.635875 353.18876 
L 379.109525 353.181229 
L 388.583175 353.151109 
L 398.056825 353.105928 
L 407.530475 353.028117 
L 417.004125 353.005527 
L 426.477775 352.842375 
L 435.951425 352.403119 
L 445.425075 351.479428 
L 454.898725 345.169206 
L 464.372375 234.504393 
L 473.846025 340.229463 
L 483.319675 340.317314 
L 492.793325 328.869057 
L 502.266975 342.977948 
L 511.740625 323.223994 
L 521.214275 332.548764 
L 530.687925 322.829919 
L 540.161575 315.483054 
L 549.635225 313.452438 
L 559.108875 315.533255 
L 568.582525 252.744797 
L 578.056175 305.332484 
L 587.529825 321.406731 
L 597.003475 334.687312 
L 606.477125 347.450826 
L 615.950775 348.658151 
L 625.424425 349.253029 
L 634.898075 351.971394 
L 644.371725 352.342879 
L 653.845375 351.986454 
L 663.319025 351.617479 
L 672.792675 352.827315 
L 682.266325 352.869985 
L 691.739975 353.100908 
L 701.213625 353.146089 
L 710.687275 353.131029 
L 720.160925 353.156129 
L 729.634575 353.171189 
L 739.108225 353.161149 
L 748.581875 353.173699 
L 758.055525 353.181229 
L 767.529175 353.19629 
L 777.002825 353.19127 
L 786.476475 353.20633 
L 795.950125 353.1988 
L 805.423775 353.20382 
L 814.897425 353.20382 
L 824.371075 353.20884 
L 833.844725 353.21386 
L 843.318375 353.21637 
L 852.792025 353.22139 
L 862.265675 353.21386 
L 871.739325 353.21386 
L 881.212975 353.21637 
L 890.686625 353.21637 
L 900.160275 353.2239 
L 909.633925 353.2239 
L 919.107575 353.2239 
L 928.581225 353.2239 
L 938.054875 353.2239 
L 947.528525 353.2239 
L 957.002175 353.2239 
L 966.475825 353.2239 
L 975.949475 353.2239 
L 985.423125 353.2239 
" clip-path="url(#pa630a6d9a4)" style="fill: none; stroke: #d9534f; stroke-linecap: square"/>
   </g>
   <g id="line2d_21">
    <path d="M 38.058125 353.2239 
L 47.531775 353.2239 
L 57.005425 353.2239 
L 66.479075 353.2239 
L 75.952725 353.2239 
L 85.426375 353.2239 
L 94.900025 353.2239 
L 104.373675 353.221819 
L 113.847325 353.2239 
L 123.320975 353.2239 
L 132.794625 353.2239 
L 142.268275 353.2239 
L 151.741925 353.2239 
L 161.215575 353.2239 
L 170.689225 353.221819 
L 180.162875 353.221819 
L 189.636525 353.221819 
L 199.110175 353.2239 
L 208.583825 353.2239 
L 218.057475 353.221819 
L 227.531125 353.2239 
L 237.004775 353.2239 
L 246.478425 353.2239 
L 255.952075 353.2239 
L 265.425725 353.2239 
L 274.899375 353.2239 
L 284.373025 353.2239 
L 293.846675 353.221819 
L 303.320325 353.2239 
L 312.793975 353.221819 
L 322.267625 353.2239 
L 331.741275 353.219737 
L 341.214925 353.213493 
L 350.688575 353.215574 
L 360.162225 353.217656 
L 369.635875 353.211411 
L 379.109525 353.203086 
L 388.583175 353.196841 
L 398.056825 353.18019 
L 407.530475 353.148968 
L 417.004125 353.130235 
L 426.477775 353.076118 
L 435.951425 352.984534 
L 445.425075 352.797205 
L 454.898725 352.345532 
L 464.372375 349.756221 
L 473.846025 309.399181 
L 483.319675 323.686185 
L 492.793325 344.298685 
L 502.266975 340.15662 
L 511.740625 337.663055 
L 521.214275 219.676628 
L 530.687925 194.749303 
L 540.161575 288.545233 
L 549.635225 282.500732 
L 559.108875 333.008955 
L 568.582525 345.23117 
L 578.056175 345.757775 
L 587.529825 346.669445 
L 597.003475 345.443477 
L 606.477125 345.44764 
L 615.950775 350.942642 
L 625.424425 352.316392 
L 634.898075 352.695214 
L 644.371725 352.957476 
L 653.845375 353.032408 
L 663.319025 353.076118 
L 672.792675 353.123991 
L 682.266325 353.128154 
L 691.739975 353.153131 
L 701.213625 353.159375 
L 710.687275 353.169783 
L 720.160925 353.163538 
L 729.634575 353.171864 
L 739.108225 353.167701 
L 748.581875 353.188516 
L 758.055525 353.19476 
L 767.529175 353.190597 
L 777.002825 353.207248 
L 786.476475 353.20933 
L 795.950125 353.205167 
L 805.423775 353.207248 
L 814.897425 353.198923 
L 824.371075 353.201004 
L 833.844725 353.211411 
L 843.318375 353.215574 
L 852.792025 353.217656 
L 862.265675 353.213493 
L 871.739325 353.215574 
L 881.212975 353.219737 
L 890.686625 353.213493 
L 900.160275 353.215574 
L 909.633925 353.221819 
L 919.107575 353.2239 
L 928.581225 353.2239 
L 938.054875 353.2239 
L 947.528525 353.2239 
L 957.002175 353.221819 
L 966.475825 353.2239 
L 975.949475 353.2239 
L 985.423125 353.2239 
" clip-path="url(#pa630a6d9a4)" style="fill: none; stroke: #d9534f; stroke-linecap: square"/>
   </g>
   <g id="line2d_22">
    <path d="M 38.058125 353.2239 
L 47.531775 353.2239 
L 57.005425 353.2239 
L 66.479075 353.2239 
L 75.952725 353.2239 
L 85.426375 353.2239 
L 94.900025 353.2239 
L 104.373675 353.2239 
L 113.847325 353.2239 
L 123.320975 353.221763 
L 132.794625 353.221763 
L 142.268275 353.221763 
L 151.741925 353.2239 
L 161.215575 353.2239 
L 170.689225 353.2239 
L 180.162875 353.2239 
L 189.636525 353.2239 
L 199.110175 353.2239 
L 208.583825 353.2239 
L 218.057475 353.2239 
L 227.531125 353.221763 
L 237.004775 353.221763 
L 246.478425 353.2239 
L 255.952075 353.221763 
L 265.425725 353.221763 
L 274.899375 353.2239 
L 284.373025 353.221763 
L 293.846675 353.2239 
L 303.320325 353.2239 
L 312.793975 353.2239 
L 322.267625 353.221763 
L 331.741275 353.219625 
L 341.214925 353.2239 
L 350.688575 353.221763 
L 360.162225 353.221763 
L 369.635875 353.221763 
L 379.109525 353.219625 
L 388.583175 353.213213 
L 398.056825 353.189702 
L 407.530475 353.172604 
L 417.004125 353.142681 
L 426.477775 353.097796 
L 435.951425 352.993066 
L 445.425075 352.157361 
L 454.898725 350.111913 
L 464.372375 310.551633 
L 473.846025 347.104656 
L 483.319675 346.162083 
L 492.793325 327.445277 
L 502.266975 343.528864 
L 511.740625 322.537913 
L 521.214275 335.037157 
L 530.687925 335.994692 
L 540.161575 333.71841 
L 549.635225 327.387568 
L 559.108875 328.986309 
L 568.582525 191.800262 
L 578.056175 195.709482 
L 587.529825 322.993169 
L 597.003475 339.762846 
L 606.477125 348.241729 
L 615.950775 351.310968 
L 625.424425 351.746989 
L 634.898075 352.45659 
L 644.371725 352.636128 
L 653.845375 352.606205 
L 663.319025 352.666051 
L 672.792675 352.918258 
L 682.266325 352.926808 
L 691.739975 353.082835 
L 701.213625 353.093521 
L 710.687275 353.144818 
L 720.160925 353.153367 
L 729.634575 353.179016 
L 739.108225 353.146955 
L 748.581875 353.189702 
L 758.055525 353.187565 
L 767.529175 353.185428 
L 777.002825 353.181153 
L 786.476475 353.193977 
L 795.950125 353.193977 
L 805.423775 353.204664 
L 814.897425 353.206801 
L 824.371075 353.215351 
L 833.844725 353.215351 
L 843.318375 353.208939 
L 852.792025 353.217488 
L 862.265675 353.221763 
L 871.739325 353.221763 
L 881.212975 353.213213 
L 890.686625 353.217488 
L 900.160275 353.215351 
L 909.633925 353.219625 
L 919.107575 353.217488 
L 928.581225 353.221763 
L 938.054875 353.2239 
L 947.528525 353.2239 
L 957.002175 353.2239 
L 966.475825 353.2239 
L 975.949475 353.2239 
L 985.423125 353.2239 
" clip-path="url(#pa630a6d9a4)" style="fill: none; stroke: #d9534f; stroke-linecap: square"/>
   </g>
   <g id="line2d_23">
    <path d="M 38.058125 353.2239 
L 47.531775 353.2239 
L 57.005425 353.2239 
L 66.479075 353.2239 
L 75.952725 353.2239 
L 85.426375 353.2239 
L 94.900025 353.2239 
L 104.373675 353.2239 
L 113.847325 353.2239 
L 123.320975 353.2239 
L 132.794625 353.2239 
L 142.268275 353.2239 
L 151.741925 353.2239 
L 161.215575 353.2239 
L 170.689225 353.2239 
L 180.162875 353.2239 
L 189.636525 353.2239 
L 199.110175 353.2239 
L 208.583825 353.2239 
L 218.057475 353.2239 
L 227.531125 353.22138 
L 237.004775 353.22138 
L 246.478425 353.22138 
L 255.952075 353.22138 
L 265.425725 353.22138 
L 274.899375 353.2239 
L 284.373025 353.22138 
L 293.846675 353.21886 
L 303.320325 353.22138 
L 312.793975 353.21886 
L 322.267625 353.21634 
L 331.741275 353.21382 
L 341.214925 353.21382 
L 350.688575 353.2113 
L 360.162225 353.20878 
L 369.635875 353.188619 
L 379.109525 353.176019 
L 388.583175 353.160899 
L 398.056825 353.153339 
L 407.530475 353.110498 
L 417.004125 353.047496 
L 426.477775 352.946694 
L 435.951425 352.767771 
L 445.425075 352.364563 
L 454.898725 351.462385 
L 464.372375 345.683909 
L 473.846025 234.227112 
L 483.319675 319.682027 
L 492.793325 344.638088 
L 502.266975 341.493065 
L 511.740625 340.044036 
L 521.214275 264.5156 
L 530.687925 245.632861 
L 540.161575 266.854207 
L 549.635225 271.455819 
L 559.108875 337.352622 
L 568.582525 346.465124 
L 578.056175 346.515525 
L 587.529825 348.965015 
L 597.003475 349.804191 
L 606.477125 348.954934 
L 615.950775 351.810152 
L 625.424425 352.810612 
L 634.898075 352.941654 
L 644.371725 353.019776 
L 653.845375 353.055057 
L 663.319025 353.090337 
L 672.792675 353.110498 
L 682.266325 353.135698 
L 691.739975 353.135698 
L 701.213625 353.153339 
L 710.687275 353.168459 
L 720.160925 353.160899 
L 729.634575 353.176019 
L 739.108225 353.181059 
L 748.581875 353.191139 
L 758.055525 353.186099 
L 767.529175 353.181059 
L 777.002825 353.20122 
L 786.476475 353.20374 
L 795.950125 353.193659 
L 805.423775 353.193659 
L 814.897425 353.198699 
L 824.371075 353.20626 
L 833.844725 353.20374 
L 843.318375 353.2113 
L 852.792025 353.20878 
L 862.265675 353.21886 
L 871.739325 353.21886 
L 881.212975 353.21886 
L 890.686625 353.22138 
L 900.160275 353.2239 
L 909.633925 353.22138 
L 919.107575 353.21886 
L 928.581225 353.22138 
L 938.054875 353.2239 
L 947.528525 353.2239 
L 957.002175 353.2239 
L 966.475825 353.2239 
L 975.949475 353.2239 
L 985.423125 353.2239 
" clip-path="url(#pa630a6d9a4)" style="fill: none; stroke: #d9534f; stroke-linecap: square"/>
   </g>
   <g id="line2d_24">
    <path d="M 38.058125 353.2239 
L 47.531775 353.2239 
L 57.005425 353.2239 
L 66.479075 353.2239 
L 75.952725 353.2239 
L 85.426375 353.2239 
L 94.900025 353.2239 
L 104.373675 353.2239 
L 113.847325 353.2239 
L 123.320975 353.2239 
L 132.794625 353.2239 
L 142.268275 353.2239 
L 151.741925 353.2239 
L 161.215575 353.2239 
L 170.689225 353.2239 
L 180.162875 353.2239 
L 189.636525 353.2239 
L 199.110175 353.2239 
L 208.583825 353.2239 
L 218.057475 353.2239 
L 227.531125 353.2239 
L 237.004775 353.2239 
L 246.478425 353.2239 
L 255.952075 353.2239 
L 265.425725 353.2239 
L 274.899375 353.2239 
L 284.373025 353.221224 
L 293.846675 353.221224 
L 303.320325 353.2239 
L 312.793975 353.2239 
L 322.267625 353.221224 
L 331.741275 353.215871 
L 341.214925 353.221224 
L 350.688575 353.2239 
L 360.162225 353.221224 
L 369.635875 353.213194 
L 379.109525 353.207841 
L 388.583175 353.181076 
L 398.056825 353.159664 
L 407.530475 353.11684 
L 417.004125 353.047252 
L 426.477775 352.854545 
L 435.951425 352.509278 
L 445.425075 351.441359 
L 454.898725 345.531672 
L 464.372375 229.618301 
L 473.846025 340.127841 
L 483.319675 345.611966 
L 492.793325 334.178007 
L 502.266975 346.91274 
L 511.740625 330.543335 
L 521.214275 337.804649 
L 530.687925 334.997012 
L 540.161575 332.151905 
L 549.635225 329.296091 
L 559.108875 329.413857 
L 568.582525 209.020044 
L 578.056175 247.050271 
L 587.529825 326.293071 
L 597.003475 340.863875 
L 606.477125 348.432985 
L 615.950775 351.256681 
L 625.424425 352.038216 
L 634.898075 352.517307 
L 644.371725 352.77425 
L 653.845375 352.776926 
L 663.319025 352.803691 
L 672.792675 352.988369 
L 682.266325 353.052605 
L 691.739975 353.090076 
L 701.213625 353.106134 
L 710.687275 353.106134 
L 720.160925 353.132899 
L 729.634575 353.162341 
L 739.108225 353.173047 
L 748.581875 353.154311 
L 758.055525 353.175723 
L 767.529175 353.186429 
L 777.002825 353.189106 
L 786.476475 353.191782 
L 795.950125 353.202488 
L 805.423775 353.207841 
L 814.897425 353.207841 
L 824.371075 353.210518 
L 833.844725 353.205165 
L 843.318375 353.215871 
L 852.792025 353.221224 
L 862.265675 353.218547 
L 871.739325 353.218547 
L 881.212975 353.218547 
L 890.686625 353.221224 
L 900.160275 353.2239 
L 909.633925 353.221224 
L 919.107575 353.221224 
L 928.581225 353.2239 
L 938.054875 353.2239 
L 947.528525 353.2239 
L 957.002175 353.2239 
L 966.475825 353.2239 
L 975.949475 353.2239 
L 985.423125 353.2239 
" clip-path="url(#pa630a6d9a4)" style="fill: none; stroke: #d9534f; stroke-linecap: square"/>
   </g>
   <g id="line2d_25">
    <path d="M 38.058125 353.2239 
L 47.531775 353.2239 
L 57.005425 353.2239 
L 66.479075 353.2239 
L 75.952725 353.2239 
L 85.426375 353.2239 
L 94.900025 353.221635 
L 104.373675 353.221635 
L 113.847325 353.2239 
L 123.320975 353.2239 
L 132.794625 353.221635 
L 142.268275 353.221635 
L 151.741925 353.2239 
L 161.215575 353.2239 
L 170.689225 353.2239 
L 180.162875 353.2239 
L 189.636525 353.2239 
L 199.110175 353.221635 
L 208.583825 353.221635 
L 218.057475 353.2239 
L 227.531125 353.2239 
L 237.004775 353.2239 
L 246.478425 353.2239 
L 255.952075 353.2239 
L 265.425725 353.2239 
L 274.899375 353.2239 
L 284.373025 353.2239 
L 293.846675 353.2239 
L 303.320325 353.2239 
L 312.793975 353.2239 
L 322.267625 353.2239 
L 331.741275 353.21937 
L 341.214925 353.221635 
L 350.688575 353.214839 
L 360.162225 353.217105 
L 369.635875 353.217105 
L 379.109525 353.210309 
L 388.583175 353.212574 
L 398.056825 353.201248 
L 407.530475 353.183127 
L 417.004125 353.126498 
L 426.477775 353.101582 
L 435.951425 353.054013 
L 445.425075 352.899983 
L 454.898725 352.526232 
L 464.372375 350.435494 
L 473.846025 331.113718 
L 483.319675 326.091868 
L 492.793325 342.790594 
L 502.266975 340.545825 
L 511.740625 331.87934 
L 521.214275 202.597859 
L 530.687925 179.377751 
L 540.161575 284.793554 
L 549.635225 285.978231 
L 559.108875 332.798993 
L 568.582525 344.935696 
L 578.056175 347.651618 
L 587.529825 349.069605 
L 597.003475 349.350484 
L 606.477125 350.247486 
L 615.950775 351.982595 
L 625.424425 352.702914 
L 634.898075 352.877331 
L 644.371725 353.033627 
L 653.845375 353.072135 
L 663.319025 353.108377 
L 672.792675 353.137824 
L 682.266325 353.140089 
L 691.739975 353.128763 
L 701.213625 353.15368 
L 710.687275 353.201248 
L 720.160925 353.183127 
L 729.634575 353.176332 
L 739.108225 353.169536 
L 748.581875 353.198983 
L 758.055525 353.201248 
L 767.529175 353.194453 
L 777.002825 353.208044 
L 786.476475 353.192188 
L 795.950125 353.205779 
L 805.423775 353.210309 
L 814.897425 353.214839 
L 824.371075 353.212574 
L 833.844725 353.217105 
L 843.318375 353.21937 
L 852.792025 353.21937 
L 862.265675 353.217105 
L 871.739325 353.221635 
L 881.212975 353.2239 
L 890.686625 353.217105 
L 900.160275 353.21937 
L 909.633925 353.21937 
L 919.107575 353.21937 
L 928.581225 353.221635 
L 938.054875 353.221635 
L 947.528525 353.221635 
L 957.002175 353.2239 
L 966.475825 353.2239 
L 975.949475 353.2239 
L 985.423125 353.2239 
" clip-path="url(#pa630a6d9a4)" style="fill: none; stroke: #d9534f; stroke-linecap: square"/>
   </g>
   <g id="line2d_26">
    <path d="M 38.058125 353.2239 
L 47.531775 353.2239 
L 57.005425 353.2239 
L 66.479075 353.2239 
L 75.952725 353.2239 
L 85.426375 353.2239 
L 94.900025 353.2239 
L 104.373675 353.2239 
L 113.847325 353.2239 
L 123.320975 353.2239 
L 132.794625 353.2239 
L 142.268275 353.2239 
L 151.741925 353.2239 
L 161.215575 353.2239 
L 170.689225 353.2239 
L 180.162875 353.221647 
L 189.636525 353.221647 
L 199.110175 353.2239 
L 208.583825 353.2239 
L 218.057475 353.2239 
L 227.531125 353.2239 
L 237.004775 353.2239 
L 246.478425 353.2239 
L 255.952075 353.2239 
L 265.425725 353.221647 
L 274.899375 353.219394 
L 284.373025 353.2239 
L 293.846675 353.219394 
L 303.320325 353.219394 
L 312.793975 353.221647 
L 322.267625 353.2239 
L 331.741275 353.2239 
L 341.214925 353.221647 
L 350.688575 353.2239 
L 360.162225 353.219394 
L 369.635875 353.214888 
L 379.109525 353.208129 
L 388.583175 353.20137 
L 398.056825 353.196863 
L 407.530475 353.181092 
L 417.004125 353.158562 
L 426.477775 353.115754 
L 435.951425 353.034644 
L 445.425075 352.829617 
L 454.898725 351.606215 
L 464.372375 334.906656 
L 473.846025 346.532361 
L 483.319675 335.350505 
L 492.793325 327.926727 
L 502.266975 344.687118 
L 511.740625 331.166604 
L 521.214275 337.245315 
L 530.687925 329.044236 
L 540.161575 321.881811 
L 549.635225 323.069165 
L 559.108875 329.382193 
L 568.582525 178.520649 
L 578.056175 192.748619 
L 587.529825 326.734867 
L 597.003475 345.592841 
L 606.477125 350.583333 
L 615.950775 350.869469 
L 625.424425 351.250234 
L 634.898075 352.584036 
L 644.371725 352.667398 
L 653.845375 352.568264 
L 663.319025 352.482649 
L 672.792675 353.009861 
L 682.266325 353.030138 
L 691.739975 353.129272 
L 701.213625 353.156309 
L 710.687275 353.158562 
L 720.160925 353.158562 
L 729.634575 353.176586 
L 739.108225 353.176586 
L 748.581875 353.181092 
L 758.055525 353.20137 
L 767.529175 353.199117 
L 777.002825 353.176586 
L 786.476475 353.176586 
L 795.950125 353.20137 
L 805.423775 353.205876 
L 814.897425 353.203623 
L 824.371075 353.214888 
L 833.844725 353.214888 
L 843.318375 353.214888 
L 852.792025 353.214888 
L 862.265675 353.217141 
L 871.739325 353.219394 
L 881.212975 353.217141 
L 890.686625 353.219394 
L 900.160275 353.219394 
L 909.633925 353.221647 
L 919.107575 353.2239 
L 928.581225 353.2239 
L 938.054875 353.221647 
L 947.528525 353.221647 
L 957.002175 353.2239 
L 966.475825 353.2239 
L 975.949475 353.2239 
L 985.423125 353.2239 
" clip-path="url(#pa630a6d9a4)" style="fill: none; stroke: #d9534f; stroke-linecap: square"/>
   </g>
   <g id="line2d_27">
    <path d="M 38.058125 353.2239 
L 985.423125 353.2239 
" clip-path="url(#pa630a6d9a4)" style="fill: none; stroke: #dedede; stroke-width: 2; stroke-linecap: square"/>
   </g>
   <g id="text_15">
    <!-- FastQC: Per Sequence GC Content -->
    <g transform="translate(375.104375 19.3575) scale(0.16 -0.16)">
     <defs>
      <path id="DejaVuSans-46" d="M 628 4666 
L 3309 4666 
L 3309 4134 
L 1259 4134 
L 1259 2759 
L 3109 2759 
L 3109 2228 
L 1259 2228 
L 1259 0 
L 628 0 
L 628 4666 
z
" transform="scale(0.015625)"/>
      <path id="DejaVuSans-73" d="M 2834 3397 
L 2834 2853 
Q 2591 2978 2328 3040 
Q 2066 3103 1784 3103 
Q 1356 3103 1142 2972 
Q 928 2841 928 2578 
Q 928 2378 1081 2264 
Q 1234 2150 1697 2047 
L 1894 2003 
Q 2506 1872 2764 1633 
Q 3022 1394 3022 966 
Q 3022 478 2636 193 
Q 2250 -91 1575 -91 
Q 1294 -91 989 -36 
Q 684 19 347 128 
L 347 722 
Q 666 556 975 473 
Q 1284 391 1588 391 
Q 1994 391 2212 530 
Q 2431 669 2431 922 
Q 2431 1156 2273 1281 
Q 2116 1406 1581 1522 
L 1381 1569 
Q 847 1681 609 1914 
Q 372 2147 372 2553 
Q 372 3047 722 3315 
Q 1072 3584 1716 3584 
Q 2034 3584 2315 3537 
Q 2597 3491 2834 3397 
z
" transform="scale(0.015625)"/>
      <path id="DejaVuSans-51" d="M 2522 4238 
Q 1834 4238 1429 3725 
Q 1025 3213 1025 2328 
Q 1025 1447 1429 934 
Q 1834 422 2522 422 
Q 3209 422 3611 934 
Q 4013 1447 4013 2328 
Q 4013 3213 3611 3725 
Q 3209 4238 2522 4238 
z
M 3406 84 
L 4238 -825 
L 3475 -825 
L 2784 -78 
Q 2681 -84 2626 -87 
Q 2572 -91 2522 -91 
Q 1538 -91 948 567 
Q 359 1225 359 2328 
Q 359 3434 948 4092 
Q 1538 4750 2522 4750 
Q 3503 4750 4090 4092 
Q 4678 3434 4678 2328 
Q 4678 1516 4351 937 
Q 4025 359 3406 84 
z
" transform="scale(0.015625)"/>
      <path id="DejaVuSans-3a" d="M 750 794 
L 1409 794 
L 1409 0 
L 750 0 
L 750 794 
z
M 750 3309 
L 1409 3309 
L 1409 2516 
L 750 2516 
L 750 3309 
z
" transform="scale(0.015625)"/>
      <path id="DejaVuSans-53" d="M 3425 4513 
L 3425 3897 
Q 3066 4069 2747 4153 
Q 2428 4238 2131 4238 
Q 1616 4238 1336 4038 
Q 1056 3838 1056 3469 
Q 1056 3159 1242 3001 
Q 1428 2844 1947 2747 
L 2328 2669 
Q 3034 2534 3370 2195 
Q 3706 1856 3706 1288 
Q 3706 609 3251 259 
Q 2797 -91 1919 -91 
Q 1588 -91 1214 -16 
Q 841 59 441 206 
L 441 856 
Q 825 641 1194 531 
Q 1563 422 1919 422 
Q 2459 422 2753 634 
Q 3047 847 3047 1241 
Q 3047 1584 2836 1778 
Q 2625 1972 2144 2069 
L 1759 2144 
Q 1053 2284 737 2584 
Q 422 2884 422 3419 
Q 422 4038 858 4394 
Q 1294 4750 2059 4750 
Q 2388 4750 2728 4690 
Q 3069 4631 3425 4513 
z
" transform="scale(0.015625)"/>
      <path id="DejaVuSans-71" d="M 947 1747 
Q 947 1113 1208 752 
Q 1469 391 1925 391 
Q 2381 391 2643 752 
Q 2906 1113 2906 1747 
Q 2906 2381 2643 2742 
Q 2381 3103 1925 3103 
Q 1469 3103 1208 2742 
Q 947 2381 947 1747 
z
M 2906 525 
Q 2725 213 2448 61 
Q 2172 -91 1784 -91 
Q 1150 -91 751 415 
Q 353 922 353 1747 
Q 353 2572 751 3078 
Q 1150 3584 1784 3584 
Q 2172 3584 2448 3432 
Q 2725 3281 2906 2969 
L 2906 3500 
L 3481 3500 
L 3481 -1331 
L 2906 -1331 
L 2906 525 
z
" transform="scale(0.015625)"/>
      <path id="DejaVuSans-75" d="M 544 1381 
L 544 3500 
L 1119 3500 
L 1119 1403 
Q 1119 906 1312 657 
Q 1506 409 1894 409 
Q 2359 409 2629 706 
Q 2900 1003 2900 1516 
L 2900 3500 
L 3475 3500 
L 3475 0 
L 2900 0 
L 2900 538 
Q 2691 219 2414 64 
Q 2138 -91 1772 -91 
Q 1169 -91 856 284 
Q 544 659 544 1381 
z
M 1991 3584 
L 1991 3584 
z
" transform="scale(0.015625)"/>
      <path id="DejaVuSans-6f" d="M 1959 3097 
Q 1497 3097 1228 2736 
Q 959 2375 959 1747 
Q 959 1119 1226 758 
Q 1494 397 1959 397 
Q 2419 397 2687 759 
Q 2956 1122 2956 1747 
Q 2956 2369 2687 2733 
Q 2419 3097 1959 3097 
z
M 1959 3584 
Q 2709 3584 3137 3096 
Q 3566 2609 3566 1747 
Q 3566 888 3137 398 
Q 2709 -91 1959 -91 
Q 1206 -91 779 398 
Q 353 888 353 1747 
Q 353 2609 779 3096 
Q 1206 3584 1959 3584 
z
" transform="scale(0.015625)"/>
     </defs>
     <use xlink:href="#DejaVuSans-46"/>
     <use xlink:href="#DejaVuSans-61" x="48.394531"/>
     <use xlink:href="#DejaVuSans-73" x="109.673828"/>
     <use xlink:href="#DejaVuSans-74" x="161.773438"/>
     <use xlink:href="#DejaVuSans-51" x="200.982422"/>
     <use xlink:href="#DejaVuSans-43" x="279.693359"/>
     <use xlink:href="#DejaVuSans-3a" x="349.517578"/>
     <use xlink:href="#DejaVuSans-20" x="383.208984"/>
     <use xlink:href="#DejaVuSans-50" x="414.996094"/>
     <use xlink:href="#DejaVuSans-65" x="471.673828"/>
     <use xlink:href="#DejaVuSans-72" x="533.197266"/>
     <use xlink:href="#DejaVuSans-20" x="574.310547"/>
     <use xlink:href="#DejaVuSans-53" x="606.097656"/>
     <use xlink:href="#DejaVuSans-65" x="669.574219"/>
     <use xlink:href="#DejaVuSans-71" x="731.097656"/>
     <use xlink:href="#DejaVuSans-75" x="794.574219"/>
     <use xlink:href="#DejaVuSans-65" x="857.953125"/>
     <use xlink:href="#DejaVuSans-6e" x="919.476562"/>
     <use xlink:href="#DejaVuSans-63" x="982.855469"/>
     <use xlink:href="#DejaVuSans-65" x="1037.835938"/>
     <use xlink:href="#DejaVuSans-20" x="1099.359375"/>
     <use xlink:href="#DejaVuSans-47" x="1131.146484"/>
     <use xlink:href="#DejaVuSans-43" x="1208.636719"/>
     <use xlink:href="#DejaVuSans-20" x="1278.460938"/>
     <use xlink:href="#DejaVuSans-43" x="1310.248047"/>
     <use xlink:href="#DejaVuSans-6f" x="1380.072266"/>
     <use xlink:href="#DejaVuSans-6e" x="1441.253906"/>
     <use xlink:href="#DejaVuSans-74" x="1504.632812"/>
     <use xlink:href="#DejaVuSans-65" x="1543.841797"/>
     <use xlink:href="#DejaVuSans-6e" x="1605.365234"/>
     <use xlink:href="#DejaVuSans-74" x="1668.744141"/>
    </g>
   </g>
  </g>
 </g>
 <defs>
  <clipPath id="pa630a6d9a4">
   <rect x="38.058125" y="35.2559" width="947.365" height="317.968"/>
  </clipPath>
 </defs>
</svg>
