<?xml version="1.0" encoding="utf-8" standalone="no"?>
<!DOCTYPE svg PUBLIC "-//W3C//DTD SVG 1.1//EN"
  "http://www.w3.org/Graphics/SVG/1.1/DTD/svg11.dtd">
<svg xmlns:xlink="http://www.w3.org/1999/xlink" width="1000.158125pt" height="388.844525pt" viewBox="0 0 1000.158125 388.844525" xmlns="http://www.w3.org/2000/svg" version="1.1">
 <metadata>
  <rdf:RDF xmlns:dc="http://purl.org/dc/elements/1.1/" xmlns:cc="http://creativecommons.org/ns#" xmlns:rdf="http://www.w3.org/1999/02/22-rdf-syntax-ns#">
   <cc:Work>
    <dc:type rdf:resource="http://purl.org/dc/dcmitype/StillImage"/>
    <dc:date>2024-04-03T14:11:13.757522</dc:date>
    <dc:format>image/svg+xml</dc:format>
    <dc:creator>
     <cc:Agent>
      <dc:title>Matplotlib v3.8.1, https://matplotlib.org/</dc:title>
     </cc:Agent>
    </dc:creator>
   </cc:Work>
  </rdf:RDF>
 </metadata>
 <defs>
  <style type="text/css">*{stroke-linejoin: round; stroke-linecap: butt}</style>
 </defs>
 <g id="figure_1">
  <g id="axes_1">
   <g id="patch_1">
    <path d="M 58.418125 353.2239 
L 992.958125 353.2239 
L 992.958125 35.2559 
L 58.418125 35.2559 
z
" style="fill: #ffffff"/>
   </g>
   <g id="patch_2">
    <path d="M 742.525837 353.2239 
L 2501.659955 353.2239 
L 2501.659955 35.2559 
L 742.525837 35.2559 
z
" clip-path="url(#p676eb0fc67)" style="fill: #c3e6c3"/>
   </g>
   <g id="patch_3">
    <path d="M 547.066491 353.2239 
L 742.525837 353.2239 
L 742.525837 35.2559 
L 547.066491 35.2559 
z
" clip-path="url(#p676eb0fc67)" style="fill: #e6dcc3"/>
   </g>
   <g id="patch_4">
    <path d="M 58.418125 353.2239 
L 547.066491 353.2239 
L 547.066491 35.2559 
L 58.418125 35.2559 
z
" clip-path="url(#p676eb0fc67)" style="fill: #e6c3c3"/>
   </g>
   <g id="matplotlib.axis_1">
    <g id="xtick_1">
     <g id="text_1">
      <!-- 0 -->
      <g transform="translate(55.873125 366.30265) scale(0.08 -0.08)">
       <defs>
        <path id="DejaVuSans-30" d="M 2034 4250 
Q 1547 4250 1301 3770 
Q 1056 3291 1056 2328 
Q 1056 1369 1301 889 
Q 1547 409 2034 409 
Q 2525 409 2770 889 
Q 3016 1369 3016 2328 
Q 3016 3291 2770 3770 
Q 2525 4250 2034 4250 
z
M 2034 4750 
Q 2819 4750 3233 4129 
Q 3647 3509 3647 2328 
Q 3647 1150 3233 529 
Q 2819 -91 2034 -91 
Q 1250 -91 836 529 
Q 422 1150 422 2328 
Q 422 3509 836 4129 
Q 1250 4750 2034 4750 
z
" transform="scale(0.015625)"/>
       </defs>
       <use xlink:href="#DejaVuSans-30"/>
      </g>
     </g>
    </g>
    <g id="xtick_2">
     <g id="text_2">
      <!-- 5 -->
      <g transform="translate(178.035217 366.30265) scale(0.08 -0.08)">
       <defs>
        <path id="DejaVuSans-35" d="M 691 4666 
L 3169 4666 
L 3169 4134 
L 1269 4134 
L 1269 2991 
Q 1406 3038 1543 3061 
Q 1681 3084 1819 3084 
Q 2600 3084 3056 2656 
Q 3513 2228 3513 1497 
Q 3513 744 3044 326 
Q 2575 -91 1722 -91 
Q 1428 -91 1123 -41 
Q 819 9 494 109 
L 494 744 
Q 775 591 1075 516 
Q 1375 441 1709 441 
Q 2250 441 2565 725 
Q 2881 1009 2881 1497 
Q 2881 1984 2565 2268 
Q 2250 2553 1709 2553 
Q 1456 2553 1204 2497 
Q 953 2441 691 2322 
L 691 4666 
z
" transform="scale(0.015625)"/>
       </defs>
       <use xlink:href="#DejaVuSans-35"/>
      </g>
     </g>
    </g>
    <g id="xtick_3">
     <g id="text_3">
      <!-- 10 -->
      <g transform="translate(297.652308 366.30265) scale(0.08 -0.08)">
       <defs>
        <path id="DejaVuSans-31" d="M 794 531 
L 1825 531 
L 1825 4091 
L 703 3866 
L 703 4441 
L 1819 4666 
L 2450 4666 
L 2450 531 
L 3481 531 
L 3481 0 
L 794 0 
L 794 531 
z
" transform="scale(0.015625)"/>
       </defs>
       <use xlink:href="#DejaVuSans-31"/>
       <use xlink:href="#DejaVuSans-30" x="63.623047"/>
      </g>
     </g>
    </g>
    <g id="xtick_4">
     <g id="text_4">
      <!-- 15 -->
      <g transform="translate(419.8144 366.30265) scale(0.08 -0.08)">
       <use xlink:href="#DejaVuSans-31"/>
       <use xlink:href="#DejaVuSans-35" x="63.623047"/>
      </g>
     </g>
    </g>
    <g id="xtick_5">
     <g id="text_5">
      <!-- 20 -->
      <g transform="translate(541.976491 366.30265) scale(0.08 -0.08)">
       <defs>
        <path id="DejaVuSans-32" d="M 1228 531 
L 3431 531 
L 3431 0 
L 469 0 
L 469 531 
Q 828 903 1448 1529 
Q 2069 2156 2228 2338 
Q 2531 2678 2651 2914 
Q 2772 3150 2772 3378 
Q 2772 3750 2511 3984 
Q 2250 4219 1831 4219 
Q 1534 4219 1204 4116 
Q 875 4013 500 3803 
L 500 4441 
Q 881 4594 1212 4672 
Q 1544 4750 1819 4750 
Q 2544 4750 2975 4387 
Q 3406 4025 3406 3419 
Q 3406 3131 3298 2873 
Q 3191 2616 2906 2266 
Q 2828 2175 2409 1742 
Q 1991 1309 1228 531 
z
" transform="scale(0.015625)"/>
       </defs>
       <use xlink:href="#DejaVuSans-32"/>
       <use xlink:href="#DejaVuSans-30" x="63.623047"/>
      </g>
     </g>
    </g>
    <g id="xtick_6">
     <g id="text_6">
      <!-- 25 -->
      <g transform="translate(664.138583 366.30265) scale(0.08 -0.08)">
       <use xlink:href="#DejaVuSans-32"/>
       <use xlink:href="#DejaVuSans-35" x="63.623047"/>
      </g>
     </g>
    </g>
    <g id="xtick_7">
     <g id="text_7">
      <!-- 30 -->
      <g transform="translate(786.300674 366.30265) scale(0.08 -0.08)">
       <defs>
        <path id="DejaVuSans-33" d="M 2597 2516 
Q 3050 2419 3304 2112 
Q 3559 1806 3559 1356 
Q 3559 666 3084 287 
Q 2609 -91 1734 -91 
Q 1441 -91 1130 -33 
Q 819 25 488 141 
L 488 750 
Q 750 597 1062 519 
Q 1375 441 1716 441 
Q 2309 441 2620 675 
Q 2931 909 2931 1356 
Q 2931 1769 2642 2001 
Q 2353 2234 1838 2234 
L 1294 2234 
L 1294 2753 
L 1863 2753 
Q 2328 2753 2575 2939 
Q 2822 3125 2822 3475 
Q 2822 3834 2567 4026 
Q 2313 4219 1838 4219 
Q 1578 4219 1281 4162 
Q 984 4106 628 3988 
L 628 4550 
Q 988 4650 1302 4700 
Q 1616 4750 1894 4750 
Q 2613 4750 3031 4423 
Q 3450 4097 3450 3541 
Q 3450 3153 3228 2886 
Q 3006 2619 2597 2516 
z
" transform="scale(0.015625)"/>
       </defs>
       <use xlink:href="#DejaVuSans-33"/>
       <use xlink:href="#DejaVuSans-30" x="63.623047"/>
      </g>
     </g>
    </g>
    <g id="xtick_8">
     <g id="text_8">
      <!-- 35 -->
      <g transform="translate(908.462766 366.30265) scale(0.08 -0.08)">
       <use xlink:href="#DejaVuSans-33"/>
       <use xlink:href="#DejaVuSans-35" x="63.623047"/>
      </g>
     </g>
    </g>
    <g id="text_9">
     <!-- Mean Sequence Quality (Phred Score) -->
     <g transform="translate(430.895938 379.564837) scale(0.1 -0.1)">
      <defs>
       <path id="DejaVuSans-4d" d="M 628 4666 
L 1569 4666 
L 2759 1491 
L 3956 4666 
L 4897 4666 
L 4897 0 
L 4281 0 
L 4281 4097 
L 3078 897 
L 2444 897 
L 1241 4097 
L 1241 0 
L 628 0 
L 628 4666 
z
" transform="scale(0.015625)"/>
       <path id="DejaVuSans-65" d="M 3597 1894 
L 3597 1613 
L 953 1613 
Q 991 1019 1311 708 
Q 1631 397 2203 397 
Q 2534 397 2845 478 
Q 3156 559 3463 722 
L 3463 178 
Q 3153 47 2828 -22 
Q 2503 -91 2169 -91 
Q 1331 -91 842 396 
Q 353 884 353 1716 
Q 353 2575 817 3079 
Q 1281 3584 2069 3584 
Q 2775 3584 3186 3129 
Q 3597 2675 3597 1894 
z
M 3022 2063 
Q 3016 2534 2758 2815 
Q 2500 3097 2075 3097 
Q 1594 3097 1305 2825 
Q 1016 2553 972 2059 
L 3022 2063 
z
" transform="scale(0.015625)"/>
       <path id="DejaVuSans-61" d="M 2194 1759 
Q 1497 1759 1228 1600 
Q 959 1441 959 1056 
Q 959 750 1161 570 
Q 1363 391 1709 391 
Q 2188 391 2477 730 
Q 2766 1069 2766 1631 
L 2766 1759 
L 2194 1759 
z
M 3341 1997 
L 3341 0 
L 2766 0 
L 2766 531 
Q 2569 213 2275 61 
Q 1981 -91 1556 -91 
Q 1019 -91 701 211 
Q 384 513 384 1019 
Q 384 1609 779 1909 
Q 1175 2209 1959 2209 
L 2766 2209 
L 2766 2266 
Q 2766 2663 2505 2880 
Q 2244 3097 1772 3097 
Q 1472 3097 1187 3025 
Q 903 2953 641 2809 
L 641 3341 
Q 956 3463 1253 3523 
Q 1550 3584 1831 3584 
Q 2591 3584 2966 3190 
Q 3341 2797 3341 1997 
z
" transform="scale(0.015625)"/>
       <path id="DejaVuSans-6e" d="M 3513 2113 
L 3513 0 
L 2938 0 
L 2938 2094 
Q 2938 2591 2744 2837 
Q 2550 3084 2163 3084 
Q 1697 3084 1428 2787 
Q 1159 2491 1159 1978 
L 1159 0 
L 581 0 
L 581 3500 
L 1159 3500 
L 1159 2956 
Q 1366 3272 1645 3428 
Q 1925 3584 2291 3584 
Q 2894 3584 3203 3211 
Q 3513 2838 3513 2113 
z
" transform="scale(0.015625)"/>
       <path id="DejaVuSans-20" transform="scale(0.015625)"/>
       <path id="DejaVuSans-53" d="M 3425 4513 
L 3425 3897 
Q 3066 4069 2747 4153 
Q 2428 4238 2131 4238 
Q 1616 4238 1336 4038 
Q 1056 3838 1056 3469 
Q 1056 3159 1242 3001 
Q 1428 2844 1947 2747 
L 2328 2669 
Q 3034 2534 3370 2195 
Q 3706 1856 3706 1288 
Q 3706 609 3251 259 
Q 2797 -91 1919 -91 
Q 1588 -91 1214 -16 
Q 841 59 441 206 
L 441 856 
Q 825 641 1194 531 
Q 1563 422 1919 422 
Q 2459 422 2753 634 
Q 3047 847 3047 1241 
Q 3047 1584 2836 1778 
Q 2625 1972 2144 2069 
L 1759 2144 
Q 1053 2284 737 2584 
Q 422 2884 422 3419 
Q 422 4038 858 4394 
Q 1294 4750 2059 4750 
Q 2388 4750 2728 4690 
Q 3069 4631 3425 4513 
z
" transform="scale(0.015625)"/>
       <path id="DejaVuSans-71" d="M 947 1747 
Q 947 1113 1208 752 
Q 1469 391 1925 391 
Q 2381 391 2643 752 
Q 2906 1113 2906 1747 
Q 2906 2381 2643 2742 
Q 2381 3103 1925 3103 
Q 1469 3103 1208 2742 
Q 947 2381 947 1747 
z
M 2906 525 
Q 2725 213 2448 61 
Q 2172 -91 1784 -91 
Q 1150 -91 751 415 
Q 353 922 353 1747 
Q 353 2572 751 3078 
Q 1150 3584 1784 3584 
Q 2172 3584 2448 3432 
Q 2725 3281 2906 2969 
L 2906 3500 
L 3481 3500 
L 3481 -1331 
L 2906 -1331 
L 2906 525 
z
" transform="scale(0.015625)"/>
       <path id="DejaVuSans-75" d="M 544 1381 
L 544 3500 
L 1119 3500 
L 1119 1403 
Q 1119 906 1312 657 
Q 1506 409 1894 409 
Q 2359 409 2629 706 
Q 2900 1003 2900 1516 
L 2900 3500 
L 3475 3500 
L 3475 0 
L 2900 0 
L 2900 538 
Q 2691 219 2414 64 
Q 2138 -91 1772 -91 
Q 1169 -91 856 284 
Q 544 659 544 1381 
z
M 1991 3584 
L 1991 3584 
z
" transform="scale(0.015625)"/>
       <path id="DejaVuSans-63" d="M 3122 3366 
L 3122 2828 
Q 2878 2963 2633 3030 
Q 2388 3097 2138 3097 
Q 1578 3097 1268 2742 
Q 959 2388 959 1747 
Q 959 1106 1268 751 
Q 1578 397 2138 397 
Q 2388 397 2633 464 
Q 2878 531 3122 666 
L 3122 134 
Q 2881 22 2623 -34 
Q 2366 -91 2075 -91 
Q 1284 -91 818 406 
Q 353 903 353 1747 
Q 353 2603 823 3093 
Q 1294 3584 2113 3584 
Q 2378 3584 2631 3529 
Q 2884 3475 3122 3366 
z
" transform="scale(0.015625)"/>
       <path id="DejaVuSans-51" d="M 2522 4238 
Q 1834 4238 1429 3725 
Q 1025 3213 1025 2328 
Q 1025 1447 1429 934 
Q 1834 422 2522 422 
Q 3209 422 3611 934 
Q 4013 1447 4013 2328 
Q 4013 3213 3611 3725 
Q 3209 4238 2522 4238 
z
M 3406 84 
L 4238 -825 
L 3475 -825 
L 2784 -78 
Q 2681 -84 2626 -87 
Q 2572 -91 2522 -91 
Q 1538 -91 948 567 
Q 359 1225 359 2328 
Q 359 3434 948 4092 
Q 1538 4750 2522 4750 
Q 3503 4750 4090 4092 
Q 4678 3434 4678 2328 
Q 4678 1516 4351 937 
Q 4025 359 3406 84 
z
" transform="scale(0.015625)"/>
       <path id="DejaVuSans-6c" d="M 603 4863 
L 1178 4863 
L 1178 0 
L 603 0 
L 603 4863 
z
" transform="scale(0.015625)"/>
       <path id="DejaVuSans-69" d="M 603 3500 
L 1178 3500 
L 1178 0 
L 603 0 
L 603 3500 
z
M 603 4863 
L 1178 4863 
L 1178 4134 
L 603 4134 
L 603 4863 
z
" transform="scale(0.015625)"/>
       <path id="DejaVuSans-74" d="M 1172 4494 
L 1172 3500 
L 2356 3500 
L 2356 3053 
L 1172 3053 
L 1172 1153 
Q 1172 725 1289 603 
Q 1406 481 1766 481 
L 2356 481 
L 2356 0 
L 1766 0 
Q 1100 0 847 248 
Q 594 497 594 1153 
L 594 3053 
L 172 3053 
L 172 3500 
L 594 3500 
L 594 4494 
L 1172 4494 
z
" transform="scale(0.015625)"/>
       <path id="DejaVuSans-79" d="M 2059 -325 
Q 1816 -950 1584 -1140 
Q 1353 -1331 966 -1331 
L 506 -1331 
L 506 -850 
L 844 -850 
Q 1081 -850 1212 -737 
Q 1344 -625 1503 -206 
L 1606 56 
L 191 3500 
L 800 3500 
L 1894 763 
L 2988 3500 
L 3597 3500 
L 2059 -325 
z
" transform="scale(0.015625)"/>
       <path id="DejaVuSans-28" d="M 1984 4856 
Q 1566 4138 1362 3434 
Q 1159 2731 1159 2009 
Q 1159 1288 1364 580 
Q 1569 -128 1984 -844 
L 1484 -844 
Q 1016 -109 783 600 
Q 550 1309 550 2009 
Q 550 2706 781 3412 
Q 1013 4119 1484 4856 
L 1984 4856 
z
" transform="scale(0.015625)"/>
       <path id="DejaVuSans-50" d="M 1259 4147 
L 1259 2394 
L 2053 2394 
Q 2494 2394 2734 2622 
Q 2975 2850 2975 3272 
Q 2975 3691 2734 3919 
Q 2494 4147 2053 4147 
L 1259 4147 
z
M 628 4666 
L 2053 4666 
Q 2838 4666 3239 4311 
Q 3641 3956 3641 3272 
Q 3641 2581 3239 2228 
Q 2838 1875 2053 1875 
L 1259 1875 
L 1259 0 
L 628 0 
L 628 4666 
z
" transform="scale(0.015625)"/>
       <path id="DejaVuSans-68" d="M 3513 2113 
L 3513 0 
L 2938 0 
L 2938 2094 
Q 2938 2591 2744 2837 
Q 2550 3084 2163 3084 
Q 1697 3084 1428 2787 
Q 1159 2491 1159 1978 
L 1159 0 
L 581 0 
L 581 4863 
L 1159 4863 
L 1159 2956 
Q 1366 3272 1645 3428 
Q 1925 3584 2291 3584 
Q 2894 3584 3203 3211 
Q 3513 2838 3513 2113 
z
" transform="scale(0.015625)"/>
       <path id="DejaVuSans-72" d="M 2631 2963 
Q 2534 3019 2420 3045 
Q 2306 3072 2169 3072 
Q 1681 3072 1420 2755 
Q 1159 2438 1159 1844 
L 1159 0 
L 581 0 
L 581 3500 
L 1159 3500 
L 1159 2956 
Q 1341 3275 1631 3429 
Q 1922 3584 2338 3584 
Q 2397 3584 2469 3576 
Q 2541 3569 2628 3553 
L 2631 2963 
z
" transform="scale(0.015625)"/>
       <path id="DejaVuSans-64" d="M 2906 2969 
L 2906 4863 
L 3481 4863 
L 3481 0 
L 2906 0 
L 2906 525 
Q 2725 213 2448 61 
Q 2172 -91 1784 -91 
Q 1150 -91 751 415 
Q 353 922 353 1747 
Q 353 2572 751 3078 
Q 1150 3584 1784 3584 
Q 2172 3584 2448 3432 
Q 2725 3281 2906 2969 
z
M 947 1747 
Q 947 1113 1208 752 
Q 1469 391 1925 391 
Q 2381 391 2643 752 
Q 2906 1113 2906 1747 
Q 2906 2381 2643 2742 
Q 2381 3103 1925 3103 
Q 1469 3103 1208 2742 
Q 947 2381 947 1747 
z
" transform="scale(0.015625)"/>
       <path id="DejaVuSans-6f" d="M 1959 3097 
Q 1497 3097 1228 2736 
Q 959 2375 959 1747 
Q 959 1119 1226 758 
Q 1494 397 1959 397 
Q 2419 397 2687 759 
Q 2956 1122 2956 1747 
Q 2956 2369 2687 2733 
Q 2419 3097 1959 3097 
z
M 1959 3584 
Q 2709 3584 3137 3096 
Q 3566 2609 3566 1747 
Q 3566 888 3137 398 
Q 2709 -91 1959 -91 
Q 1206 -91 779 398 
Q 353 888 353 1747 
Q 353 2609 779 3096 
Q 1206 3584 1959 3584 
z
" transform="scale(0.015625)"/>
       <path id="DejaVuSans-29" d="M 513 4856 
L 1013 4856 
Q 1481 4119 1714 3412 
Q 1947 2706 1947 2009 
Q 1947 1309 1714 600 
Q 1481 -109 1013 -844 
L 513 -844 
Q 928 -128 1133 580 
Q 1338 1288 1338 2009 
Q 1338 2731 1133 3434 
Q 928 4138 513 4856 
z
" transform="scale(0.015625)"/>
      </defs>
      <use xlink:href="#DejaVuSans-4d"/>
      <use xlink:href="#DejaVuSans-65" x="86.279297"/>
      <use xlink:href="#DejaVuSans-61" x="147.802734"/>
      <use xlink:href="#DejaVuSans-6e" x="209.082031"/>
      <use xlink:href="#DejaVuSans-20" x="272.460938"/>
      <use xlink:href="#DejaVuSans-53" x="304.248047"/>
      <use xlink:href="#DejaVuSans-65" x="367.724609"/>
      <use xlink:href="#DejaVuSans-71" x="429.248047"/>
      <use xlink:href="#DejaVuSans-75" x="492.724609"/>
      <use xlink:href="#DejaVuSans-65" x="556.103516"/>
      <use xlink:href="#DejaVuSans-6e" x="617.626953"/>
      <use xlink:href="#DejaVuSans-63" x="681.005859"/>
      <use xlink:href="#DejaVuSans-65" x="735.986328"/>
      <use xlink:href="#DejaVuSans-20" x="797.509766"/>
      <use xlink:href="#DejaVuSans-51" x="829.296875"/>
      <use xlink:href="#DejaVuSans-75" x="908.007812"/>
      <use xlink:href="#DejaVuSans-61" x="971.386719"/>
      <use xlink:href="#DejaVuSans-6c" x="1032.666016"/>
      <use xlink:href="#DejaVuSans-69" x="1060.449219"/>
      <use xlink:href="#DejaVuSans-74" x="1088.232422"/>
      <use xlink:href="#DejaVuSans-79" x="1127.441406"/>
      <use xlink:href="#DejaVuSans-20" x="1186.621094"/>
      <use xlink:href="#DejaVuSans-28" x="1218.408203"/>
      <use xlink:href="#DejaVuSans-50" x="1257.421875"/>
      <use xlink:href="#DejaVuSans-68" x="1317.724609"/>
      <use xlink:href="#DejaVuSans-72" x="1381.103516"/>
      <use xlink:href="#DejaVuSans-65" x="1419.966797"/>
      <use xlink:href="#DejaVuSans-64" x="1481.490234"/>
      <use xlink:href="#DejaVuSans-20" x="1544.966797"/>
      <use xlink:href="#DejaVuSans-53" x="1576.753906"/>
      <use xlink:href="#DejaVuSans-63" x="1640.230469"/>
      <use xlink:href="#DejaVuSans-6f" x="1695.210938"/>
      <use xlink:href="#DejaVuSans-72" x="1756.392578"/>
      <use xlink:href="#DejaVuSans-65" x="1795.255859"/>
      <use xlink:href="#DejaVuSans-29" x="1856.779297"/>
     </g>
    </g>
   </g>
   <g id="matplotlib.axis_2">
    <g id="ytick_1">
     <g id="line2d_1">
      <path d="M 58.418125 353.2239 
L 992.958125 353.2239 
" clip-path="url(#p676eb0fc67)" style="fill: none; stroke: #dedede; stroke-linecap: square"/>
     </g>
     <g id="text_10">
      <!-- 0 -->
      <g transform="translate(46.328125 356.263275) scale(0.08 -0.08)">
       <use xlink:href="#DejaVuSans-30"/>
      </g>
     </g>
    </g>
    <g id="ytick_2">
     <g id="line2d_2">
      <path d="M 58.418125 302.84515 
L 992.958125 302.84515 
" clip-path="url(#p676eb0fc67)" style="fill: none; stroke: #dedede; stroke-linecap: square"/>
     </g>
     <g id="text_11">
      <!-- 20000 -->
      <g transform="translate(25.968125 305.884525) scale(0.08 -0.08)">
       <use xlink:href="#DejaVuSans-32"/>
       <use xlink:href="#DejaVuSans-30" x="63.623047"/>
       <use xlink:href="#DejaVuSans-30" x="127.246094"/>
       <use xlink:href="#DejaVuSans-30" x="190.869141"/>
       <use xlink:href="#DejaVuSans-30" x="254.492188"/>
      </g>
     </g>
    </g>
    <g id="ytick_3">
     <g id="line2d_3">
      <path d="M 58.418125 252.4664 
L 992.958125 252.4664 
" clip-path="url(#p676eb0fc67)" style="fill: none; stroke: #dedede; stroke-linecap: square"/>
     </g>
     <g id="text_12">
      <!-- 40000 -->
      <g transform="translate(25.968125 255.505775) scale(0.08 -0.08)">
       <defs>
        <path id="DejaVuSans-34" d="M 2419 4116 
L 825 1625 
L 2419 1625 
L 2419 4116 
z
M 2253 4666 
L 3047 4666 
L 3047 1625 
L 3713 1625 
L 3713 1100 
L 3047 1100 
L 3047 0 
L 2419 0 
L 2419 1100 
L 313 1100 
L 313 1709 
L 2253 4666 
z
" transform="scale(0.015625)"/>
       </defs>
       <use xlink:href="#DejaVuSans-34"/>
       <use xlink:href="#DejaVuSans-30" x="63.623047"/>
       <use xlink:href="#DejaVuSans-30" x="127.246094"/>
       <use xlink:href="#DejaVuSans-30" x="190.869141"/>
       <use xlink:href="#DejaVuSans-30" x="254.492188"/>
      </g>
     </g>
    </g>
    <g id="ytick_4">
     <g id="line2d_4">
      <path d="M 58.418125 202.08765 
L 992.958125 202.08765 
" clip-path="url(#p676eb0fc67)" style="fill: none; stroke: #dedede; stroke-linecap: square"/>
     </g>
     <g id="text_13">
      <!-- 60000 -->
      <g transform="translate(25.968125 205.127025) scale(0.08 -0.08)">
       <defs>
        <path id="DejaVuSans-36" d="M 2113 2584 
Q 1688 2584 1439 2293 
Q 1191 2003 1191 1497 
Q 1191 994 1439 701 
Q 1688 409 2113 409 
Q 2538 409 2786 701 
Q 3034 994 3034 1497 
Q 3034 2003 2786 2293 
Q 2538 2584 2113 2584 
z
M 3366 4563 
L 3366 3988 
Q 3128 4100 2886 4159 
Q 2644 4219 2406 4219 
Q 1781 4219 1451 3797 
Q 1122 3375 1075 2522 
Q 1259 2794 1537 2939 
Q 1816 3084 2150 3084 
Q 2853 3084 3261 2657 
Q 3669 2231 3669 1497 
Q 3669 778 3244 343 
Q 2819 -91 2113 -91 
Q 1303 -91 875 529 
Q 447 1150 447 2328 
Q 447 3434 972 4092 
Q 1497 4750 2381 4750 
Q 2619 4750 2861 4703 
Q 3103 4656 3366 4563 
z
" transform="scale(0.015625)"/>
       </defs>
       <use xlink:href="#DejaVuSans-36"/>
       <use xlink:href="#DejaVuSans-30" x="63.623047"/>
       <use xlink:href="#DejaVuSans-30" x="127.246094"/>
       <use xlink:href="#DejaVuSans-30" x="190.869141"/>
       <use xlink:href="#DejaVuSans-30" x="254.492188"/>
      </g>
     </g>
    </g>
    <g id="ytick_5">
     <g id="line2d_5">
      <path d="M 58.418125 151.7089 
L 992.958125 151.7089 
" clip-path="url(#p676eb0fc67)" style="fill: none; stroke: #dedede; stroke-linecap: square"/>
     </g>
     <g id="text_14">
      <!-- 80000 -->
      <g transform="translate(25.968125 154.748275) scale(0.08 -0.08)">
       <defs>
        <path id="DejaVuSans-38" d="M 2034 2216 
Q 1584 2216 1326 1975 
Q 1069 1734 1069 1313 
Q 1069 891 1326 650 
Q 1584 409 2034 409 
Q 2484 409 2743 651 
Q 3003 894 3003 1313 
Q 3003 1734 2745 1975 
Q 2488 2216 2034 2216 
z
M 1403 2484 
Q 997 2584 770 2862 
Q 544 3141 544 3541 
Q 544 4100 942 4425 
Q 1341 4750 2034 4750 
Q 2731 4750 3128 4425 
Q 3525 4100 3525 3541 
Q 3525 3141 3298 2862 
Q 3072 2584 2669 2484 
Q 3125 2378 3379 2068 
Q 3634 1759 3634 1313 
Q 3634 634 3220 271 
Q 2806 -91 2034 -91 
Q 1263 -91 848 271 
Q 434 634 434 1313 
Q 434 1759 690 2068 
Q 947 2378 1403 2484 
z
M 1172 3481 
Q 1172 3119 1398 2916 
Q 1625 2713 2034 2713 
Q 2441 2713 2670 2916 
Q 2900 3119 2900 3481 
Q 2900 3844 2670 4047 
Q 2441 4250 2034 4250 
Q 1625 4250 1398 4047 
Q 1172 3844 1172 3481 
z
" transform="scale(0.015625)"/>
       </defs>
       <use xlink:href="#DejaVuSans-38"/>
       <use xlink:href="#DejaVuSans-30" x="63.623047"/>
       <use xlink:href="#DejaVuSans-30" x="127.246094"/>
       <use xlink:href="#DejaVuSans-30" x="190.869141"/>
       <use xlink:href="#DejaVuSans-30" x="254.492188"/>
      </g>
     </g>
    </g>
    <g id="ytick_6">
     <g id="line2d_6">
      <path d="M 58.418125 101.33015 
L 992.958125 101.33015 
" clip-path="url(#p676eb0fc67)" style="fill: none; stroke: #dedede; stroke-linecap: square"/>
     </g>
     <g id="text_15">
      <!-- 100000 -->
      <g transform="translate(20.878125 104.369525) scale(0.08 -0.08)">
       <use xlink:href="#DejaVuSans-31"/>
       <use xlink:href="#DejaVuSans-30" x="63.623047"/>
       <use xlink:href="#DejaVuSans-30" x="127.246094"/>
       <use xlink:href="#DejaVuSans-30" x="190.869141"/>
       <use xlink:href="#DejaVuSans-30" x="254.492188"/>
       <use xlink:href="#DejaVuSans-30" x="318.115234"/>
      </g>
     </g>
    </g>
    <g id="ytick_7">
     <g id="line2d_7">
      <path d="M 58.418125 50.9514 
L 992.958125 50.9514 
" clip-path="url(#p676eb0fc67)" style="fill: none; stroke: #dedede; stroke-linecap: square"/>
     </g>
     <g id="text_16">
      <!-- 120000 -->
      <g transform="translate(20.878125 53.990775) scale(0.08 -0.08)">
       <use xlink:href="#DejaVuSans-31"/>
       <use xlink:href="#DejaVuSans-32" x="63.623047"/>
       <use xlink:href="#DejaVuSans-30" x="127.246094"/>
       <use xlink:href="#DejaVuSans-30" x="190.869141"/>
       <use xlink:href="#DejaVuSans-30" x="254.492188"/>
       <use xlink:href="#DejaVuSans-30" x="318.115234"/>
      </g>
     </g>
    </g>
    <g id="text_17">
     <!-- Count -->
     <g transform="translate(14.798438 209.088338) rotate(-90) scale(0.1 -0.1)">
      <defs>
       <path id="DejaVuSans-43" d="M 4122 4306 
L 4122 3641 
Q 3803 3938 3442 4084 
Q 3081 4231 2675 4231 
Q 1875 4231 1450 3742 
Q 1025 3253 1025 2328 
Q 1025 1406 1450 917 
Q 1875 428 2675 428 
Q 3081 428 3442 575 
Q 3803 722 4122 1019 
L 4122 359 
Q 3791 134 3420 21 
Q 3050 -91 2638 -91 
Q 1578 -91 968 557 
Q 359 1206 359 2328 
Q 359 3453 968 4101 
Q 1578 4750 2638 4750 
Q 3056 4750 3426 4639 
Q 3797 4528 4122 4306 
z
" transform="scale(0.015625)"/>
      </defs>
      <use xlink:href="#DejaVuSans-43"/>
      <use xlink:href="#DejaVuSans-6f" x="69.824219"/>
      <use xlink:href="#DejaVuSans-75" x="131.005859"/>
      <use xlink:href="#DejaVuSans-6e" x="194.384766"/>
      <use xlink:href="#DejaVuSans-74" x="257.763672"/>
     </g>
    </g>
   </g>
   <g id="line2d_8">
    <path d="M 449.336818 353.216343 
L 473.769236 353.216343 
L 498.201654 353.188635 
L 522.634073 353.193673 
L 547.066491 353.140775 
L 571.498909 353.017347 
L 595.931328 352.7982 
L 620.363746 352.601722 
L 644.796164 352.327158 
L 669.228583 351.961912 
L 693.661001 351.30447 
L 718.093419 350.725114 
L 742.525837 349.886308 
L 766.958256 348.667142 
L 791.390674 347.41523 
L 815.823092 346.034852 
L 840.255511 343.150669 
L 864.687929 338.153097 
L 889.120347 326.533238 
L 913.552766 269.784095 
L 937.985184 101.655093 
L 962.417602 352.115567 
" clip-path="url(#p676eb0fc67)" style="fill: none; stroke: #5cb85c; stroke-linecap: square"/>
   </g>
   <g id="line2d_9">
    <path d="M 449.336818 353.211305 
L 473.769236 353.208786 
L 498.201654 353.20123 
L 522.634073 353.143294 
L 547.066491 353.12818 
L 571.498909 353.017347 
L 595.931328 352.896438 
L 620.363746 352.760415 
L 644.796164 352.435473 
L 669.228583 352.052594 
L 693.661001 351.58911 
L 718.093419 351.055095 
L 742.525837 350.342235 
L 766.958256 349.485797 
L 791.390674 348.485779 
L 815.823092 346.556272 
L 840.255511 344.135573 
L 864.687929 340.032224 
L 889.120347 331.288992 
L 913.552766 296.724132 
L 937.985184 71.153278 
L 962.417602 344.183433 
" clip-path="url(#p676eb0fc67)" style="fill: none; stroke: #5cb85c; stroke-linecap: square"/>
   </g>
   <g id="line2d_10">
    <path d="M 449.336818 353.218862 
L 473.769236 353.2239 
L 498.201654 353.213824 
L 522.634073 353.183597 
L 547.066491 353.15337 
L 571.498909 353.047574 
L 595.931328 352.886362 
L 620.363746 352.684847 
L 644.796164 352.367461 
L 669.228583 351.949318 
L 693.661001 351.415303 
L 718.093419 350.795644 
L 742.525837 349.798145 
L 766.958256 348.747748 
L 791.390674 347.725059 
L 815.823092 345.848451 
L 840.255511 343.090214 
L 864.687929 337.981809 
L 889.120347 324.543278 
L 913.552766 266.030878 
L 937.985184 121.549661 
L 962.417602 352.478294 
" clip-path="url(#p676eb0fc67)" style="fill: none; stroke: #5cb85c; stroke-linecap: square"/>
   </g>
   <g id="line2d_11">
    <path d="M 449.336818 353.221381 
L 473.769236 353.206267 
L 498.201654 353.183597 
L 522.634073 353.158408 
L 547.066491 353.10551 
L 571.498909 352.989639 
L 595.931328 352.881324 
L 620.363746 352.735226 
L 644.796164 352.453105 
L 669.228583 352.092897 
L 693.661001 351.679791 
L 718.093419 351.155852 
L 742.525837 350.508485 
L 766.958256 349.589073 
L 791.390674 348.45807 
L 815.823092 346.737636 
L 840.255511 344.447922 
L 864.687929 340.092679 
L 889.120347 331.004352 
L 913.552766 297.258147 
L 937.985184 83.450731 
L 962.417602 345.523508 
" clip-path="url(#p676eb0fc67)" style="fill: none; stroke: #5cb85c; stroke-linecap: square"/>
   </g>
   <g id="line2d_12">
    <path d="M 449.336818 353.221381 
L 473.769236 353.216343 
L 498.201654 353.213824 
L 522.634073 353.186116 
L 547.066491 353.158408 
L 571.498909 353.012309 
L 595.931328 352.846059 
L 620.363746 352.568976 
L 644.796164 352.206249 
L 669.228583 351.924128 
L 693.661001 351.261648 
L 718.093419 350.362387 
L 742.525837 349.6193 
L 766.958256 348.158317 
L 791.390674 346.866102 
L 815.823092 344.702334 
L 840.255511 341.243833 
L 864.687929 335.742474 
L 889.120347 320.480231 
L 913.552766 255.174258 
L 937.985184 108.239595 
L 962.417602 352.594166 
" clip-path="url(#p676eb0fc67)" style="fill: none; stroke: #5cb85c; stroke-linecap: square"/>
   </g>
   <g id="line2d_13">
    <path d="M 424.9044 353.216343 
L 449.336818 353.211305 
L 473.769236 353.211305 
L 498.201654 353.191154 
L 522.634073 353.15337 
L 547.066491 353.032461 
L 571.498909 352.974525 
L 595.931328 352.803237 
L 620.363746 352.740264 
L 644.796164 352.349829 
L 669.228583 352.108011 
L 693.661001 351.573996 
L 718.093419 350.961894 
L 742.525837 350.193618 
L 766.958256 349.35985 
L 791.390674 347.694832 
L 815.823092 345.752731 
L 840.255511 342.770309 
L 864.687929 337.873495 
L 889.120347 327.072291 
L 913.552766 285.70378 
L 937.985184 69.445439 
L 962.417602 345.828299 
" clip-path="url(#p676eb0fc67)" style="fill: none; stroke: #5cb85c; stroke-linecap: square"/>
   </g>
   <g id="line2d_14">
    <path d="M 400.471981 353.221381 
L 424.9044 353.221381 
L 449.336818 353.2239 
L 473.769236 353.213824 
L 498.201654 353.208786 
L 522.634073 353.198711 
L 547.066491 353.143294 
L 571.498909 353.047574 
L 595.931328 352.848578 
L 620.363746 352.614317 
L 644.796164 352.39517 
L 669.228583 351.878787 
L 693.661001 351.34981 
L 718.093419 350.649546 
L 742.525837 349.669679 
L 766.958256 348.783013 
L 791.390674 347.337143 
L 815.823092 345.347182 
L 840.255511 342.702298 
L 864.687929 337.153079 
L 889.120347 325.029433 
L 913.552766 264.952773 
L 937.985184 75.548824 
L 962.417602 352.289374 
" clip-path="url(#p676eb0fc67)" style="fill: none; stroke: #5cb85c; stroke-linecap: square"/>
   </g>
   <g id="line2d_15">
    <path d="M 400.471981 353.221381 
L 424.9044 353.221381 
L 449.336818 353.211305 
L 473.769236 353.206267 
L 498.201654 353.206267 
L 522.634073 353.135737 
L 547.066491 353.095434 
L 571.498909 352.954374 
L 595.931328 352.856135 
L 620.363746 352.674772 
L 644.796164 352.475776 
L 669.228583 351.974507 
L 693.661001 351.624375 
L 718.093419 351.105474 
L 742.525837 350.299414 
L 766.958256 349.186043 
L 791.390674 348.143203 
L 815.823092 346.344682 
L 840.255511 343.442866 
L 864.687929 338.704744 
L 889.120347 328.382138 
L 913.552766 289.917963 
L 937.985184 50.397233 
L 962.417602 343.246389 
" clip-path="url(#p676eb0fc67)" style="fill: none; stroke: #5cb85c; stroke-linecap: square"/>
   </g>
   <g id="line2d_16">
    <path d="M 351.607145 353.221381 
L 376.039563 353.2239 
L 400.471981 353.2239 
L 424.9044 353.2239 
L 449.336818 353.221381 
L 473.769236 353.216343 
L 498.201654 353.211305 
L 522.634073 353.186116 
L 547.066491 353.123142 
L 571.498909 353.047574 
L 595.931328 352.878806 
L 620.363746 352.589128 
L 644.796164 352.410283 
L 669.228583 351.94428 
L 693.661001 351.344773 
L 718.093419 350.581535 
L 742.525837 349.682274 
L 766.958256 348.740191 
L 791.390674 347.291802 
L 815.823092 345.747693 
L 840.255511 342.883662 
L 864.687929 337.359632 
L 889.120347 324.467709 
L 913.552766 263.559801 
L 937.985184 107.652683 
L 962.417602 352.508522 
" clip-path="url(#p676eb0fc67)" style="fill: none; stroke: #5cb85c; stroke-linecap: square"/>
   </g>
   <g id="line2d_17">
    <path d="M 376.039563 353.221381 
L 400.471981 353.2239 
L 424.9044 353.218862 
L 449.336818 353.221381 
L 473.769236 353.221381 
L 498.201654 353.206267 
L 522.634073 353.163445 
L 547.066491 353.092915 
L 571.498909 352.959412 
L 595.931328 352.919109 
L 620.363746 352.780567 
L 644.796164 352.503484 
L 669.228583 352.118086 
L 693.661001 351.631931 
L 718.093419 351.0425 
L 742.525837 350.445512 
L 766.958256 349.442975 
L 791.390674 348.140684 
L 815.823092 346.495818 
L 840.255511 343.664532 
L 864.687929 339.573778 
L 889.120347 329.89602 
L 913.552766 293.376464 
L 937.985184 72.38252 
L 962.417602 345.374891 
" clip-path="url(#p676eb0fc67)" style="fill: none; stroke: #5cb85c; stroke-linecap: square"/>
   </g>
   <g id="line2d_18">
    <path d="M 473.769236 353.218862 
L 498.201654 353.206267 
L 522.634073 353.168483 
L 547.066491 353.110548 
L 571.498909 353.03498 
L 595.931328 352.785605 
L 620.363746 352.506003 
L 644.796164 352.221363 
L 669.228583 351.684829 
L 693.661001 350.961894 
L 718.093419 350.243997 
L 742.525837 349.286801 
L 766.958256 348.17343 
L 791.390674 346.646954 
L 815.823092 344.316937 
L 840.255511 341.4655 
L 864.687929 335.752549 
L 889.120347 320.276197 
L 913.552766 249.81144 
L 937.985184 99.513996 
L 962.417602 352.405245 
" clip-path="url(#p676eb0fc67)" style="fill: none; stroke: #5cb85c; stroke-linecap: square"/>
   </g>
   <g id="line2d_19">
    <path d="M 449.336818 353.208786 
L 473.769236 353.206267 
L 498.201654 353.165964 
L 522.634073 353.120624 
L 547.066491 352.982082 
L 571.498909 352.888881 
L 595.931328 352.77301 
L 620.363746 352.667215 
L 644.796164 352.390132 
L 669.228583 351.833446 
L 693.661001 351.448049 
L 718.093419 350.80572 
L 742.525837 349.896384 
L 766.958256 348.95682 
L 791.390674 347.435382 
L 815.823092 345.334588 
L 840.255511 342.611616 
L 864.687929 336.916299 
L 889.120347 326.052121 
L 913.552766 281.948044 
L 937.985184 61.586354 
L 962.417602 345.787996 
" clip-path="url(#p676eb0fc67)" style="fill: none; stroke: #5cb85c; stroke-linecap: square"/>
   </g>
   <g id="line2d_20">
    <path d="M 400.471981 353.221381 
L 424.9044 353.221381 
L 449.336818 353.221381 
L 473.769236 353.211305 
L 498.201654 353.216343 
L 522.634073 353.163445 
L 547.066491 353.140775 
L 571.498909 353.027423 
L 595.931328 352.861173 
L 620.363746 352.566457 
L 644.796164 352.339753 
L 669.228583 351.828409 
L 693.661001 351.102955 
L 718.093419 350.286819 
L 742.525837 349.178486 
L 766.958256 348.065116 
L 791.390674 346.762825 
L 815.823092 344.906368 
L 840.255511 341.561219 
L 864.687929 336.105201 
L 889.120347 321.026841 
L 913.552766 249.579697 
L 937.985184 99.758333 
L 962.417602 352.41784 
" clip-path="url(#p676eb0fc67)" style="fill: none; stroke: #5cb85c; stroke-linecap: square"/>
   </g>
   <g id="line2d_21">
    <path d="M 424.9044 353.221381 
L 449.336818 353.211305 
L 473.769236 353.203748 
L 498.201654 353.181078 
L 522.634073 353.123142 
L 547.066491 353.040018 
L 571.498909 352.909033 
L 595.931328 352.866211 
L 620.363746 352.634469 
L 644.796164 352.34731 
L 669.228583 351.856117 
L 693.661001 351.437973 
L 718.093419 350.873731 
L 742.525837 349.886308 
L 766.958256 348.820797 
L 791.390674 347.60415 
L 815.823092 345.699834 
L 840.255511 342.798018 
L 864.687929 337.921355 
L 889.120347 326.845586 
L 913.552766 282.471983 
L 937.985184 60.367188 
L 962.417602 346.226292 
" clip-path="url(#p676eb0fc67)" style="fill: none; stroke: #5cb85c; stroke-linecap: square"/>
   </g>
   <g id="line2d_22">
    <path d="M 424.9044 353.221381 
L 449.336818 353.2239 
L 473.769236 353.221381 
L 498.201654 353.213824 
L 522.634073 353.188635 
L 547.066491 353.158408 
L 571.498909 353.040018 
L 595.931328 352.833465 
L 620.363746 352.649582 
L 644.796164 352.32212 
L 669.228583 351.856117 
L 693.661001 351.198674 
L 718.093419 350.221326 
L 742.525837 349.168411 
L 766.958256 348.05504 
L 791.390674 346.473147 
L 815.823092 344.520971 
L 840.255511 341.362223 
L 864.687929 335.145486 
L 889.120347 320.29383 
L 913.552766 251.584772 
L 937.985184 86.098135 
L 962.417602 352.236476 
" clip-path="url(#p676eb0fc67)" style="fill: none; stroke: #5cb85c; stroke-linecap: square"/>
   </g>
   <g id="line2d_23">
    <path d="M 376.039563 353.221381 
L 400.471981 353.2239 
L 424.9044 353.2239 
L 449.336818 353.218862 
L 473.769236 353.206267 
L 498.201654 353.171002 
L 522.634073 353.138256 
L 547.066491 353.045055 
L 571.498909 352.929184 
L 595.931328 352.790643 
L 620.363746 352.657139 
L 644.796164 352.337234 
L 669.228583 351.964431 
L 693.661001 351.372481 
L 718.093419 350.73519 
L 742.525837 350.065152 
L 766.958256 348.873695 
L 791.390674 347.372408 
L 815.823092 345.344663 
L 840.255511 341.825708 
L 864.687929 336.893628 
L 889.120347 326.256155 
L 913.552766 284.101736 
L 937.985184 50.865756 
L 962.417602 342.901294 
" clip-path="url(#p676eb0fc67)" style="fill: none; stroke: #5cb85c; stroke-linecap: square"/>
   </g>
   <g id="line2d_24">
    <path d="M 449.336818 353.221381 
L 473.769236 353.216343 
L 498.201654 353.213824 
L 522.634073 353.211305 
L 547.066491 353.15337 
L 571.498909 353.05765 
L 595.931328 352.886362 
L 620.363746 352.609279 
L 644.796164 352.367461 
L 669.228583 352.029924 
L 693.661001 351.410265 
L 718.093419 350.589091 
L 742.525837 349.838448 
L 766.958256 348.793089 
L 791.390674 347.717503 
L 815.823092 345.80311 
L 840.255511 343.145631 
L 864.687929 337.97929 
L 889.120347 323.696915 
L 913.552766 261.164291 
L 937.985184 124.295303 
L 962.417602 352.390132 
" clip-path="url(#p676eb0fc67)" style="fill: none; stroke: #5cb85c; stroke-linecap: square"/>
   </g>
   <g id="line2d_25">
    <path d="M 424.9044 353.218862 
L 449.336818 353.216343 
L 473.769236 353.208786 
L 498.201654 353.193673 
L 522.634073 353.123142 
L 547.066491 353.032461 
L 571.498909 352.91659 
L 595.931328 352.861173 
L 620.363746 352.770491 
L 644.796164 352.58409 
L 669.228583 352.213806 
L 693.661001 351.568958 
L 718.093419 351.115549 
L 742.525837 350.395133 
L 766.958256 349.354812 
L 791.390674 348.002143 
L 815.823092 346.347201 
L 840.255511 343.986956 
L 864.687929 339.120369 
L 889.120347 329.142857 
L 913.552766 289.802092 
L 937.985184 91.72796 
L 962.417602 346.11042 
" clip-path="url(#p676eb0fc67)" style="fill: none; stroke: #5cb85c; stroke-linecap: square"/>
   </g>
   <g id="line2d_26">
    <path d="M 424.9044 353.221381 
L 449.336818 353.2239 
L 473.769236 353.216343 
L 498.201654 353.206267 
L 522.634073 353.196192 
L 547.066491 353.135737 
L 571.498909 353.060169 
L 595.931328 352.96193 
L 620.363746 352.720112 
L 644.796164 352.460662 
L 669.228583 352.060151 
L 693.661001 351.317064 
L 718.093419 350.654584 
L 742.525837 349.866156 
L 766.958256 348.793089 
L 791.390674 347.528582 
L 815.823092 345.692277 
L 840.255511 342.936559 
L 864.687929 337.765181 
L 889.120347 325.054622 
L 913.552766 266.627867 
L 937.985184 106.937305 
L 962.417602 351.997177 
" clip-path="url(#p676eb0fc67)" style="fill: none; stroke: #5cb85c; stroke-linecap: square"/>
   </g>
   <g id="line2d_27">
    <path d="M 424.9044 353.216343 
L 449.336818 353.216343 
L 473.769236 353.208786 
L 498.201654 353.191154 
L 522.634073 353.163445 
L 547.066491 353.108029 
L 571.498909 352.919109 
L 595.931328 352.858654 
L 620.363746 352.757897 
L 644.796164 352.405245 
L 669.228583 351.929166 
L 693.661001 351.460644 
L 718.093419 350.90144 
L 742.525837 350.2843 
L 766.958256 349.206195 
L 791.390674 348.052521 
L 815.823092 346.392541 
L 840.255511 343.901312 
L 864.687929 339.530956 
L 889.120347 330.107611 
L 913.552766 294.293357 
L 937.985184 77.548861 
L 962.417602 343.979399 
" clip-path="url(#p676eb0fc67)" style="fill: none; stroke: #5cb85c; stroke-linecap: square"/>
   </g>
   <g id="line2d_28">
    <path d="M 58.418125 353.2239 
L 992.958125 353.2239 
" clip-path="url(#p676eb0fc67)" style="fill: none; stroke: #dedede; stroke-width: 2; stroke-linecap: square"/>
   </g>
   <g id="text_18">
    <!-- FastQC: Per Sequence Quality Scores -->
    <g transform="translate(377.495625 19.3575) scale(0.16 -0.16)">
     <defs>
      <path id="DejaVuSans-46" d="M 628 4666 
L 3309 4666 
L 3309 4134 
L 1259 4134 
L 1259 2759 
L 3109 2759 
L 3109 2228 
L 1259 2228 
L 1259 0 
L 628 0 
L 628 4666 
z
" transform="scale(0.015625)"/>
      <path id="DejaVuSans-73" d="M 2834 3397 
L 2834 2853 
Q 2591 2978 2328 3040 
Q 2066 3103 1784 3103 
Q 1356 3103 1142 2972 
Q 928 2841 928 2578 
Q 928 2378 1081 2264 
Q 1234 2150 1697 2047 
L 1894 2003 
Q 2506 1872 2764 1633 
Q 3022 1394 3022 966 
Q 3022 478 2636 193 
Q 2250 -91 1575 -91 
Q 1294 -91 989 -36 
Q 684 19 347 128 
L 347 722 
Q 666 556 975 473 
Q 1284 391 1588 391 
Q 1994 391 2212 530 
Q 2431 669 2431 922 
Q 2431 1156 2273 1281 
Q 2116 1406 1581 1522 
L 1381 1569 
Q 847 1681 609 1914 
Q 372 2147 372 2553 
Q 372 3047 722 3315 
Q 1072 3584 1716 3584 
Q 2034 3584 2315 3537 
Q 2597 3491 2834 3397 
z
" transform="scale(0.015625)"/>
      <path id="DejaVuSans-3a" d="M 750 794 
L 1409 794 
L 1409 0 
L 750 0 
L 750 794 
z
M 750 3309 
L 1409 3309 
L 1409 2516 
L 750 2516 
L 750 3309 
z
" transform="scale(0.015625)"/>
     </defs>
     <use xlink:href="#DejaVuSans-46"/>
     <use xlink:href="#DejaVuSans-61" x="48.394531"/>
     <use xlink:href="#DejaVuSans-73" x="109.673828"/>
     <use xlink:href="#DejaVuSans-74" x="161.773438"/>
     <use xlink:href="#DejaVuSans-51" x="200.982422"/>
     <use xlink:href="#DejaVuSans-43" x="279.693359"/>
     <use xlink:href="#DejaVuSans-3a" x="349.517578"/>
     <use xlink:href="#DejaVuSans-20" x="383.208984"/>
     <use xlink:href="#DejaVuSans-50" x="414.996094"/>
     <use xlink:href="#DejaVuSans-65" x="471.673828"/>
     <use xlink:href="#DejaVuSans-72" x="533.197266"/>
     <use xlink:href="#DejaVuSans-20" x="574.310547"/>
     <use xlink:href="#DejaVuSans-53" x="606.097656"/>
     <use xlink:href="#DejaVuSans-65" x="669.574219"/>
     <use xlink:href="#DejaVuSans-71" x="731.097656"/>
     <use xlink:href="#DejaVuSans-75" x="794.574219"/>
     <use xlink:href="#DejaVuSans-65" x="857.953125"/>
     <use xlink:href="#DejaVuSans-6e" x="919.476562"/>
     <use xlink:href="#DejaVuSans-63" x="982.855469"/>
     <use xlink:href="#DejaVuSans-65" x="1037.835938"/>
     <use xlink:href="#DejaVuSans-20" x="1099.359375"/>
     <use xlink:href="#DejaVuSans-51" x="1131.146484"/>
     <use xlink:href="#DejaVuSans-75" x="1209.857422"/>
     <use xlink:href="#DejaVuSans-61" x="1273.236328"/>
     <use xlink:href="#DejaVuSans-6c" x="1334.515625"/>
     <use xlink:href="#DejaVuSans-69" x="1362.298828"/>
     <use xlink:href="#DejaVuSans-74" x="1390.082031"/>
     <use xlink:href="#DejaVuSans-79" x="1429.291016"/>
     <use xlink:href="#DejaVuSans-20" x="1488.470703"/>
     <use xlink:href="#DejaVuSans-53" x="1520.257812"/>
     <use xlink:href="#DejaVuSans-63" x="1583.734375"/>
     <use xlink:href="#DejaVuSans-6f" x="1638.714844"/>
     <use xlink:href="#DejaVuSans-72" x="1699.896484"/>
     <use xlink:href="#DejaVuSans-65" x="1738.759766"/>
     <use xlink:href="#DejaVuSans-73" x="1800.283203"/>
    </g>
   </g>
  </g>
 </g>
 <defs>
  <clipPath id="p676eb0fc67">
   <rect x="58.418125" y="35.2559" width="934.54" height="317.968"/>
  </clipPath>
 </defs>
</svg>
