<?xml version="1.0" encoding="utf-8" standalone="no"?>
<!DOCTYPE svg PUBLIC "-//W3C//DTD SVG 1.1//EN"
  "http://www.w3.org/Graphics/SVG/1.1/DTD/svg11.dtd">
<svg xmlns:xlink="http://www.w3.org/1999/xlink" width="1000.138125pt" height="388.844525pt" viewBox="0 0 1000.138125 388.844525" xmlns="http://www.w3.org/2000/svg" version="1.1">
 <metadata>
  <rdf:RDF xmlns:dc="http://purl.org/dc/elements/1.1/" xmlns:cc="http://creativecommons.org/ns#" xmlns:rdf="http://www.w3.org/1999/02/22-rdf-syntax-ns#">
   <cc:Work>
    <dc:type rdf:resource="http://purl.org/dc/dcmitype/StillImage"/>
    <dc:date>2024-04-03T14:11:14.255273</dc:date>
    <dc:format>image/svg+xml</dc:format>
    <dc:creator>
     <cc:Agent>
      <dc:title>Matplotlib v3.8.1, https://matplotlib.org/</dc:title>
     </cc:Agent>
    </dc:creator>
   </cc:Work>
  </rdf:RDF>
 </metadata>
 <defs>
  <style type="text/css">*{stroke-linejoin: round; stroke-linecap: butt}</style>
 </defs>
 <g id="figure_1">
  <g id="axes_1">
   <g id="patch_1">
    <path d="M 53.328125 353.2239 
L 985.303125 353.2239 
L 985.303125 35.2559 
L 53.328125 35.2559 
z
" style="fill: #ffffff"/>
   </g>
   <g id="matplotlib.axis_1">
    <g id="xtick_1">
     <g id="text_1">
      <!-- 0 -->
      <g transform="translate(50.783125 366.30265) scale(0.08 -0.08)">
       <defs>
        <path id="DejaVuSans-30" d="M 2034 4250 
Q 1547 4250 1301 3770 
Q 1056 3291 1056 2328 
Q 1056 1369 1301 889 
Q 1547 409 2034 409 
Q 2525 409 2770 889 
Q 3016 1369 3016 2328 
Q 3016 3291 2770 3770 
Q 2525 4250 2034 4250 
z
M 2034 4750 
Q 2819 4750 3233 4129 
Q 3647 3509 3647 2328 
Q 3647 1150 3233 529 
Q 2819 -91 2034 -91 
Q 1250 -91 836 529 
Q 422 1150 422 2328 
Q 422 3509 836 4129 
Q 1250 4750 2034 4750 
z
" transform="scale(0.015625)"/>
       </defs>
       <use xlink:href="#DejaVuSans-30"/>
      </g>
     </g>
    </g>
    <g id="xtick_2">
     <g id="text_2">
      <!-- 20 -->
      <g transform="translate(234.633125 366.30265) scale(0.08 -0.08)">
       <defs>
        <path id="DejaVuSans-32" d="M 1228 531 
L 3431 531 
L 3431 0 
L 469 0 
L 469 531 
Q 828 903 1448 1529 
Q 2069 2156 2228 2338 
Q 2531 2678 2651 2914 
Q 2772 3150 2772 3378 
Q 2772 3750 2511 3984 
Q 2250 4219 1831 4219 
Q 1534 4219 1204 4116 
Q 875 4013 500 3803 
L 500 4441 
Q 881 4594 1212 4672 
Q 1544 4750 1819 4750 
Q 2544 4750 2975 4387 
Q 3406 4025 3406 3419 
Q 3406 3131 3298 2873 
Q 3191 2616 2906 2266 
Q 2828 2175 2409 1742 
Q 1991 1309 1228 531 
z
" transform="scale(0.015625)"/>
       </defs>
       <use xlink:href="#DejaVuSans-32"/>
       <use xlink:href="#DejaVuSans-30" x="63.623047"/>
      </g>
     </g>
    </g>
    <g id="xtick_3">
     <g id="text_3">
      <!-- 40 -->
      <g transform="translate(421.028125 366.30265) scale(0.08 -0.08)">
       <defs>
        <path id="DejaVuSans-34" d="M 2419 4116 
L 825 1625 
L 2419 1625 
L 2419 4116 
z
M 2253 4666 
L 3047 4666 
L 3047 1625 
L 3713 1625 
L 3713 1100 
L 3047 1100 
L 3047 0 
L 2419 0 
L 2419 1100 
L 313 1100 
L 313 1709 
L 2253 4666 
z
" transform="scale(0.015625)"/>
       </defs>
       <use xlink:href="#DejaVuSans-34"/>
       <use xlink:href="#DejaVuSans-30" x="63.623047"/>
      </g>
     </g>
    </g>
    <g id="xtick_4">
     <g id="text_4">
      <!-- 60 -->
      <g transform="translate(607.423125 366.30265) scale(0.08 -0.08)">
       <defs>
        <path id="DejaVuSans-36" d="M 2113 2584 
Q 1688 2584 1439 2293 
Q 1191 2003 1191 1497 
Q 1191 994 1439 701 
Q 1688 409 2113 409 
Q 2538 409 2786 701 
Q 3034 994 3034 1497 
Q 3034 2003 2786 2293 
Q 2538 2584 2113 2584 
z
M 3366 4563 
L 3366 3988 
Q 3128 4100 2886 4159 
Q 2644 4219 2406 4219 
Q 1781 4219 1451 3797 
Q 1122 3375 1075 2522 
Q 1259 2794 1537 2939 
Q 1816 3084 2150 3084 
Q 2853 3084 3261 2657 
Q 3669 2231 3669 1497 
Q 3669 778 3244 343 
Q 2819 -91 2113 -91 
Q 1303 -91 875 529 
Q 447 1150 447 2328 
Q 447 3434 972 4092 
Q 1497 4750 2381 4750 
Q 2619 4750 2861 4703 
Q 3103 4656 3366 4563 
z
" transform="scale(0.015625)"/>
       </defs>
       <use xlink:href="#DejaVuSans-36"/>
       <use xlink:href="#DejaVuSans-30" x="63.623047"/>
      </g>
     </g>
    </g>
    <g id="xtick_5">
     <g id="text_5">
      <!-- 80 -->
      <g transform="translate(793.818125 366.30265) scale(0.08 -0.08)">
       <defs>
        <path id="DejaVuSans-38" d="M 2034 2216 
Q 1584 2216 1326 1975 
Q 1069 1734 1069 1313 
Q 1069 891 1326 650 
Q 1584 409 2034 409 
Q 2484 409 2743 651 
Q 3003 894 3003 1313 
Q 3003 1734 2745 1975 
Q 2488 2216 2034 2216 
z
M 1403 2484 
Q 997 2584 770 2862 
Q 544 3141 544 3541 
Q 544 4100 942 4425 
Q 1341 4750 2034 4750 
Q 2731 4750 3128 4425 
Q 3525 4100 3525 3541 
Q 3525 3141 3298 2862 
Q 3072 2584 2669 2484 
Q 3125 2378 3379 2068 
Q 3634 1759 3634 1313 
Q 3634 634 3220 271 
Q 2806 -91 2034 -91 
Q 1263 -91 848 271 
Q 434 634 434 1313 
Q 434 1759 690 2068 
Q 947 2378 1403 2484 
z
M 1172 3481 
Q 1172 3119 1398 2916 
Q 1625 2713 2034 2713 
Q 2441 2713 2670 2916 
Q 2900 3119 2900 3481 
Q 2900 3844 2670 4047 
Q 2441 4250 2034 4250 
Q 1625 4250 1398 4047 
Q 1172 3844 1172 3481 
z
" transform="scale(0.015625)"/>
       </defs>
       <use xlink:href="#DejaVuSans-38"/>
       <use xlink:href="#DejaVuSans-30" x="63.623047"/>
      </g>
     </g>
    </g>
    <g id="xtick_6">
     <g id="text_6">
      <!-- 100 -->
      <g transform="translate(977.668125 366.30265) scale(0.08 -0.08)">
       <defs>
        <path id="DejaVuSans-31" d="M 794 531 
L 1825 531 
L 1825 4091 
L 703 3866 
L 703 4441 
L 1819 4666 
L 2450 4666 
L 2450 531 
L 3481 531 
L 3481 0 
L 794 0 
L 794 531 
z
" transform="scale(0.015625)"/>
       </defs>
       <use xlink:href="#DejaVuSans-31"/>
       <use xlink:href="#DejaVuSans-30" x="63.623047"/>
       <use xlink:href="#DejaVuSans-30" x="127.246094"/>
      </g>
     </g>
    </g>
    <g id="text_7">
     <!-- % GC -->
     <g transform="translate(505.610156 379.564837) scale(0.1 -0.1)">
      <defs>
       <path id="DejaVuSans-25" d="M 4653 2053 
Q 4381 2053 4226 1822 
Q 4072 1591 4072 1178 
Q 4072 772 4226 539 
Q 4381 306 4653 306 
Q 4919 306 5073 539 
Q 5228 772 5228 1178 
Q 5228 1588 5073 1820 
Q 4919 2053 4653 2053 
z
M 4653 2450 
Q 5147 2450 5437 2106 
Q 5728 1763 5728 1178 
Q 5728 594 5436 251 
Q 5144 -91 4653 -91 
Q 4153 -91 3862 251 
Q 3572 594 3572 1178 
Q 3572 1766 3864 2108 
Q 4156 2450 4653 2450 
z
M 1428 4353 
Q 1159 4353 1004 4120 
Q 850 3888 850 3481 
Q 850 3069 1003 2837 
Q 1156 2606 1428 2606 
Q 1700 2606 1854 2837 
Q 2009 3069 2009 3481 
Q 2009 3884 1853 4118 
Q 1697 4353 1428 4353 
z
M 4250 4750 
L 4750 4750 
L 1831 -91 
L 1331 -91 
L 4250 4750 
z
M 1428 4750 
Q 1922 4750 2215 4408 
Q 2509 4066 2509 3481 
Q 2509 2891 2217 2550 
Q 1925 2209 1428 2209 
Q 931 2209 642 2551 
Q 353 2894 353 3481 
Q 353 4063 643 4406 
Q 934 4750 1428 4750 
z
" transform="scale(0.015625)"/>
       <path id="DejaVuSans-20" transform="scale(0.015625)"/>
       <path id="DejaVuSans-47" d="M 3809 666 
L 3809 1919 
L 2778 1919 
L 2778 2438 
L 4434 2438 
L 4434 434 
Q 4069 175 3628 42 
Q 3188 -91 2688 -91 
Q 1594 -91 976 548 
Q 359 1188 359 2328 
Q 359 3472 976 4111 
Q 1594 4750 2688 4750 
Q 3144 4750 3555 4637 
Q 3966 4525 4313 4306 
L 4313 3634 
Q 3963 3931 3569 4081 
Q 3175 4231 2741 4231 
Q 1884 4231 1454 3753 
Q 1025 3275 1025 2328 
Q 1025 1384 1454 906 
Q 1884 428 2741 428 
Q 3075 428 3337 486 
Q 3600 544 3809 666 
z
" transform="scale(0.015625)"/>
       <path id="DejaVuSans-43" d="M 4122 4306 
L 4122 3641 
Q 3803 3938 3442 4084 
Q 3081 4231 2675 4231 
Q 1875 4231 1450 3742 
Q 1025 3253 1025 2328 
Q 1025 1406 1450 917 
Q 1875 428 2675 428 
Q 3081 428 3442 575 
Q 3803 722 4122 1019 
L 4122 359 
Q 3791 134 3420 21 
Q 3050 -91 2638 -91 
Q 1578 -91 968 557 
Q 359 1206 359 2328 
Q 359 3453 968 4101 
Q 1578 4750 2638 4750 
Q 3056 4750 3426 4639 
Q 3797 4528 4122 4306 
z
" transform="scale(0.015625)"/>
      </defs>
      <use xlink:href="#DejaVuSans-25"/>
      <use xlink:href="#DejaVuSans-20" x="95.019531"/>
      <use xlink:href="#DejaVuSans-47" x="126.806641"/>
      <use xlink:href="#DejaVuSans-43" x="204.296875"/>
     </g>
    </g>
   </g>
   <g id="matplotlib.axis_2">
    <g id="ytick_1">
     <g id="line2d_1">
      <path d="M 53.328125 353.2239 
L 985.303125 353.2239 
" clip-path="url(#pb477e2fc0d)" style="fill: none; stroke: #dedede; stroke-linecap: square"/>
     </g>
     <g id="text_8">
      <!-- 0 -->
      <g transform="translate(41.238125 356.263275) scale(0.08 -0.08)">
       <use xlink:href="#DejaVuSans-30"/>
      </g>
     </g>
    </g>
    <g id="ytick_2">
     <g id="line2d_2">
      <path d="M 53.328125 284.606031 
L 985.303125 284.606031 
" clip-path="url(#pb477e2fc0d)" style="fill: none; stroke: #dedede; stroke-linecap: square"/>
     </g>
     <g id="text_9">
      <!-- 10000 -->
      <g transform="translate(20.878125 287.645406) scale(0.08 -0.08)">
       <use xlink:href="#DejaVuSans-31"/>
       <use xlink:href="#DejaVuSans-30" x="63.623047"/>
       <use xlink:href="#DejaVuSans-30" x="127.246094"/>
       <use xlink:href="#DejaVuSans-30" x="190.869141"/>
       <use xlink:href="#DejaVuSans-30" x="254.492188"/>
      </g>
     </g>
    </g>
    <g id="ytick_3">
     <g id="line2d_3">
      <path d="M 53.328125 215.988162 
L 985.303125 215.988162 
" clip-path="url(#pb477e2fc0d)" style="fill: none; stroke: #dedede; stroke-linecap: square"/>
     </g>
     <g id="text_10">
      <!-- 20000 -->
      <g transform="translate(20.878125 219.027537) scale(0.08 -0.08)">
       <use xlink:href="#DejaVuSans-32"/>
       <use xlink:href="#DejaVuSans-30" x="63.623047"/>
       <use xlink:href="#DejaVuSans-30" x="127.246094"/>
       <use xlink:href="#DejaVuSans-30" x="190.869141"/>
       <use xlink:href="#DejaVuSans-30" x="254.492188"/>
      </g>
     </g>
    </g>
    <g id="ytick_4">
     <g id="line2d_4">
      <path d="M 53.328125 147.370293 
L 985.303125 147.370293 
" clip-path="url(#pb477e2fc0d)" style="fill: none; stroke: #dedede; stroke-linecap: square"/>
     </g>
     <g id="text_11">
      <!-- 30000 -->
      <g transform="translate(20.878125 150.409668) scale(0.08 -0.08)">
       <defs>
        <path id="DejaVuSans-33" d="M 2597 2516 
Q 3050 2419 3304 2112 
Q 3559 1806 3559 1356 
Q 3559 666 3084 287 
Q 2609 -91 1734 -91 
Q 1441 -91 1130 -33 
Q 819 25 488 141 
L 488 750 
Q 750 597 1062 519 
Q 1375 441 1716 441 
Q 2309 441 2620 675 
Q 2931 909 2931 1356 
Q 2931 1769 2642 2001 
Q 2353 2234 1838 2234 
L 1294 2234 
L 1294 2753 
L 1863 2753 
Q 2328 2753 2575 2939 
Q 2822 3125 2822 3475 
Q 2822 3834 2567 4026 
Q 2313 4219 1838 4219 
Q 1578 4219 1281 4162 
Q 984 4106 628 3988 
L 628 4550 
Q 988 4650 1302 4700 
Q 1616 4750 1894 4750 
Q 2613 4750 3031 4423 
Q 3450 4097 3450 3541 
Q 3450 3153 3228 2886 
Q 3006 2619 2597 2516 
z
" transform="scale(0.015625)"/>
       </defs>
       <use xlink:href="#DejaVuSans-33"/>
       <use xlink:href="#DejaVuSans-30" x="63.623047"/>
       <use xlink:href="#DejaVuSans-30" x="127.246094"/>
       <use xlink:href="#DejaVuSans-30" x="190.869141"/>
       <use xlink:href="#DejaVuSans-30" x="254.492188"/>
      </g>
     </g>
    </g>
    <g id="ytick_5">
     <g id="line2d_5">
      <path d="M 53.328125 78.752424 
L 985.303125 78.752424 
" clip-path="url(#pb477e2fc0d)" style="fill: none; stroke: #dedede; stroke-linecap: square"/>
     </g>
     <g id="text_12">
      <!-- 40000 -->
      <g transform="translate(20.878125 81.791799) scale(0.08 -0.08)">
       <use xlink:href="#DejaVuSans-34"/>
       <use xlink:href="#DejaVuSans-30" x="63.623047"/>
       <use xlink:href="#DejaVuSans-30" x="127.246094"/>
       <use xlink:href="#DejaVuSans-30" x="190.869141"/>
       <use xlink:href="#DejaVuSans-30" x="254.492188"/>
      </g>
     </g>
    </g>
    <g id="text_13">
     <!-- Count -->
     <g transform="translate(14.798437 209.088338) rotate(-90) scale(0.1 -0.1)">
      <defs>
       <path id="DejaVuSans-6f" d="M 1959 3097 
Q 1497 3097 1228 2736 
Q 959 2375 959 1747 
Q 959 1119 1226 758 
Q 1494 397 1959 397 
Q 2419 397 2687 759 
Q 2956 1122 2956 1747 
Q 2956 2369 2687 2733 
Q 2419 3097 1959 3097 
z
M 1959 3584 
Q 2709 3584 3137 3096 
Q 3566 2609 3566 1747 
Q 3566 888 3137 398 
Q 2709 -91 1959 -91 
Q 1206 -91 779 398 
Q 353 888 353 1747 
Q 353 2609 779 3096 
Q 1206 3584 1959 3584 
z
" transform="scale(0.015625)"/>
       <path id="DejaVuSans-75" d="M 544 1381 
L 544 3500 
L 1119 3500 
L 1119 1403 
Q 1119 906 1312 657 
Q 1506 409 1894 409 
Q 2359 409 2629 706 
Q 2900 1003 2900 1516 
L 2900 3500 
L 3475 3500 
L 3475 0 
L 2900 0 
L 2900 538 
Q 2691 219 2414 64 
Q 2138 -91 1772 -91 
Q 1169 -91 856 284 
Q 544 659 544 1381 
z
M 1991 3584 
L 1991 3584 
z
" transform="scale(0.015625)"/>
       <path id="DejaVuSans-6e" d="M 3513 2113 
L 3513 0 
L 2938 0 
L 2938 2094 
Q 2938 2591 2744 2837 
Q 2550 3084 2163 3084 
Q 1697 3084 1428 2787 
Q 1159 2491 1159 1978 
L 1159 0 
L 581 0 
L 581 3500 
L 1159 3500 
L 1159 2956 
Q 1366 3272 1645 3428 
Q 1925 3584 2291 3584 
Q 2894 3584 3203 3211 
Q 3513 2838 3513 2113 
z
" transform="scale(0.015625)"/>
       <path id="DejaVuSans-74" d="M 1172 4494 
L 1172 3500 
L 2356 3500 
L 2356 3053 
L 1172 3053 
L 1172 1153 
Q 1172 725 1289 603 
Q 1406 481 1766 481 
L 2356 481 
L 2356 0 
L 1766 0 
Q 1100 0 847 248 
Q 594 497 594 1153 
L 594 3053 
L 172 3053 
L 172 3500 
L 594 3500 
L 594 4494 
L 1172 4494 
z
" transform="scale(0.015625)"/>
      </defs>
      <use xlink:href="#DejaVuSans-43"/>
      <use xlink:href="#DejaVuSans-6f" x="69.824219"/>
      <use xlink:href="#DejaVuSans-75" x="131.005859"/>
      <use xlink:href="#DejaVuSans-6e" x="194.384766"/>
      <use xlink:href="#DejaVuSans-74" x="257.763672"/>
     </g>
    </g>
   </g>
   <g id="line2d_6">
    <path d="M 53.328125 353.2239 
L 62.647875 353.2239 
L 71.967625 353.2239 
L 81.287375 353.2239 
L 90.607125 353.2239 
L 99.926875 353.2239 
L 109.246625 353.2239 
L 118.566375 353.2239 
L 127.886125 353.2239 
L 137.205875 353.221613 
L 146.525625 353.221613 
L 155.845375 353.2239 
L 165.165125 353.2239 
L 174.484875 353.221613 
L 183.804625 353.221613 
L 193.124375 353.2239 
L 202.444125 353.2239 
L 211.763875 353.2239 
L 221.083625 353.2239 
L 230.403375 353.2239 
L 239.723125 353.2239 
L 249.042875 353.2239 
L 258.362625 353.221613 
L 267.682375 353.221613 
L 277.002125 353.221613 
L 286.321875 353.2239 
L 295.641625 353.2239 
L 304.961375 353.2239 
L 314.281125 353.221613 
L 323.600875 353.221613 
L 332.920625 353.2239 
L 342.240375 353.219325 
L 351.560125 353.221613 
L 360.879875 353.219325 
L 370.199625 353.217038 
L 379.519375 353.214751 
L 388.839125 353.207889 
L 398.158875 353.201027 
L 407.478625 353.201027 
L 416.798375 353.178155 
L 426.118125 353.159857 
L 435.437875 353.134697 
L 444.757625 353.10725 
L 454.077375 353.034057 
L 463.397125 352.883098 
L 472.716875 352.190057 
L 482.036625 343.352076 
L 491.356375 343.786656 
L 500.676125 346.29807 
L 509.995875 342.611003 
L 519.315625 334.244197 
L 528.635375 324.088753 
L 537.955125 314.781883 
L 547.274875 218.204519 
L 556.594625 117.615298 
L 565.914375 322.178889 
L 575.234125 341.34386 
L 584.553875 346.650308 
L 593.873625 347.864844 
L 603.193375 347.366221 
L 612.513125 348.997039 
L 621.832875 351.869841 
L 631.152625 352.642935 
L 640.472375 352.869374 
L 649.792125 352.990599 
L 659.111875 353.063792 
L 668.431625 353.079802 
L 677.751375 353.127835 
L 687.071125 353.139271 
L 696.390875 353.136984 
L 705.710625 353.150708 
L 715.030375 353.180442 
L 724.350125 353.166718 
L 733.669875 353.182729 
L 742.989625 353.17358 
L 752.309375 353.169006 
L 761.629125 353.185017 
L 770.948875 353.203315 
L 780.268625 353.203315 
L 789.588375 353.180442 
L 798.908125 353.196453 
L 808.227875 353.187304 
L 817.547625 353.185017 
L 826.867375 353.201027 
L 836.187125 353.205602 
L 845.506875 353.207889 
L 854.826625 353.207889 
L 864.146375 353.212464 
L 873.466125 353.207889 
L 882.785875 353.207889 
L 892.105625 353.205602 
L 901.425375 353.219325 
L 910.745125 353.219325 
L 920.064875 353.221613 
L 929.384625 353.221613 
L 938.704375 353.2239 
L 948.024125 353.2239 
L 957.343875 353.2239 
L 966.663625 353.2239 
L 975.983375 353.2239 
L 985.303125 353.2239 
" clip-path="url(#pb477e2fc0d)" style="fill: none; stroke: #d9534f; stroke-linecap: square"/>
   </g>
   <g id="line2d_7">
    <path d="M 53.328125 353.2239 
L 62.647875 353.2239 
L 71.967625 353.2239 
L 81.287375 353.2239 
L 90.607125 353.2239 
L 99.926875 353.2239 
L 109.246625 353.221613 
L 118.566375 353.221613 
L 127.886125 353.2239 
L 137.205875 353.2239 
L 146.525625 353.2239 
L 155.845375 353.2239 
L 165.165125 353.221613 
L 174.484875 353.2239 
L 183.804625 353.2239 
L 193.124375 353.2239 
L 202.444125 353.2239 
L 211.763875 353.2239 
L 221.083625 353.2239 
L 230.403375 353.2239 
L 239.723125 353.219325 
L 249.042875 353.221613 
L 258.362625 353.2239 
L 267.682375 353.2239 
L 277.002125 353.2239 
L 286.321875 353.2239 
L 295.641625 353.221613 
L 304.961375 353.2239 
L 314.281125 353.221613 
L 323.600875 353.221613 
L 332.920625 353.2239 
L 342.240375 353.221613 
L 351.560125 353.2239 
L 360.879875 353.219325 
L 370.199625 353.214751 
L 379.519375 353.219325 
L 388.839125 353.219325 
L 398.158875 353.217038 
L 407.478625 353.207889 
L 416.798375 353.203315 
L 426.118125 353.164431 
L 435.437875 353.159857 
L 444.757625 353.004323 
L 454.077375 351.707445 
L 463.397125 351.359781 
L 472.716875 343.297182 
L 482.036625 347.926601 
L 491.356375 345.369441 
L 500.676125 337.839774 
L 509.995875 341.229497 
L 519.315625 339.486603 
L 528.635375 337.837487 
L 537.955125 328.576361 
L 547.274875 323.233317 
L 556.594625 332.158214 
L 565.914375 336.229541 
L 575.234125 323.425447 
L 584.553875 137.676875 
L 593.873625 149.417393 
L 603.193375 341.723545 
L 612.513125 349.511673 
L 621.832875 350.790253 
L 631.152625 351.284302 
L 640.472375 352.501125 
L 649.792125 352.3799 
L 659.111875 352.219792 
L 668.431625 352.084843 
L 677.751375 352.958578 
L 687.071125 352.995174 
L 696.390875 353.079802 
L 705.710625 353.127835 
L 715.030375 353.130122 
L 724.350125 353.136984 
L 733.669875 353.164431 
L 742.989625 353.17358 
L 752.309375 353.169006 
L 761.629125 353.185017 
L 770.948875 353.194166 
L 780.268625 353.182729 
L 789.588375 353.185017 
L 798.908125 353.207889 
L 808.227875 353.201027 
L 817.547625 353.196453 
L 826.867375 353.210176 
L 836.187125 353.212464 
L 845.506875 353.212464 
L 854.826625 353.221613 
L 864.146375 353.219325 
L 873.466125 353.212464 
L 882.785875 353.217038 
L 892.105625 353.221613 
L 901.425375 353.2239 
L 910.745125 353.221613 
L 920.064875 353.2239 
L 929.384625 353.2239 
L 938.704375 353.2239 
L 948.024125 353.2239 
L 957.343875 353.2239 
L 966.663625 353.2239 
L 975.983375 353.2239 
L 985.303125 353.2239 
" clip-path="url(#pb477e2fc0d)" style="fill: none; stroke: #d9534f; stroke-linecap: square"/>
   </g>
   <g id="line2d_8">
    <path d="M 53.328125 353.2239 
L 62.647875 353.2239 
L 71.967625 353.2239 
L 81.287375 353.2239 
L 90.607125 353.2239 
L 99.926875 353.2239 
L 109.246625 353.221613 
L 118.566375 353.221613 
L 127.886125 353.2239 
L 137.205875 353.2239 
L 146.525625 353.2239 
L 155.845375 353.2239 
L 165.165125 353.2239 
L 174.484875 353.2239 
L 183.804625 353.2239 
L 193.124375 353.221613 
L 202.444125 353.2239 
L 211.763875 353.2239 
L 221.083625 353.2239 
L 230.403375 353.2239 
L 239.723125 353.221613 
L 249.042875 353.221613 
L 258.362625 353.2239 
L 267.682375 353.2239 
L 277.002125 353.2239 
L 286.321875 353.2239 
L 295.641625 353.221613 
L 304.961375 353.2239 
L 314.281125 353.2239 
L 323.600875 353.2239 
L 332.920625 353.221613 
L 342.240375 353.217038 
L 351.560125 353.221613 
L 360.879875 353.221613 
L 370.199625 353.214751 
L 379.519375 353.219325 
L 388.839125 353.221613 
L 398.158875 353.217038 
L 407.478625 353.214751 
L 416.798375 353.180442 
L 426.118125 353.169006 
L 435.437875 353.130122 
L 444.757625 353.091239 
L 454.077375 352.990599 
L 463.397125 352.807618 
L 472.716875 351.73718 
L 482.036625 334.523243 
L 491.356375 336.268425 
L 500.676125 346.336953 
L 509.995875 342.693344 
L 519.315625 341.160879 
L 528.635375 331.556664 
L 537.955125 323.560395 
L 547.274875 226.072702 
L 556.594625 110.426432 
L 565.914375 328.082313 
L 575.234125 345.538699 
L 584.553875 347.384519 
L 593.873625 350.172692 
L 603.193375 351.245418 
L 612.513125 351.215684 
L 621.832875 352.359315 
L 631.152625 352.727564 
L 640.472375 352.892247 
L 649.792125 352.95629 
L 659.111875 353.070653 
L 668.431625 353.079802 
L 677.751375 353.127835 
L 687.071125 353.139271 
L 696.390875 353.169006 
L 705.710625 353.13241 
L 715.030375 353.127835 
L 724.350125 353.150708 
L 733.669875 353.159857 
L 742.989625 353.180442 
L 752.309375 353.185017 
L 761.629125 353.185017 
L 770.948875 353.159857 
L 780.268625 353.185017 
L 789.588375 353.201027 
L 798.908125 353.201027 
L 808.227875 353.205602 
L 817.547625 353.201027 
L 826.867375 353.205602 
L 836.187125 353.212464 
L 845.506875 353.207889 
L 854.826625 353.203315 
L 864.146375 353.210176 
L 873.466125 353.210176 
L 882.785875 353.214751 
L 892.105625 353.219325 
L 901.425375 353.214751 
L 910.745125 353.217038 
L 920.064875 353.219325 
L 929.384625 353.2239 
L 938.704375 353.221613 
L 948.024125 353.2239 
L 957.343875 353.2239 
L 966.663625 353.2239 
L 975.983375 353.2239 
L 985.303125 353.2239 
" clip-path="url(#pb477e2fc0d)" style="fill: none; stroke: #d9534f; stroke-linecap: square"/>
   </g>
   <g id="line2d_9">
    <path d="M 53.328125 353.2239 
L 62.647875 353.2239 
L 71.967625 353.2239 
L 81.287375 353.2239 
L 90.607125 353.2239 
L 99.926875 353.2239 
L 109.246625 353.2239 
L 118.566375 353.221613 
L 127.886125 353.221613 
L 137.205875 353.2239 
L 146.525625 353.2239 
L 155.845375 353.2239 
L 165.165125 353.2239 
L 174.484875 353.2239 
L 183.804625 353.2239 
L 193.124375 353.2239 
L 202.444125 353.2239 
L 211.763875 353.2239 
L 221.083625 353.2239 
L 230.403375 353.2239 
L 239.723125 353.2239 
L 249.042875 353.2239 
L 258.362625 353.2239 
L 267.682375 353.221613 
L 277.002125 353.221613 
L 286.321875 353.2239 
L 295.641625 353.2239 
L 304.961375 353.221613 
L 314.281125 353.221613 
L 323.600875 353.2239 
L 332.920625 353.2239 
L 342.240375 353.2239 
L 351.560125 353.219325 
L 360.879875 353.2239 
L 370.199625 353.221613 
L 379.519375 353.217038 
L 388.839125 353.207889 
L 398.158875 353.205602 
L 407.478625 353.210176 
L 416.798375 353.203315 
L 426.118125 353.189591 
L 435.437875 353.162144 
L 444.757625 353.130122 
L 454.077375 352.919694 
L 463.397125 351.890426 
L 472.716875 335.774376 
L 482.036625 348.768313 
L 491.356375 344.118309 
L 500.676125 337.560728 
L 509.995875 348.217083 
L 519.315625 337.972435 
L 528.635375 342.192434 
L 537.955125 339.216706 
L 547.274875 337.334289 
L 556.594625 338.987979 
L 565.914375 342.290786 
L 575.234125 332.489867 
L 584.553875 118.569086 
L 593.873625 126.316044 
L 603.193375 345.106406 
L 612.513125 350.156681 
L 621.832875 351.744041 
L 631.152625 352.199206 
L 640.472375 352.592616 
L 649.792125 351.492442 
L 659.111875 352.709266 
L 668.431625 352.803044 
L 677.751375 352.999748 
L 687.071125 353.047781 
L 696.390875 353.077515 
L 705.710625 353.118686 
L 715.030375 353.13241 
L 724.350125 353.159857 
L 733.669875 353.164431 
L 742.989625 353.162144 
L 752.309375 353.169006 
L 761.629125 353.164431 
L 770.948875 353.178155 
L 780.268625 353.185017 
L 789.588375 353.185017 
L 798.908125 353.182729 
L 808.227875 353.189591 
L 817.547625 353.214751 
L 826.867375 353.207889 
L 836.187125 353.212464 
L 845.506875 353.214751 
L 854.826625 353.217038 
L 864.146375 353.217038 
L 873.466125 353.212464 
L 882.785875 353.212464 
L 892.105625 353.217038 
L 901.425375 353.221613 
L 910.745125 353.2239 
L 920.064875 353.2239 
L 929.384625 353.2239 
L 938.704375 353.2239 
L 948.024125 353.2239 
L 957.343875 353.2239 
L 966.663625 353.2239 
L 975.983375 353.2239 
L 985.303125 353.2239 
" clip-path="url(#pb477e2fc0d)" style="fill: none; stroke: #d9534f; stroke-linecap: square"/>
   </g>
   <g id="line2d_10">
    <path d="M 53.328125 353.2239 
L 62.647875 353.2239 
L 71.967625 353.2239 
L 81.287375 353.2239 
L 90.607125 353.2239 
L 99.926875 353.2239 
L 109.246625 353.2239 
L 118.566375 353.2239 
L 127.886125 353.2239 
L 137.205875 353.2239 
L 146.525625 353.221613 
L 155.845375 353.221613 
L 165.165125 353.2239 
L 174.484875 353.221613 
L 183.804625 353.2239 
L 193.124375 353.2239 
L 202.444125 353.2239 
L 211.763875 353.2239 
L 221.083625 353.2239 
L 230.403375 353.2239 
L 239.723125 353.2239 
L 249.042875 353.2239 
L 258.362625 353.2239 
L 267.682375 353.2239 
L 277.002125 353.2239 
L 286.321875 353.2239 
L 295.641625 353.221613 
L 304.961375 353.221613 
L 314.281125 353.221613 
L 323.600875 353.221613 
L 332.920625 353.2239 
L 342.240375 353.219325 
L 351.560125 353.212464 
L 360.879875 353.210176 
L 370.199625 353.212464 
L 379.519375 353.217038 
L 388.839125 353.207889 
L 398.158875 353.194166 
L 407.478625 353.185017 
L 416.798375 353.134697 
L 426.118125 353.152995 
L 435.437875 353.141559 
L 444.757625 353.050068 
L 454.077375 352.942567 
L 463.397125 352.686393 
L 472.716875 351.041852 
L 482.036625 333.404772 
L 491.356375 341.197475 
L 500.676125 345.065235 
L 509.995875 336.554332 
L 519.315625 333.329293 
L 528.635375 321.764894 
L 537.955125 315.349124 
L 547.274875 291.614203 
L 556.594625 115.490431 
L 565.914375 316.607118 
L 575.234125 337.018647 
L 584.553875 343.836976 
L 593.873625 348.448096 
L 603.193375 348.738579 
L 612.513125 349.024486 
L 621.832875 351.924735 
L 631.152625 352.718415 
L 640.472375 352.903683 
L 649.792125 353.00661 
L 659.111875 353.045494 
L 668.431625 353.079802 
L 677.751375 353.091239 
L 687.071125 353.13241 
L 696.390875 353.143846 
L 705.710625 353.157569 
L 715.030375 353.139271 
L 724.350125 353.146133 
L 733.669875 353.162144 
L 742.989625 353.159857 
L 752.309375 353.185017 
L 761.629125 353.182729 
L 770.948875 353.178155 
L 780.268625 353.194166 
L 789.588375 353.196453 
L 798.908125 353.19874 
L 808.227875 353.207889 
L 817.547625 353.203315 
L 826.867375 353.19874 
L 836.187125 353.207889 
L 845.506875 353.214751 
L 854.826625 353.212464 
L 864.146375 353.217038 
L 873.466125 353.212464 
L 882.785875 353.212464 
L 892.105625 353.217038 
L 901.425375 353.221613 
L 910.745125 353.219325 
L 920.064875 353.221613 
L 929.384625 353.219325 
L 938.704375 353.219325 
L 948.024125 353.221613 
L 957.343875 353.2239 
L 966.663625 353.2239 
L 975.983375 353.2239 
L 985.303125 353.2239 
" clip-path="url(#pb477e2fc0d)" style="fill: none; stroke: #d9534f; stroke-linecap: square"/>
   </g>
   <g id="line2d_11">
    <path d="M 53.328125 353.2239 
L 62.647875 353.2239 
L 71.967625 353.2239 
L 81.287375 353.2239 
L 90.607125 353.2239 
L 99.926875 353.2239 
L 109.246625 353.2239 
L 118.566375 353.2239 
L 127.886125 353.2239 
L 137.205875 353.2239 
L 146.525625 353.2239 
L 155.845375 353.2239 
L 165.165125 353.2239 
L 174.484875 353.2239 
L 183.804625 353.221613 
L 193.124375 353.2239 
L 202.444125 353.219325 
L 211.763875 353.219325 
L 221.083625 353.221613 
L 230.403375 353.221613 
L 239.723125 353.2239 
L 249.042875 353.2239 
L 258.362625 353.221613 
L 267.682375 353.221613 
L 277.002125 353.2239 
L 286.321875 353.2239 
L 295.641625 353.2239 
L 304.961375 353.2239 
L 314.281125 353.2239 
L 323.600875 353.221613 
L 332.920625 353.221613 
L 342.240375 353.221613 
L 351.560125 353.221613 
L 360.879875 353.214751 
L 370.199625 353.212464 
L 379.519375 353.214751 
L 388.839125 353.207889 
L 398.158875 353.212464 
L 407.478625 353.19874 
L 416.798375 353.182729 
L 426.118125 353.166718 
L 435.437875 353.118686 
L 444.757625 353.008897 
L 454.077375 351.874415 
L 463.397125 351.087597 
L 472.716875 334.184729 
L 482.036625 347.569788 
L 491.356375 346.016736 
L 500.676125 336.931731 
L 509.995875 340.584489 
L 519.315625 333.754723 
L 528.635375 333.112003 
L 537.955125 331.28448 
L 547.274875 328.057153 
L 556.594625 331.494908 
L 565.914375 336.355341 
L 575.234125 317.682131 
L 584.553875 128.427187 
L 593.873625 302.021246 
L 603.193375 338.297226 
L 612.513125 346.524509 
L 621.832875 351.545049 
L 631.152625 352.194632 
L 640.472375 352.601765 
L 649.792125 352.823629 
L 659.111875 352.862513 
L 668.431625 352.816767 
L 677.751375 352.997461 
L 687.071125 353.020334 
L 696.390875 353.091239 
L 705.710625 353.114111 
L 715.030375 353.12326 
L 724.350125 353.146133 
L 733.669875 353.150708 
L 742.989625 353.164431 
L 752.309375 353.178155 
L 761.629125 353.169006 
L 770.948875 353.169006 
L 780.268625 353.182729 
L 789.588375 353.191878 
L 798.908125 353.203315 
L 808.227875 353.196453 
L 817.547625 353.196453 
L 826.867375 353.201027 
L 836.187125 353.201027 
L 845.506875 353.207889 
L 854.826625 353.217038 
L 864.146375 353.219325 
L 873.466125 353.217038 
L 882.785875 353.221613 
L 892.105625 353.214751 
L 901.425375 353.217038 
L 910.745125 353.221613 
L 920.064875 353.2239 
L 929.384625 353.2239 
L 938.704375 353.221613 
L 948.024125 353.221613 
L 957.343875 353.221613 
L 966.663625 353.2239 
L 975.983375 353.2239 
L 985.303125 353.2239 
" clip-path="url(#pb477e2fc0d)" style="fill: none; stroke: #d9534f; stroke-linecap: square"/>
   </g>
   <g id="line2d_12">
    <path d="M 53.328125 353.2239 
L 62.647875 353.2239 
L 71.967625 353.2239 
L 81.287375 353.2239 
L 90.607125 353.2239 
L 99.926875 353.2239 
L 109.246625 353.2239 
L 118.566375 353.221613 
L 127.886125 353.221613 
L 137.205875 353.2239 
L 146.525625 353.2239 
L 155.845375 353.2239 
L 165.165125 353.2239 
L 174.484875 353.2239 
L 183.804625 353.2239 
L 193.124375 353.2239 
L 202.444125 353.2239 
L 211.763875 353.2239 
L 221.083625 353.2239 
L 230.403375 353.221613 
L 239.723125 353.2239 
L 249.042875 353.2239 
L 258.362625 353.2239 
L 267.682375 353.2239 
L 277.002125 353.2239 
L 286.321875 353.2239 
L 295.641625 353.2239 
L 304.961375 353.221613 
L 314.281125 353.221613 
L 323.600875 353.2239 
L 332.920625 353.2239 
L 342.240375 353.2239 
L 351.560125 353.219325 
L 360.879875 353.2239 
L 370.199625 353.221613 
L 379.519375 353.214751 
L 388.839125 353.214751 
L 398.158875 353.19874 
L 407.478625 353.207889 
L 416.798375 353.185017 
L 426.118125 353.17358 
L 435.437875 353.150708 
L 444.757625 353.091239 
L 454.077375 353.066079 
L 463.397125 352.960865 
L 472.716875 352.594903 
L 482.036625 347.174091 
L 491.356375 348.32001 
L 500.676125 349.616887 
L 509.995875 339.724478 
L 519.315625 344.305864 
L 528.635375 339.15495 
L 537.955125 322.757566 
L 547.274875 187.619248 
L 556.594625 50.397233 
L 565.914375 324.868709 
L 575.234125 345.385452 
L 584.553875 347.288454 
L 593.873625 349.587153 
L 603.193375 349.719814 
L 612.513125 350.479185 
L 621.832875 352.178621 
L 631.152625 352.757298 
L 640.472375 352.919694 
L 649.792125 353.038632 
L 659.111875 353.034057 
L 668.431625 353.040919 
L 677.751375 353.104962 
L 687.071125 353.125548 
L 696.390875 353.157569 
L 705.710625 353.14842 
L 715.030375 353.150708 
L 724.350125 353.159857 
L 733.669875 353.164431 
L 742.989625 353.175867 
L 752.309375 353.166718 
L 761.629125 353.169006 
L 770.948875 353.178155 
L 780.268625 353.189591 
L 789.588375 353.203315 
L 798.908125 353.201027 
L 808.227875 353.196453 
L 817.547625 353.194166 
L 826.867375 353.205602 
L 836.187125 353.214751 
L 845.506875 353.207889 
L 854.826625 353.214751 
L 864.146375 353.210176 
L 873.466125 353.210176 
L 882.785875 353.212464 
L 892.105625 353.210176 
L 901.425375 353.221613 
L 910.745125 353.2239 
L 920.064875 353.221613 
L 929.384625 353.2239 
L 938.704375 353.2239 
L 948.024125 353.2239 
L 957.343875 353.2239 
L 966.663625 353.2239 
L 975.983375 353.2239 
L 985.303125 353.2239 
" clip-path="url(#pb477e2fc0d)" style="fill: none; stroke: #d9534f; stroke-linecap: square"/>
   </g>
   <g id="line2d_13">
    <path d="M 53.328125 353.2239 
L 62.647875 353.2239 
L 71.967625 353.2239 
L 81.287375 353.2239 
L 90.607125 353.2239 
L 99.926875 353.2239 
L 109.246625 353.2239 
L 118.566375 353.2239 
L 127.886125 353.2239 
L 137.205875 353.2239 
L 146.525625 353.2239 
L 155.845375 353.2239 
L 165.165125 353.221613 
L 174.484875 353.221613 
L 183.804625 353.2239 
L 193.124375 353.2239 
L 202.444125 353.2239 
L 211.763875 353.2239 
L 221.083625 353.2239 
L 230.403375 353.2239 
L 239.723125 353.221613 
L 249.042875 353.221613 
L 258.362625 353.221613 
L 267.682375 353.2239 
L 277.002125 353.2239 
L 286.321875 353.2239 
L 295.641625 353.219325 
L 304.961375 353.219325 
L 314.281125 353.2239 
L 323.600875 353.2239 
L 332.920625 353.2239 
L 342.240375 353.2239 
L 351.560125 353.2239 
L 360.879875 353.2239 
L 370.199625 353.219325 
L 379.519375 353.214751 
L 388.839125 353.217038 
L 398.158875 353.217038 
L 407.478625 353.2239 
L 416.798375 353.212464 
L 426.118125 353.201027 
L 435.437875 353.196453 
L 444.757625 353.157569 
L 454.077375 352.965439 
L 463.397125 352.755011 
L 472.716875 347.029994 
L 482.036625 348.189636 
L 491.356375 346.952227 
L 500.676125 346.997972 
L 509.995875 349.619175 
L 519.315625 338.875904 
L 528.635375 337.318278 
L 537.955125 343.855274 
L 547.274875 341.375881 
L 556.594625 337.37546 
L 565.914375 340.239112 
L 575.234125 332.652263 
L 584.553875 64.347246 
L 593.873625 67.764416 
L 603.193375 341.620618 
L 612.513125 349.083955 
L 621.832875 351.336909 
L 631.152625 351.947608 
L 640.472375 352.503412 
L 649.792125 351.56106 
L 659.111875 352.661233 
L 668.431625 352.807618 
L 677.751375 352.935705 
L 687.071125 352.997461 
L 696.390875 353.059217 
L 705.710625 353.102675 
L 715.030375 353.104962 
L 724.350125 353.109537 
L 733.669875 353.146133 
L 742.989625 353.166718 
L 752.309375 353.152995 
L 761.629125 353.159857 
L 770.948875 353.180442 
L 780.268625 353.185017 
L 789.588375 353.187304 
L 798.908125 353.182729 
L 808.227875 353.187304 
L 817.547625 353.194166 
L 826.867375 353.19874 
L 836.187125 353.210176 
L 845.506875 353.212464 
L 854.826625 353.201027 
L 864.146375 353.205602 
L 873.466125 353.217038 
L 882.785875 353.221613 
L 892.105625 353.221613 
L 901.425375 353.219325 
L 910.745125 353.217038 
L 920.064875 353.2239 
L 929.384625 353.221613 
L 938.704375 353.2239 
L 948.024125 353.2239 
L 957.343875 353.2239 
L 966.663625 353.2239 
L 975.983375 353.2239 
L 985.303125 353.220469 
" clip-path="url(#pb477e2fc0d)" style="fill: none; stroke: #d9534f; stroke-linecap: square"/>
   </g>
   <g id="line2d_14">
    <path d="M 53.328125 353.2239 
L 62.647875 353.221613 
L 71.967625 353.2239 
L 81.287375 353.2239 
L 90.607125 353.2239 
L 99.926875 353.2239 
L 109.246625 353.2239 
L 118.566375 353.221613 
L 127.886125 353.2239 
L 137.205875 353.2239 
L 146.525625 353.2239 
L 155.845375 353.2239 
L 165.165125 353.2239 
L 174.484875 353.2239 
L 183.804625 353.2239 
L 193.124375 353.2239 
L 202.444125 353.2239 
L 211.763875 353.2239 
L 221.083625 353.2239 
L 230.403375 353.2239 
L 239.723125 353.2239 
L 249.042875 353.2239 
L 258.362625 353.2239 
L 267.682375 353.2239 
L 277.002125 353.2239 
L 286.321875 353.221613 
L 295.641625 353.221613 
L 304.961375 353.2239 
L 314.281125 353.2239 
L 323.600875 353.2239 
L 332.920625 353.219325 
L 342.240375 353.221613 
L 351.560125 353.217038 
L 360.879875 353.219325 
L 370.199625 353.221613 
L 379.519375 353.217038 
L 388.839125 353.212464 
L 398.158875 353.201027 
L 407.478625 353.203315 
L 416.798375 353.201027 
L 426.118125 353.17358 
L 435.437875 353.152995 
L 444.757625 353.091239 
L 454.077375 353.018046 
L 463.397125 352.883098 
L 472.716875 352.219792 
L 482.036625 343.043296 
L 491.356375 342.940369 
L 500.676125 347.901441 
L 509.995875 335.602831 
L 519.315625 338.83702 
L 528.635375 333.308707 
L 537.955125 316.03759 
L 547.274875 222.312442 
L 556.594625 111.654692 
L 565.914375 318.128147 
L 575.234125 338.573985 
L 584.553875 344.786189 
L 593.873625 349.054221 
L 603.193375 350.449451 
L 612.513125 349.895933 
L 621.832875 351.549624 
L 631.152625 352.757298 
L 640.472375 352.901396 
L 649.792125 353.018046 
L 659.111875 353.070653 
L 668.431625 353.10725 
L 677.751375 353.100388 
L 687.071125 353.091239 
L 696.390875 353.136984 
L 705.710625 353.143846 
L 715.030375 353.139271 
L 724.350125 353.164431 
L 733.669875 353.155282 
L 742.989625 353.178155 
L 752.309375 353.180442 
L 761.629125 353.182729 
L 770.948875 353.187304 
L 780.268625 353.182729 
L 789.588375 353.187304 
L 798.908125 353.203315 
L 808.227875 353.207889 
L 817.547625 353.201027 
L 826.867375 353.201027 
L 836.187125 353.194166 
L 845.506875 353.205602 
L 854.826625 353.19874 
L 864.146375 353.201027 
L 873.466125 353.219325 
L 882.785875 353.2239 
L 892.105625 353.219325 
L 901.425375 353.214751 
L 910.745125 353.217038 
L 920.064875 353.221613 
L 929.384625 353.2239 
L 938.704375 353.2239 
L 948.024125 353.2239 
L 957.343875 353.2239 
L 966.663625 353.2239 
L 975.983375 353.221613 
L 985.303125 353.220469 
" clip-path="url(#pb477e2fc0d)" style="fill: none; stroke: #d9534f; stroke-linecap: square"/>
   </g>
   <g id="line2d_15">
    <path d="M 53.328125 353.2239 
L 62.647875 353.2239 
L 71.967625 353.2239 
L 81.287375 353.2239 
L 90.607125 353.2239 
L 99.926875 353.2239 
L 109.246625 353.2239 
L 118.566375 353.2239 
L 127.886125 353.2239 
L 137.205875 353.2239 
L 146.525625 353.2239 
L 155.845375 353.2239 
L 165.165125 353.2239 
L 174.484875 353.2239 
L 183.804625 353.2239 
L 193.124375 353.2239 
L 202.444125 353.2239 
L 211.763875 353.2239 
L 221.083625 353.2239 
L 230.403375 353.2239 
L 239.723125 353.221613 
L 249.042875 353.221613 
L 258.362625 353.2239 
L 267.682375 353.2239 
L 277.002125 353.2239 
L 286.321875 353.221613 
L 295.641625 353.221613 
L 304.961375 353.221613 
L 314.281125 353.221613 
L 323.600875 353.2239 
L 332.920625 353.2239 
L 342.240375 353.2239 
L 351.560125 353.221613 
L 360.879875 353.221613 
L 370.199625 353.221613 
L 379.519375 353.219325 
L 388.839125 353.221613 
L 398.158875 353.212464 
L 407.478625 353.212464 
L 416.798375 353.214751 
L 426.118125 353.210176 
L 435.437875 353.182729 
L 444.757625 353.114111 
L 454.077375 352.88996 
L 463.397125 352.496551 
L 472.716875 343.045583 
L 482.036625 349.104541 
L 491.356375 347.343349 
L 500.676125 342.016315 
L 509.995875 346.485625 
L 519.315625 329.026952 
L 528.635375 327.368687 
L 537.955125 336.227254 
L 547.274875 338.672337 
L 556.594625 333.910257 
L 565.914375 339.667296 
L 575.234125 333.88281 
L 584.553875 125.030602 
L 593.873625 131.126156 
L 603.193375 340.55018 
L 612.513125 347.972346 
L 621.832875 351.023554 
L 631.152625 351.959044 
L 640.472375 352.501125 
L 649.792125 352.112291 
L 659.111875 352.706979 
L 668.431625 352.414209 
L 677.751375 352.937992 
L 687.071125 353.029483 
L 696.390875 353.102675 
L 705.710625 353.114111 
L 715.030375 353.141559 
L 724.350125 353.125548 
L 733.669875 353.146133 
L 742.989625 353.152995 
L 752.309375 353.17358 
L 761.629125 353.178155 
L 770.948875 353.175867 
L 780.268625 353.196453 
L 789.588375 353.191878 
L 798.908125 353.19874 
L 808.227875 353.19874 
L 817.547625 353.203315 
L 826.867375 353.212464 
L 836.187125 353.205602 
L 845.506875 353.210176 
L 854.826625 353.214751 
L 864.146375 353.214751 
L 873.466125 353.217038 
L 882.785875 353.217038 
L 892.105625 353.217038 
L 901.425375 353.221613 
L 910.745125 353.221613 
L 920.064875 353.221613 
L 929.384625 353.2239 
L 938.704375 353.2239 
L 948.024125 353.2239 
L 957.343875 353.2239 
L 966.663625 353.2239 
L 975.983375 353.2239 
L 985.303125 353.2239 
" clip-path="url(#pb477e2fc0d)" style="fill: none; stroke: #d9534f; stroke-linecap: square"/>
   </g>
   <g id="line2d_16">
    <path d="M 53.328125 353.2239 
L 62.647875 353.2239 
L 71.967625 353.2239 
L 81.287375 353.2239 
L 90.607125 353.2239 
L 99.926875 353.2239 
L 109.246625 353.2239 
L 118.566375 353.2239 
L 127.886125 353.221613 
L 137.205875 353.221613 
L 146.525625 353.2239 
L 155.845375 353.2239 
L 165.165125 353.2239 
L 174.484875 353.2239 
L 183.804625 353.2239 
L 193.124375 353.2239 
L 202.444125 353.2239 
L 211.763875 353.221613 
L 221.083625 353.221613 
L 230.403375 353.2239 
L 239.723125 353.2239 
L 249.042875 353.2239 
L 258.362625 353.221613 
L 267.682375 353.221613 
L 277.002125 353.217038 
L 286.321875 353.219325 
L 295.641625 353.2239 
L 304.961375 353.2239 
L 314.281125 353.2239 
L 323.600875 353.2239 
L 332.920625 353.217038 
L 342.240375 353.212464 
L 351.560125 353.205602 
L 360.879875 353.207889 
L 370.199625 353.210176 
L 379.519375 353.212464 
L 388.839125 353.178155 
L 398.158875 353.164431 
L 407.478625 353.14842 
L 416.798375 353.072941 
L 426.118125 353.029483 
L 435.437875 352.919694 
L 444.757625 352.771022 
L 454.077375 352.464529 
L 463.397125 351.73718 
L 472.716875 346.648021 
L 482.036625 271.467996 
L 491.356375 318.80289 
L 500.676125 339.367665 
L 509.995875 325.351322 
L 519.315625 332.716306 
L 528.635375 286.742334 
L 537.955125 251.916478 
L 547.274875 262.668898 
L 556.594625 266.182133 
L 565.914375 321.003236 
L 575.234125 340.836087 
L 584.553875 345.033214 
L 593.873625 348.166763 
L 603.193375 348.916985 
L 612.513125 348.150752 
L 621.832875 351.387228 
L 631.152625 352.658946 
L 640.472375 352.944854 
L 649.792125 353.03177 
L 659.111875 353.061504 
L 668.431625 353.068366 
L 677.751375 353.102675 
L 687.071125 353.134697 
L 696.390875 353.159857 
L 705.710625 353.139271 
L 715.030375 353.14842 
L 724.350125 353.17358 
L 733.669875 353.17358 
L 742.989625 353.166718 
L 752.309375 353.189591 
L 761.629125 353.180442 
L 770.948875 353.185017 
L 780.268625 353.17358 
L 789.588375 353.182729 
L 798.908125 353.207889 
L 808.227875 353.201027 
L 817.547625 353.187304 
L 826.867375 353.203315 
L 836.187125 353.207889 
L 845.506875 353.205602 
L 854.826625 353.219325 
L 864.146375 353.214751 
L 873.466125 353.217038 
L 882.785875 353.217038 
L 892.105625 353.219325 
L 901.425375 353.221613 
L 910.745125 353.2239 
L 920.064875 353.2239 
L 929.384625 353.2239 
L 938.704375 353.2239 
L 948.024125 353.2239 
L 957.343875 353.2239 
L 966.663625 353.2239 
L 975.983375 353.2239 
L 985.303125 353.2239 
" clip-path="url(#pb477e2fc0d)" style="fill: none; stroke: #d9534f; stroke-linecap: square"/>
   </g>
   <g id="line2d_17">
    <path d="M 53.328125 353.2239 
L 62.647875 353.2239 
L 71.967625 353.2239 
L 81.287375 353.2239 
L 90.607125 353.2239 
L 99.926875 353.2239 
L 109.246625 353.2239 
L 118.566375 353.2239 
L 127.886125 353.2239 
L 137.205875 353.2239 
L 146.525625 353.2239 
L 155.845375 353.2239 
L 165.165125 353.2239 
L 174.484875 353.2239 
L 183.804625 353.2239 
L 193.124375 353.2239 
L 202.444125 353.2239 
L 211.763875 353.2239 
L 221.083625 353.221613 
L 230.403375 353.221613 
L 239.723125 353.2239 
L 249.042875 353.2239 
L 258.362625 353.2239 
L 267.682375 353.221613 
L 277.002125 353.221613 
L 286.321875 353.221613 
L 295.641625 353.219325 
L 304.961375 353.219325 
L 314.281125 353.219325 
L 323.600875 353.219325 
L 332.920625 353.219325 
L 342.240375 353.219325 
L 351.560125 353.217038 
L 360.879875 353.219325 
L 370.199625 353.212464 
L 379.519375 353.214751 
L 388.839125 353.214751 
L 398.158875 353.212464 
L 407.478625 353.178155 
L 416.798375 353.141559 
L 426.118125 353.088952 
L 435.437875 353.020334 
L 444.757625 352.741288 
L 454.077375 351.883564 
L 463.397125 348.38634 
L 472.716875 274.63128 
L 482.036625 342.37084 
L 491.356375 343.052445 
L 500.676125 325.339885 
L 509.995875 339.603253 
L 519.315625 306.28699 
L 528.635375 315.355985 
L 537.955125 325.564037 
L 547.274875 322.563149 
L 556.594625 314.843639 
L 565.914375 325.772178 
L 575.234125 259.052737 
L 584.553875 285.221305 
L 593.873625 325.639517 
L 603.193375 339.116066 
L 612.513125 348.379478 
L 621.832875 351.169938 
L 631.152625 351.005256 
L 640.472375 352.366177 
L 649.792125 352.601765 
L 659.111875 352.613201 
L 668.431625 352.512561 
L 677.751375 352.924269 
L 687.071125 352.986025 
L 696.390875 353.095813 
L 705.710625 353.125548 
L 715.030375 353.116399 
L 724.350125 353.125548 
L 733.669875 353.171293 
L 742.989625 353.182729 
L 752.309375 353.180442 
L 761.629125 353.17358 
L 770.948875 353.185017 
L 780.268625 353.189591 
L 789.588375 353.191878 
L 798.908125 353.180442 
L 808.227875 353.201027 
L 817.547625 353.194166 
L 826.867375 353.194166 
L 836.187125 353.210176 
L 845.506875 353.203315 
L 854.826625 353.217038 
L 864.146375 353.219325 
L 873.466125 353.219325 
L 882.785875 353.2239 
L 892.105625 353.221613 
L 901.425375 353.221613 
L 910.745125 353.219325 
L 920.064875 353.2239 
L 929.384625 353.2239 
L 938.704375 353.2239 
L 948.024125 353.2239 
L 957.343875 353.2239 
L 966.663625 353.2239 
L 975.983375 353.2239 
L 985.303125 353.2239 
" clip-path="url(#pb477e2fc0d)" style="fill: none; stroke: #d9534f; stroke-linecap: square"/>
   </g>
   <g id="line2d_18">
    <path d="M 53.328125 353.2239 
L 62.647875 353.2239 
L 71.967625 353.2239 
L 81.287375 353.2239 
L 90.607125 353.2239 
L 99.926875 353.2239 
L 109.246625 353.221613 
L 118.566375 353.221613 
L 127.886125 353.2239 
L 137.205875 353.221613 
L 146.525625 353.2239 
L 155.845375 353.2239 
L 165.165125 353.2239 
L 174.484875 353.2239 
L 183.804625 353.2239 
L 193.124375 353.2239 
L 202.444125 353.2239 
L 211.763875 353.2239 
L 221.083625 353.2239 
L 230.403375 353.2239 
L 239.723125 353.221613 
L 249.042875 353.221613 
L 258.362625 353.2239 
L 267.682375 353.2239 
L 277.002125 353.2239 
L 286.321875 353.221613 
L 295.641625 353.2239 
L 304.961375 353.2239 
L 314.281125 353.2239 
L 323.600875 353.2239 
L 332.920625 353.2239 
L 342.240375 353.217038 
L 351.560125 353.214751 
L 360.879875 353.214751 
L 370.199625 353.217038 
L 379.519375 353.205602 
L 388.839125 353.201027 
L 398.158875 353.194166 
L 407.478625 353.143846 
L 416.798375 353.104962 
L 426.118125 353.08209 
L 435.437875 352.942567 
L 444.757625 352.761873 
L 454.077375 352.393624 
L 463.397125 351.435261 
L 472.716875 345.598167 
L 482.036625 239.958671 
L 491.356375 317.853676 
L 500.676125 344.745019 
L 509.995875 343.759209 
L 519.315625 333.960577 
L 528.635375 316.197698 
L 537.955125 285.994399 
L 547.274875 241.010812 
L 556.594625 256.639675 
L 565.914375 324.010986 
L 575.234125 342.892336 
L 584.553875 342.608716 
L 593.873625 345.390027 
L 603.193375 345.511252 
L 612.513125 347.411966 
L 621.832875 351.032703 
L 631.152625 352.45538 
L 640.472375 352.844214 
L 649.792125 352.997461 
L 659.111875 353.011185 
L 668.431625 353.059217 
L 677.751375 353.111824 
L 687.071125 353.114111 
L 696.390875 353.127835 
L 705.710625 353.159857 
L 715.030375 353.17358 
L 724.350125 353.175867 
L 733.669875 353.189591 
L 742.989625 353.169006 
L 752.309375 353.166718 
L 761.629125 353.187304 
L 770.948875 353.17358 
L 780.268625 353.157569 
L 789.588375 353.171293 
L 798.908125 353.194166 
L 808.227875 353.194166 
L 817.547625 353.205602 
L 826.867375 353.217038 
L 836.187125 353.214751 
L 845.506875 353.207889 
L 854.826625 353.205602 
L 864.146375 353.217038 
L 873.466125 353.217038 
L 882.785875 353.214751 
L 892.105625 353.214751 
L 901.425375 353.214751 
L 910.745125 353.217038 
L 920.064875 353.219325 
L 929.384625 353.2239 
L 938.704375 353.2239 
L 948.024125 353.2239 
L 957.343875 353.2239 
L 966.663625 353.2239 
L 975.983375 353.2239 
L 985.303125 353.2239 
" clip-path="url(#pb477e2fc0d)" style="fill: none; stroke: #d9534f; stroke-linecap: square"/>
   </g>
   <g id="line2d_19">
    <path d="M 53.328125 353.2239 
L 62.647875 353.2239 
L 71.967625 353.2239 
L 81.287375 353.2239 
L 90.607125 353.2239 
L 99.926875 353.2239 
L 109.246625 353.2239 
L 118.566375 353.2239 
L 127.886125 353.2239 
L 137.205875 353.2239 
L 146.525625 353.2239 
L 155.845375 353.2239 
L 165.165125 353.2239 
L 174.484875 353.2239 
L 183.804625 353.2239 
L 193.124375 353.2239 
L 202.444125 353.2239 
L 211.763875 353.2239 
L 221.083625 353.2239 
L 230.403375 353.2239 
L 239.723125 353.2239 
L 249.042875 353.2239 
L 258.362625 353.2239 
L 267.682375 353.2239 
L 277.002125 353.2239 
L 286.321875 353.2239 
L 295.641625 353.2239 
L 304.961375 353.221613 
L 314.281125 353.221613 
L 323.600875 353.2239 
L 332.920625 353.219325 
L 342.240375 353.217038 
L 351.560125 353.219325 
L 360.879875 353.217038 
L 370.199625 353.214751 
L 379.519375 353.191878 
L 388.839125 353.185017 
L 398.158875 353.157569 
L 407.478625 353.116399 
L 416.798375 353.045494 
L 426.118125 353.024908 
L 435.437875 352.876236 
L 444.757625 352.475965 
L 454.077375 351.634253 
L 463.397125 345.884075 
L 472.716875 245.040968 
L 482.036625 341.382743 
L 491.356375 341.462797 
L 500.676125 331.030594 
L 509.995875 343.887295 
L 519.315625 325.886541 
L 528.635375 334.38372 
L 537.955125 325.527441 
L 547.274875 318.832624 
L 556.594625 316.982229 
L 565.914375 318.878369 
L 575.234125 261.662503 
L 584.553875 309.582935 
L 593.873625 324.230563 
L 603.193375 336.332468 
L 612.513125 347.963197 
L 621.832875 349.06337 
L 631.152625 349.605451 
L 640.472375 352.082556 
L 649.792125 352.421071 
L 659.111875 352.09628 
L 668.431625 351.760052 
L 677.751375 352.862513 
L 687.071125 352.901396 
L 696.390875 353.111824 
L 705.710625 353.152995 
L 715.030375 353.139271 
L 724.350125 353.162144 
L 733.669875 353.175867 
L 742.989625 353.166718 
L 752.309375 353.178155 
L 761.629125 353.185017 
L 770.948875 353.19874 
L 780.268625 353.194166 
L 789.588375 353.207889 
L 798.908125 353.201027 
L 808.227875 353.205602 
L 817.547625 353.205602 
L 826.867375 353.210176 
L 836.187125 353.214751 
L 845.506875 353.217038 
L 854.826625 353.221613 
L 864.146375 353.214751 
L 873.466125 353.214751 
L 882.785875 353.217038 
L 892.105625 353.217038 
L 901.425375 353.2239 
L 910.745125 353.2239 
L 920.064875 353.2239 
L 929.384625 353.2239 
L 938.704375 353.2239 
L 948.024125 353.2239 
L 957.343875 353.2239 
L 966.663625 353.2239 
L 975.983375 353.2239 
L 985.303125 353.2239 
" clip-path="url(#pb477e2fc0d)" style="fill: none; stroke: #d9534f; stroke-linecap: square"/>
   </g>
   <g id="line2d_20">
    <path d="M 53.328125 353.2239 
L 62.647875 353.2239 
L 71.967625 353.2239 
L 81.287375 353.2239 
L 90.607125 353.2239 
L 99.926875 353.2239 
L 109.246625 353.2239 
L 118.566375 353.221613 
L 127.886125 353.2239 
L 137.205875 353.2239 
L 146.525625 353.2239 
L 155.845375 353.2239 
L 165.165125 353.2239 
L 174.484875 353.2239 
L 183.804625 353.221613 
L 193.124375 353.221613 
L 202.444125 353.221613 
L 211.763875 353.2239 
L 221.083625 353.2239 
L 230.403375 353.221613 
L 239.723125 353.2239 
L 249.042875 353.2239 
L 258.362625 353.2239 
L 267.682375 353.2239 
L 277.002125 353.2239 
L 286.321875 353.2239 
L 295.641625 353.2239 
L 304.961375 353.221613 
L 314.281125 353.2239 
L 323.600875 353.221613 
L 332.920625 353.2239 
L 342.240375 353.219325 
L 351.560125 353.212464 
L 360.879875 353.214751 
L 370.199625 353.217038 
L 379.519375 353.210176 
L 388.839125 353.201027 
L 398.158875 353.194166 
L 407.478625 353.175867 
L 416.798375 353.141559 
L 426.118125 353.120973 
L 435.437875 353.061504 
L 444.757625 352.960865 
L 454.077375 352.755011 
L 463.397125 352.258675 
L 472.716875 349.413321 
L 482.036625 305.065592 
L 491.356375 320.765361 
L 500.676125 343.416119 
L 509.995875 338.864467 
L 519.315625 336.124327 
L 528.635375 206.470864 
L 537.955125 179.07861 
L 547.274875 282.149511 
L 556.594625 275.507302 
L 565.914375 331.010009 
L 575.234125 344.440813 
L 584.553875 345.01949 
L 593.873625 346.021311 
L 603.193375 344.674114 
L 612.513125 344.678688 
L 621.832875 350.717061 
L 631.152625 352.226654 
L 640.472375 352.642935 
L 649.792125 352.93113 
L 659.111875 353.013472 
L 668.431625 353.061504 
L 677.751375 353.114111 
L 687.071125 353.118686 
L 696.390875 353.146133 
L 705.710625 353.152995 
L 715.030375 353.164431 
L 724.350125 353.157569 
L 733.669875 353.166718 
L 742.989625 353.162144 
L 752.309375 353.185017 
L 761.629125 353.191878 
L 770.948875 353.187304 
L 780.268625 353.205602 
L 789.588375 353.207889 
L 798.908125 353.203315 
L 808.227875 353.205602 
L 817.547625 353.196453 
L 826.867375 353.19874 
L 836.187125 353.210176 
L 845.506875 353.214751 
L 854.826625 353.217038 
L 864.146375 353.212464 
L 873.466125 353.214751 
L 882.785875 353.219325 
L 892.105625 353.212464 
L 901.425375 353.214751 
L 910.745125 353.221613 
L 920.064875 353.2239 
L 929.384625 353.2239 
L 938.704375 353.2239 
L 948.024125 353.2239 
L 957.343875 353.221613 
L 966.663625 353.2239 
L 975.983375 353.2239 
L 985.303125 353.2239 
" clip-path="url(#pb477e2fc0d)" style="fill: none; stroke: #d9534f; stroke-linecap: square"/>
   </g>
   <g id="line2d_21">
    <path d="M 53.328125 353.2239 
L 62.647875 353.2239 
L 71.967625 353.2239 
L 81.287375 353.2239 
L 90.607125 353.2239 
L 99.926875 353.2239 
L 109.246625 353.2239 
L 118.566375 353.2239 
L 127.886125 353.2239 
L 137.205875 353.221613 
L 146.525625 353.221613 
L 155.845375 353.221613 
L 165.165125 353.2239 
L 174.484875 353.2239 
L 183.804625 353.2239 
L 193.124375 353.2239 
L 202.444125 353.2239 
L 211.763875 353.2239 
L 221.083625 353.2239 
L 230.403375 353.2239 
L 239.723125 353.221613 
L 249.042875 353.221613 
L 258.362625 353.2239 
L 267.682375 353.221613 
L 277.002125 353.221613 
L 286.321875 353.2239 
L 295.641625 353.221613 
L 304.961375 353.2239 
L 314.281125 353.2239 
L 323.600875 353.2239 
L 332.920625 353.221613 
L 342.240375 353.219325 
L 351.560125 353.2239 
L 360.879875 353.221613 
L 370.199625 353.221613 
L 379.519375 353.221613 
L 388.839125 353.219325 
L 398.158875 353.212464 
L 407.478625 353.187304 
L 416.798375 353.169006 
L 426.118125 353.136984 
L 435.437875 353.088952 
L 444.757625 352.976876 
L 454.077375 352.082556 
L 463.397125 349.893646 
L 472.716875 307.558708 
L 482.036625 346.675468 
L 491.356375 345.666785 
L 500.676125 325.637229 
L 509.995875 342.848878 
L 519.315625 320.385675 
L 528.635375 333.761585 
L 537.955125 334.786279 
L 547.274875 332.350344 
L 556.594625 325.575473 
L 565.914375 327.286346 
L 575.234125 180.478415 
L 584.553875 184.661818 
L 593.873625 320.872862 
L 603.193375 338.818722 
L 612.513125 347.892292 
L 621.832875 351.1768 
L 631.152625 351.643402 
L 640.472375 352.402773 
L 649.792125 352.594903 
L 659.111875 352.562881 
L 668.431625 352.626925 
L 677.751375 352.896821 
L 687.071125 352.905971 
L 696.390875 353.072941 
L 705.710625 353.084377 
L 715.030375 353.139271 
L 724.350125 353.14842 
L 733.669875 353.175867 
L 742.989625 353.141559 
L 752.309375 353.187304 
L 761.629125 353.185017 
L 770.948875 353.182729 
L 780.268625 353.178155 
L 789.588375 353.191878 
L 798.908125 353.191878 
L 808.227875 353.203315 
L 817.547625 353.205602 
L 826.867375 353.214751 
L 836.187125 353.214751 
L 845.506875 353.207889 
L 854.826625 353.217038 
L 864.146375 353.221613 
L 873.466125 353.221613 
L 882.785875 353.212464 
L 892.105625 353.217038 
L 901.425375 353.214751 
L 910.745125 353.219325 
L 920.064875 353.217038 
L 929.384625 353.221613 
L 938.704375 353.2239 
L 948.024125 353.2239 
L 957.343875 353.2239 
L 966.663625 353.2239 
L 975.983375 353.2239 
L 985.303125 353.2239 
" clip-path="url(#pb477e2fc0d)" style="fill: none; stroke: #d9534f; stroke-linecap: square"/>
   </g>
   <g id="line2d_22">
    <path d="M 53.328125 353.2239 
L 62.647875 353.2239 
L 71.967625 353.2239 
L 81.287375 353.2239 
L 90.607125 353.2239 
L 99.926875 353.2239 
L 109.246625 353.2239 
L 118.566375 353.2239 
L 127.886125 353.2239 
L 137.205875 353.2239 
L 146.525625 353.2239 
L 155.845375 353.2239 
L 165.165125 353.2239 
L 174.484875 353.2239 
L 183.804625 353.2239 
L 193.124375 353.2239 
L 202.444125 353.2239 
L 211.763875 353.2239 
L 221.083625 353.2239 
L 230.403375 353.2239 
L 239.723125 353.221613 
L 249.042875 353.221613 
L 258.362625 353.221613 
L 267.682375 353.221613 
L 277.002125 353.221613 
L 286.321875 353.2239 
L 295.641625 353.221613 
L 304.961375 353.219325 
L 314.281125 353.221613 
L 323.600875 353.219325 
L 332.920625 353.217038 
L 342.240375 353.214751 
L 351.560125 353.214751 
L 360.879875 353.212464 
L 370.199625 353.210176 
L 379.519375 353.191878 
L 388.839125 353.180442 
L 398.158875 353.166718 
L 407.478625 353.159857 
L 416.798375 353.120973 
L 426.118125 353.063792 
L 435.437875 352.972301 
L 444.757625 352.809906 
L 454.077375 352.443944 
L 463.397125 351.625104 
L 472.716875 346.380411 
L 482.036625 245.219374 
L 491.356375 322.780439 
L 500.676125 345.431197 
L 509.995875 342.576694 
L 519.315625 341.261518 
L 528.635375 272.70998 
L 537.955125 255.571523 
L 547.274875 274.832559 
L 556.594625 279.0091 
L 565.914375 338.818722 
L 575.234125 347.089463 
L 584.553875 347.135208 
L 593.873625 349.358427 
L 603.193375 350.120085 
L 612.513125 349.349278 
L 621.832875 351.940746 
L 631.152625 352.848789 
L 640.472375 352.967727 
L 649.792125 353.038632 
L 659.111875 353.070653 
L 668.431625 353.102675 
L 677.751375 353.120973 
L 687.071125 353.143846 
L 696.390875 353.143846 
L 705.710625 353.159857 
L 715.030375 353.17358 
L 724.350125 353.166718 
L 733.669875 353.180442 
L 742.989625 353.185017 
L 752.309375 353.194166 
L 761.629125 353.189591 
L 770.948875 353.185017 
L 780.268625 353.203315 
L 789.588375 353.205602 
L 798.908125 353.196453 
L 808.227875 353.196453 
L 817.547625 353.201027 
L 826.867375 353.207889 
L 836.187125 353.205602 
L 845.506875 353.212464 
L 854.826625 353.210176 
L 864.146375 353.219325 
L 873.466125 353.219325 
L 882.785875 353.219325 
L 892.105625 353.221613 
L 901.425375 353.2239 
L 910.745125 353.221613 
L 920.064875 353.219325 
L 929.384625 353.221613 
L 938.704375 353.2239 
L 948.024125 353.2239 
L 957.343875 353.2239 
L 966.663625 353.2239 
L 975.983375 353.2239 
L 985.303125 353.2239 
" clip-path="url(#pb477e2fc0d)" style="fill: none; stroke: #d9534f; stroke-linecap: square"/>
   </g>
   <g id="line2d_23">
    <path d="M 53.328125 353.2239 
L 62.647875 353.2239 
L 71.967625 353.2239 
L 81.287375 353.2239 
L 90.607125 353.2239 
L 99.926875 353.2239 
L 109.246625 353.2239 
L 118.566375 353.2239 
L 127.886125 353.2239 
L 137.205875 353.2239 
L 146.525625 353.2239 
L 155.845375 353.2239 
L 165.165125 353.2239 
L 174.484875 353.2239 
L 183.804625 353.2239 
L 193.124375 353.2239 
L 202.444125 353.2239 
L 211.763875 353.2239 
L 221.083625 353.2239 
L 230.403375 353.2239 
L 239.723125 353.2239 
L 249.042875 353.2239 
L 258.362625 353.2239 
L 267.682375 353.2239 
L 277.002125 353.2239 
L 286.321875 353.2239 
L 295.641625 353.221613 
L 304.961375 353.221613 
L 314.281125 353.2239 
L 323.600875 353.2239 
L 332.920625 353.221613 
L 342.240375 353.217038 
L 351.560125 353.221613 
L 360.879875 353.2239 
L 370.199625 353.221613 
L 379.519375 353.214751 
L 388.839125 353.210176 
L 398.158875 353.187304 
L 407.478625 353.169006 
L 416.798375 353.13241 
L 426.118125 353.072941 
L 435.437875 352.908258 
L 444.757625 352.613201 
L 454.077375 351.700583 
L 463.397125 346.650308 
L 472.716875 247.593552 
L 482.036625 342.032326 
L 491.356375 346.718926 
L 500.676125 336.947741 
L 509.995875 347.830535 
L 519.315625 333.841639 
L 528.635375 340.046982 
L 537.955125 337.647644 
L 547.274875 335.216284 
L 556.594625 332.775775 
L 565.914375 332.876415 
L 575.234125 229.990782 
L 584.553875 262.490492 
L 593.873625 330.209467 
L 603.193375 342.661323 
L 612.513125 349.1297 
L 621.832875 351.542762 
L 631.152625 352.210643 
L 640.472375 352.620063 
L 649.792125 352.83964 
L 659.111875 352.841927 
L 668.431625 352.8648 
L 677.751375 353.022621 
L 687.071125 353.077515 
L 696.390875 353.109537 
L 705.710625 353.12326 
L 715.030375 353.12326 
L 724.350125 353.146133 
L 733.669875 353.171293 
L 742.989625 353.180442 
L 752.309375 353.164431 
L 761.629125 353.182729 
L 770.948875 353.191878 
L 780.268625 353.194166 
L 789.588375 353.196453 
L 798.908125 353.205602 
L 808.227875 353.210176 
L 817.547625 353.210176 
L 826.867375 353.212464 
L 836.187125 353.207889 
L 845.506875 353.217038 
L 854.826625 353.221613 
L 864.146375 353.219325 
L 873.466125 353.219325 
L 882.785875 353.219325 
L 892.105625 353.221613 
L 901.425375 353.2239 
L 910.745125 353.221613 
L 920.064875 353.221613 
L 929.384625 353.2239 
L 938.704375 353.2239 
L 948.024125 353.2239 
L 957.343875 353.2239 
L 966.663625 353.2239 
L 975.983375 353.2239 
L 985.303125 353.2239 
" clip-path="url(#pb477e2fc0d)" style="fill: none; stroke: #d9534f; stroke-linecap: square"/>
   </g>
   <g id="line2d_24">
    <path d="M 53.328125 353.2239 
L 62.647875 353.2239 
L 71.967625 353.2239 
L 81.287375 353.2239 
L 90.607125 353.2239 
L 99.926875 353.2239 
L 109.246625 353.221613 
L 118.566375 353.221613 
L 127.886125 353.2239 
L 137.205875 353.2239 
L 146.525625 353.221613 
L 155.845375 353.221613 
L 165.165125 353.2239 
L 174.484875 353.2239 
L 183.804625 353.2239 
L 193.124375 353.2239 
L 202.444125 353.2239 
L 211.763875 353.221613 
L 221.083625 353.221613 
L 230.403375 353.2239 
L 239.723125 353.2239 
L 249.042875 353.2239 
L 258.362625 353.2239 
L 267.682375 353.2239 
L 277.002125 353.2239 
L 286.321875 353.2239 
L 295.641625 353.2239 
L 304.961375 353.2239 
L 314.281125 353.2239 
L 323.600875 353.2239 
L 332.920625 353.2239 
L 342.240375 353.219325 
L 351.560125 353.221613 
L 360.879875 353.214751 
L 370.199625 353.217038 
L 379.519375 353.217038 
L 388.839125 353.210176 
L 398.158875 353.212464 
L 407.478625 353.201027 
L 416.798375 353.182729 
L 426.118125 353.125548 
L 435.437875 353.100388 
L 444.757625 353.052355 
L 454.077375 352.896821 
L 463.397125 352.519423 
L 472.716875 350.40828 
L 482.036625 330.897933 
L 491.356375 325.827072 
L 500.676125 342.68877 
L 509.995875 340.422093 
L 519.315625 331.671027 
L 528.635375 201.127819 
L 537.955125 177.681093 
L 547.274875 284.125706 
L 556.594625 285.321944 
L 565.914375 332.599656 
L 575.234125 344.854807 
L 584.553875 347.597235 
L 593.873625 349.029061 
L 603.193375 349.312681 
L 612.513125 350.218437 
L 621.832875 351.97048 
L 631.152625 352.69783 
L 640.472375 352.873949 
L 649.792125 353.03177 
L 659.111875 353.070653 
L 668.431625 353.10725 
L 677.751375 353.136984 
L 687.071125 353.139271 
L 696.390875 353.127835 
L 705.710625 353.152995 
L 715.030375 353.201027 
L 724.350125 353.182729 
L 733.669875 353.175867 
L 742.989625 353.169006 
L 752.309375 353.19874 
L 761.629125 353.201027 
L 770.948875 353.194166 
L 780.268625 353.207889 
L 789.588375 353.191878 
L 798.908125 353.205602 
L 808.227875 353.210176 
L 817.547625 353.214751 
L 826.867375 353.212464 
L 836.187125 353.217038 
L 845.506875 353.219325 
L 854.826625 353.219325 
L 864.146375 353.217038 
L 873.466125 353.221613 
L 882.785875 353.2239 
L 892.105625 353.217038 
L 901.425375 353.219325 
L 910.745125 353.219325 
L 920.064875 353.219325 
L 929.384625 353.221613 
L 938.704375 353.221613 
L 948.024125 353.221613 
L 957.343875 353.2239 
L 966.663625 353.2239 
L 975.983375 353.2239 
L 985.303125 353.2239 
" clip-path="url(#pb477e2fc0d)" style="fill: none; stroke: #d9534f; stroke-linecap: square"/>
   </g>
   <g id="line2d_25">
    <path d="M 53.328125 353.2239 
L 62.647875 353.2239 
L 71.967625 353.2239 
L 81.287375 353.2239 
L 90.607125 353.2239 
L 99.926875 353.2239 
L 109.246625 353.2239 
L 118.566375 353.2239 
L 127.886125 353.2239 
L 137.205875 353.2239 
L 146.525625 353.2239 
L 155.845375 353.2239 
L 165.165125 353.2239 
L 174.484875 353.2239 
L 183.804625 353.2239 
L 193.124375 353.221613 
L 202.444125 353.221613 
L 211.763875 353.2239 
L 221.083625 353.2239 
L 230.403375 353.2239 
L 239.723125 353.2239 
L 249.042875 353.2239 
L 258.362625 353.2239 
L 267.682375 353.2239 
L 277.002125 353.221613 
L 286.321875 353.219325 
L 295.641625 353.2239 
L 304.961375 353.219325 
L 314.281125 353.219325 
L 323.600875 353.221613 
L 332.920625 353.2239 
L 342.240375 353.2239 
L 351.560125 353.221613 
L 360.879875 353.2239 
L 370.199625 353.219325 
L 379.519375 353.214751 
L 388.839125 353.207889 
L 398.158875 353.201027 
L 407.478625 353.196453 
L 416.798375 353.180442 
L 426.118125 353.157569 
L 435.437875 353.114111 
L 444.757625 353.03177 
L 454.077375 352.823629 
L 463.397125 351.581646 
L 472.716875 334.628458 
L 482.036625 346.430731 
L 491.356375 335.079048 
L 500.676125 327.542519 
L 509.995875 344.557463 
L 519.315625 330.831602 
L 528.635375 337.002636 
L 537.955125 328.677001 
L 547.274875 321.405794 
L 556.594625 322.611181 
L 565.914375 329.02009 
L 575.234125 175.867294 
L 584.553875 190.311355 
L 593.873625 326.332557 
L 603.193375 345.476943 
L 612.513125 350.543229 
L 621.832875 350.833711 
L 631.152625 351.220258 
L 640.472375 352.574318 
L 649.792125 352.658946 
L 659.111875 352.558307 
L 668.431625 352.471391 
L 677.751375 353.00661 
L 687.071125 353.027195 
L 696.390875 353.127835 
L 705.710625 353.155282 
L 715.030375 353.157569 
L 724.350125 353.157569 
L 733.669875 353.175867 
L 742.989625 353.175867 
L 752.309375 353.180442 
L 761.629125 353.201027 
L 770.948875 353.19874 
L 780.268625 353.175867 
L 789.588375 353.175867 
L 798.908125 353.201027 
L 808.227875 353.205602 
L 817.547625 353.203315 
L 826.867375 353.214751 
L 836.187125 353.214751 
L 845.506875 353.214751 
L 854.826625 353.214751 
L 864.146375 353.217038 
L 873.466125 353.219325 
L 882.785875 353.217038 
L 892.105625 353.219325 
L 901.425375 353.219325 
L 910.745125 353.221613 
L 920.064875 353.2239 
L 929.384625 353.2239 
L 938.704375 353.221613 
L 948.024125 353.221613 
L 957.343875 353.2239 
L 966.663625 353.2239 
L 975.983375 353.2239 
L 985.303125 353.2239 
" clip-path="url(#pb477e2fc0d)" style="fill: none; stroke: #d9534f; stroke-linecap: square"/>
   </g>
   <g id="line2d_26">
    <path d="M 53.328125 353.2239 
L 985.303125 353.2239 
" clip-path="url(#pb477e2fc0d)" style="fill: none; stroke: #dedede; stroke-width: 2; stroke-linecap: square"/>
   </g>
   <g id="text_14">
    <!-- FastQC: Per Sequence GC Content -->
    <g transform="translate(382.679375 19.3575) scale(0.16 -0.16)">
     <defs>
      <path id="DejaVuSans-46" d="M 628 4666 
L 3309 4666 
L 3309 4134 
L 1259 4134 
L 1259 2759 
L 3109 2759 
L 3109 2228 
L 1259 2228 
L 1259 0 
L 628 0 
L 628 4666 
z
" transform="scale(0.015625)"/>
      <path id="DejaVuSans-61" d="M 2194 1759 
Q 1497 1759 1228 1600 
Q 959 1441 959 1056 
Q 959 750 1161 570 
Q 1363 391 1709 391 
Q 2188 391 2477 730 
Q 2766 1069 2766 1631 
L 2766 1759 
L 2194 1759 
z
M 3341 1997 
L 3341 0 
L 2766 0 
L 2766 531 
Q 2569 213 2275 61 
Q 1981 -91 1556 -91 
Q 1019 -91 701 211 
Q 384 513 384 1019 
Q 384 1609 779 1909 
Q 1175 2209 1959 2209 
L 2766 2209 
L 2766 2266 
Q 2766 2663 2505 2880 
Q 2244 3097 1772 3097 
Q 1472 3097 1187 3025 
Q 903 2953 641 2809 
L 641 3341 
Q 956 3463 1253 3523 
Q 1550 3584 1831 3584 
Q 2591 3584 2966 3190 
Q 3341 2797 3341 1997 
z
" transform="scale(0.015625)"/>
      <path id="DejaVuSans-73" d="M 2834 3397 
L 2834 2853 
Q 2591 2978 2328 3040 
Q 2066 3103 1784 3103 
Q 1356 3103 1142 2972 
Q 928 2841 928 2578 
Q 928 2378 1081 2264 
Q 1234 2150 1697 2047 
L 1894 2003 
Q 2506 1872 2764 1633 
Q 3022 1394 3022 966 
Q 3022 478 2636 193 
Q 2250 -91 1575 -91 
Q 1294 -91 989 -36 
Q 684 19 347 128 
L 347 722 
Q 666 556 975 473 
Q 1284 391 1588 391 
Q 1994 391 2212 530 
Q 2431 669 2431 922 
Q 2431 1156 2273 1281 
Q 2116 1406 1581 1522 
L 1381 1569 
Q 847 1681 609 1914 
Q 372 2147 372 2553 
Q 372 3047 722 3315 
Q 1072 3584 1716 3584 
Q 2034 3584 2315 3537 
Q 2597 3491 2834 3397 
z
" transform="scale(0.015625)"/>
      <path id="DejaVuSans-51" d="M 2522 4238 
Q 1834 4238 1429 3725 
Q 1025 3213 1025 2328 
Q 1025 1447 1429 934 
Q 1834 422 2522 422 
Q 3209 422 3611 934 
Q 4013 1447 4013 2328 
Q 4013 3213 3611 3725 
Q 3209 4238 2522 4238 
z
M 3406 84 
L 4238 -825 
L 3475 -825 
L 2784 -78 
Q 2681 -84 2626 -87 
Q 2572 -91 2522 -91 
Q 1538 -91 948 567 
Q 359 1225 359 2328 
Q 359 3434 948 4092 
Q 1538 4750 2522 4750 
Q 3503 4750 4090 4092 
Q 4678 3434 4678 2328 
Q 4678 1516 4351 937 
Q 4025 359 3406 84 
z
" transform="scale(0.015625)"/>
      <path id="DejaVuSans-3a" d="M 750 794 
L 1409 794 
L 1409 0 
L 750 0 
L 750 794 
z
M 750 3309 
L 1409 3309 
L 1409 2516 
L 750 2516 
L 750 3309 
z
" transform="scale(0.015625)"/>
      <path id="DejaVuSans-50" d="M 1259 4147 
L 1259 2394 
L 2053 2394 
Q 2494 2394 2734 2622 
Q 2975 2850 2975 3272 
Q 2975 3691 2734 3919 
Q 2494 4147 2053 4147 
L 1259 4147 
z
M 628 4666 
L 2053 4666 
Q 2838 4666 3239 4311 
Q 3641 3956 3641 3272 
Q 3641 2581 3239 2228 
Q 2838 1875 2053 1875 
L 1259 1875 
L 1259 0 
L 628 0 
L 628 4666 
z
" transform="scale(0.015625)"/>
      <path id="DejaVuSans-65" d="M 3597 1894 
L 3597 1613 
L 953 1613 
Q 991 1019 1311 708 
Q 1631 397 2203 397 
Q 2534 397 2845 478 
Q 3156 559 3463 722 
L 3463 178 
Q 3153 47 2828 -22 
Q 2503 -91 2169 -91 
Q 1331 -91 842 396 
Q 353 884 353 1716 
Q 353 2575 817 3079 
Q 1281 3584 2069 3584 
Q 2775 3584 3186 3129 
Q 3597 2675 3597 1894 
z
M 3022 2063 
Q 3016 2534 2758 2815 
Q 2500 3097 2075 3097 
Q 1594 3097 1305 2825 
Q 1016 2553 972 2059 
L 3022 2063 
z
" transform="scale(0.015625)"/>
      <path id="DejaVuSans-72" d="M 2631 2963 
Q 2534 3019 2420 3045 
Q 2306 3072 2169 3072 
Q 1681 3072 1420 2755 
Q 1159 2438 1159 1844 
L 1159 0 
L 581 0 
L 581 3500 
L 1159 3500 
L 1159 2956 
Q 1341 3275 1631 3429 
Q 1922 3584 2338 3584 
Q 2397 3584 2469 3576 
Q 2541 3569 2628 3553 
L 2631 2963 
z
" transform="scale(0.015625)"/>
      <path id="DejaVuSans-53" d="M 3425 4513 
L 3425 3897 
Q 3066 4069 2747 4153 
Q 2428 4238 2131 4238 
Q 1616 4238 1336 4038 
Q 1056 3838 1056 3469 
Q 1056 3159 1242 3001 
Q 1428 2844 1947 2747 
L 2328 2669 
Q 3034 2534 3370 2195 
Q 3706 1856 3706 1288 
Q 3706 609 3251 259 
Q 2797 -91 1919 -91 
Q 1588 -91 1214 -16 
Q 841 59 441 206 
L 441 856 
Q 825 641 1194 531 
Q 1563 422 1919 422 
Q 2459 422 2753 634 
Q 3047 847 3047 1241 
Q 3047 1584 2836 1778 
Q 2625 1972 2144 2069 
L 1759 2144 
Q 1053 2284 737 2584 
Q 422 2884 422 3419 
Q 422 4038 858 4394 
Q 1294 4750 2059 4750 
Q 2388 4750 2728 4690 
Q 3069 4631 3425 4513 
z
" transform="scale(0.015625)"/>
      <path id="DejaVuSans-71" d="M 947 1747 
Q 947 1113 1208 752 
Q 1469 391 1925 391 
Q 2381 391 2643 752 
Q 2906 1113 2906 1747 
Q 2906 2381 2643 2742 
Q 2381 3103 1925 3103 
Q 1469 3103 1208 2742 
Q 947 2381 947 1747 
z
M 2906 525 
Q 2725 213 2448 61 
Q 2172 -91 1784 -91 
Q 1150 -91 751 415 
Q 353 922 353 1747 
Q 353 2572 751 3078 
Q 1150 3584 1784 3584 
Q 2172 3584 2448 3432 
Q 2725 3281 2906 2969 
L 2906 3500 
L 3481 3500 
L 3481 -1331 
L 2906 -1331 
L 2906 525 
z
" transform="scale(0.015625)"/>
      <path id="DejaVuSans-63" d="M 3122 3366 
L 3122 2828 
Q 2878 2963 2633 3030 
Q 2388 3097 2138 3097 
Q 1578 3097 1268 2742 
Q 959 2388 959 1747 
Q 959 1106 1268 751 
Q 1578 397 2138 397 
Q 2388 397 2633 464 
Q 2878 531 3122 666 
L 3122 134 
Q 2881 22 2623 -34 
Q 2366 -91 2075 -91 
Q 1284 -91 818 406 
Q 353 903 353 1747 
Q 353 2603 823 3093 
Q 1294 3584 2113 3584 
Q 2378 3584 2631 3529 
Q 2884 3475 3122 3366 
z
" transform="scale(0.015625)"/>
     </defs>
     <use xlink:href="#DejaVuSans-46"/>
     <use xlink:href="#DejaVuSans-61" x="48.394531"/>
     <use xlink:href="#DejaVuSans-73" x="109.673828"/>
     <use xlink:href="#DejaVuSans-74" x="161.773438"/>
     <use xlink:href="#DejaVuSans-51" x="200.982422"/>
     <use xlink:href="#DejaVuSans-43" x="279.693359"/>
     <use xlink:href="#DejaVuSans-3a" x="349.517578"/>
     <use xlink:href="#DejaVuSans-20" x="383.208984"/>
     <use xlink:href="#DejaVuSans-50" x="414.996094"/>
     <use xlink:href="#DejaVuSans-65" x="471.673828"/>
     <use xlink:href="#DejaVuSans-72" x="533.197266"/>
     <use xlink:href="#DejaVuSans-20" x="574.310547"/>
     <use xlink:href="#DejaVuSans-53" x="606.097656"/>
     <use xlink:href="#DejaVuSans-65" x="669.574219"/>
     <use xlink:href="#DejaVuSans-71" x="731.097656"/>
     <use xlink:href="#DejaVuSans-75" x="794.574219"/>
     <use xlink:href="#DejaVuSans-65" x="857.953125"/>
     <use xlink:href="#DejaVuSans-6e" x="919.476562"/>
     <use xlink:href="#DejaVuSans-63" x="982.855469"/>
     <use xlink:href="#DejaVuSans-65" x="1037.835938"/>
     <use xlink:href="#DejaVuSans-20" x="1099.359375"/>
     <use xlink:href="#DejaVuSans-47" x="1131.146484"/>
     <use xlink:href="#DejaVuSans-43" x="1208.636719"/>
     <use xlink:href="#DejaVuSans-20" x="1278.460938"/>
     <use xlink:href="#DejaVuSans-43" x="1310.248047"/>
     <use xlink:href="#DejaVuSans-6f" x="1380.072266"/>
     <use xlink:href="#DejaVuSans-6e" x="1441.253906"/>
     <use xlink:href="#DejaVuSans-74" x="1504.632812"/>
     <use xlink:href="#DejaVuSans-65" x="1543.841797"/>
     <use xlink:href="#DejaVuSans-6e" x="1605.365234"/>
     <use xlink:href="#DejaVuSans-74" x="1668.744141"/>
    </g>
   </g>
  </g>
 </g>
 <defs>
  <clipPath id="pb477e2fc0d">
   <rect x="53.328125" y="35.2559" width="931.975" height="317.968"/>
  </clipPath>
 </defs>
</svg>
